<?xml version="1.0" standalone="no"?>
<!DOCTYPE svg PUBLIC "-//W3C//DTD SVG 1.1//EN" "http://www.w3.org/Graphics/SVG/1.1/DTD/svg11.dtd" >
<svg>
<metadata>
Created by FontForge 20090622 at Sun Aug 27 21:59:00 2017
 By deploy user
Copyright 1990-1993 Bitstream Inc.  All rights reserved.
</metadata>
<defs>
<font id="SnellBT-Black" horiz-adv-x="1024" >
  <font-face 
    font-family="Snell Blk BT"
    font-weight="400"
    font-style="italic"
    font-stretch="normal"
    units-per-em="2048"
    panose-1="3 3 8 2 4 9 7 9 11 4"
    ascent="1638"
    descent="-410"
    x-height="713"
    cap-height="1411"
    bbox="-1688 -647 2460 1950"
    underline-thickness="160"
    underline-position="-231"
    slope="-30"
    unicode-range="U+0020-U+F002"
  />
<missing-glyph horiz-adv-x="1229" 
d="M102 -362v1806h1024v-1806h-1024zM217 -248h795v1577h-795v-1577z" />
    <glyph glyph-name=".notdef" horiz-adv-x="1229" 
d="M102 -362v1806h1024v-1806h-1024zM217 -248h795v1577h-795v-1577z" />
    <glyph glyph-name=".null" horiz-adv-x="0" 
 />
    <glyph glyph-name="nonmarkingreturn" horiz-adv-x="588" 
 />
    <glyph glyph-name="space" unicode=" " horiz-adv-x="588" 
 />
    <glyph glyph-name="exclam" unicode="!" horiz-adv-x="834" 
d="M-193 258q58 0 99 -40.5t41 -96.5t-41 -96.5t-99 -40.5q-55 0 -96 41t-41 96t39.5 96t93.5 41h4zM-90 268l-21 11q51 87 96.5 197.5t82.5 232.5l33 112q42 147 63 187q26 49 62 75.5t77 26.5q55 0 95 -38.5t40 -92.5q0 -89 -178 -269l-51 -53q-98 -99 -171 -194.5
t-128 -194.5z" />
    <glyph glyph-name="quotedbl" unicode="&#x22;" horiz-adv-x="694" 
d="M496 856l-74 458q-1 8 -1.5 16.5t-0.5 23.5q0 51 25.5 79.5t70.5 28.5t70.5 -28t25.5 -78q0 -13 -3 -36q-1 -4 -1 -5l-73 -459h-39zM160 856l-74 459q-1 7 -1.5 15.5t-0.5 23.5q0 52 24.5 80t69.5 28q47 0 71.5 -27.5t24.5 -80.5q0 -16 -0.5 -24.5t-1.5 -15.5l-73 -458
h-39z" />
    <glyph glyph-name="numbersign" unicode="#" horiz-adv-x="1575" 
d="M977 858h-275l-94 -264h275zM920 1460l-156 -436h268l156 436h182l-156 -436h291l-59 -166h-291l-92 -262h307l-59 -168h-307l-154 -434h-184l155 434h-268l-154 -434h-184l156 434h-301l59 168h301l92 262h-319l61 166h318l155 436h183z" />
    <glyph glyph-name="dollar" unicode="$" horiz-adv-x="1176" 
d="M211 451l-223 -426q23 -12 43.5 -17.5t40.5 -5.5q93 0 169 76t76 166q0 56 -23.5 102.5t-82.5 104.5zM512 1042q-18 6 -33.5 8.5t-29.5 2.5q-75 0 -136 -68.5t-61 -157.5q0 -40 15 -76.5t46 -72.5zM606 1217l21 -9l-78 -143q118 -18 182 -73t64 -138q0 -74 -51 -121
t-132 -47q-25 0 -46.5 5t-41.5 16q39 32 57.5 72t18.5 91q0 56 -18 97.5t-52 62.5l-200 -366q135 -140 172 -209t37 -146q0 -136 -133.5 -231.5t-333.5 -95.5q-28 0 -52.5 2t-46.5 6l-67 -129l-27 12l66 121q-122 25 -195.5 94t-73.5 156q0 100 61 164.5t154 64.5
q48 0 82.5 -16.5t57.5 -48.5q-75 -21 -110.5 -68.5t-35.5 -126.5q0 -50 21 -96t59 -80l230 430q-93 96 -124.5 155t-31.5 123q0 147 117.5 238.5t306.5 91.5q16 0 47 -4q12 -1 18 -2z" />
    <glyph glyph-name="percent" unicode="%" horiz-adv-x="1858" 
d="M330 936q0 40 -16.5 61t-47.5 21q-33 0 -79.5 -35.5t-94.5 -97.5q-68 -89 -111.5 -192.5t-43.5 -168.5q0 -34 18 -54.5t47 -20.5q31 0 72.5 27.5t79.5 74.5q74 92 125 208t51 177zM928 944l-862 -1067l-17 12l717 994q-42 -30 -82 -45t-78 -15q-36 0 -70 12t-65 35
q5 -22 6.5 -34t1.5 -23q0 -61 -38.5 -132t-104.5 -132q-63 -58 -144 -89.5t-167 -31.5q-111 0 -172.5 55.5t-61.5 155.5q0 74 37 147t104 132q64 56 147.5 89t160.5 33q70 0 128.5 -29t94.5 -81q39 -56 69.5 -75t73.5 -19q48 0 97 24t88 68q24 27 60 80q56 82 93 82
q20 0 32.5 -13t12.5 -33q0 -14 -12.5 -35t-48.5 -65zM1055 592q109 0 175 -60.5t66 -158.5q0 -78 -45.5 -157t-126.5 -140q-60 -47 -133 -71.5t-149 -24.5q-110 0 -171 56t-61 157q0 75 36.5 147.5t103.5 130.5q62 56 145 88.5t160 32.5zM1147 487q0 40 -16.5 61t-47.5 21
q-33 0 -80 -35t-94 -96q-66 -86 -109.5 -190t-43.5 -164q0 -40 16.5 -61t46.5 -21q32 0 73.5 27t78.5 73q74 93 125 209t51 176z" />
    <glyph glyph-name="ampersand" unicode="&#x26;" horiz-adv-x="1858" 
d="M102 612q-77 -28 -127.5 -109.5t-50.5 -180.5q0 -119 67.5 -197t168.5 -78q48 0 86.5 10.5t68.5 32.5q-103 72 -160 190t-57 261q0 15 1 33t1 20q0 3 1 9t1 9zM287 672q12 -141 61.5 -259t128.5 -194q33 27 106 128l70 95q90 116 163 165.5t149 49.5q66 0 110.5 -40
t44.5 -99q0 -46 -34.5 -80.5t-81.5 -34.5q-41 0 -70 28.5t-29 68.5q0 22 9 42t26 38q-13 8 -27 12t-28 4q-85 0 -283 -248l-113 -139q71 -78 175.5 -123t216.5 -45q159 0 278.5 82.5t165.5 224.5l12 -2q-44 -164 -215 -270.5t-395 -106.5q-116 0 -217 28.5t-180 82.5
q-90 -59 -170 -88t-154 -29q-127 0 -207 77.5t-80 199.5q0 127 96.5 224t290.5 167q38 201 175 337t292 136q60 0 99 -37t39 -92q0 -97 -96.5 -166.5t-327.5 -136.5zM289 686q108 25 174.5 104.5t66.5 180.5q0 43 -18.5 68.5t-50.5 25.5q-60 0 -115.5 -112.5t-56.5 -266.5z
" />
    <glyph glyph-name="quotesingle" unicode="'" horiz-adv-x="358" 
d="M160 856l-74 459q-1 7 -1.5 15.5t-0.5 23.5q0 52 24.5 80t69.5 28q47 0 71.5 -27.5t24.5 -80.5q0 -16 -0.5 -24.5t-1.5 -15.5l-73 -458h-39z" />
    <glyph glyph-name="parenleft" unicode="(" horiz-adv-x="797" 
d="M926 1419l2 -14q-235 -129 -436 -324t-349 -438q-181 -297 -275.5 -611t-94.5 -618v-8q2 -25 2 -47h-15q-27 104 -40 209t-13 215q0 555 305.5 965t913.5 671z" />
    <glyph glyph-name="parenright" unicode=")" horiz-adv-x="797" 
d="M158 1419h12q27 -109 40 -213.5t13 -212.5q0 -555 -304.5 -965t-911.5 -671l-4 14q235 129 436 324.5t348 437.5q182 301 277.5 615t95.5 614q0 2 -1 9q-1 25 -1 48z" />
    <glyph glyph-name="asterisk" unicode="*" 
d="M510 1147l-252 84q-23 8 -36 25.5t-13 39.5q0 34 24.5 63.5t51.5 29.5q14 0 27.5 -7t25.5 -20l180 -203zM512 1116l-157 -212q-12 -15 -28 -23.5t-32 -8.5q-29 0 -56.5 30t-27.5 61q0 17 12 31.5t33 23.5l248 108zM545 1110l154 -216q5 -8 8.5 -20t3.5 -24q0 -32 -27 -54
t-66 -22q-26 0 -42 16.5t-19 45.5l-27 268zM559 1139l255 80q9 2 14.5 3t9.5 1q30 0 49.5 -24t19.5 -62q0 -35 -16.5 -54.5t-44.5 -19.5q-9 0 -13 0.5t-8 1.5l-264 57zM537 1159l2 264q0 31 20 51.5t51 20.5q39 0 63.5 -19t24.5 -49q0 -12 -2.5 -21.5t-7.5 -17.5l-135 -231z
" />
    <glyph glyph-name="plus" unicode="+" horiz-adv-x="1706" 
d="M938 1221v-527h514v-166h-514v-528h-170v528h-514v166h514v527h170z" />
    <glyph glyph-name="comma" unicode="," horiz-adv-x="588" 
d="M-651 -293l4 17q174 6 280.5 86t126.5 221q-15 -18 -32.5 -26.5t-40.5 -8.5q-45 0 -73 31.5t-28 83.5q0 65 41 106t107 41t109.5 -50.5t43.5 -127.5q0 -151 -152 -259t-386 -114z" />
    <glyph glyph-name="hyphen" unicode="-" horiz-adv-x="967" 
d="M-148 499l156.5 -3.5t126.5 -1.5q43 0 174 2q53 1 82 2l-100 -166q-25 0 -73 1q-160 3 -216 3q-82 0 -139 -0.5t-114 -1.5z" />
    <glyph glyph-name="period" unicode="." horiz-adv-x="588" 
d="M-268 281q62 0 105.5 -44t43.5 -106q0 -61 -44 -104t-105 -43t-104.5 43.5t-43.5 103.5t44 105t104 45z" />
    <glyph glyph-name="slash" unicode="/" horiz-adv-x="569" 
d="M301 1417h109l-316.5 -769l-333.5 -843h-106z" />
    <glyph glyph-name="zero" unicode="0" horiz-adv-x="1176" 
d="M492 762q0 129 -47.5 201.5t-129.5 72.5q-56 0 -116.5 -42.5t-122.5 -125.5q-89 -120 -139 -267t-50 -290q0 -128 52 -205t137 -77q57 0 122 50.5t128 143.5q79 117 122.5 258t43.5 281zM430 1077q150 0 236 -82.5t86 -226.5q0 -149 -86 -310t-228 -274
q-110 -88 -248.5 -143t-244.5 -55q-140 0 -223.5 92.5t-83.5 249.5q0 151 83.5 299.5t237.5 267.5q106 82 237 132t234 50z" />
    <glyph glyph-name="one" unicode="1" horiz-adv-x="1176" 
d="M694 1075l17 -18l-598 -1039l-293 -26l475 817q-110 -56 -217.5 -98t-214.5 -70l-8 33q248 63 459.5 164.5t379.5 236.5z" />
    <glyph glyph-name="two" unicode="2" horiz-adv-x="1176" 
d="M-199 219l7 -12q32 11 60.5 16.5t53.5 5.5q84 0 213.5 -30.5t181.5 -30.5q109 0 179.5 60t115.5 192l17 -2q-75 -201 -205.5 -315.5t-280.5 -114.5q-47 0 -108 15.5t-180 62.5q-66 25 -108.5 36t-76.5 11q-11 0 -23 -3t-34 -12q-24 -81 -41.5 -101t-48.5 -20
q-20 1 -28.5 6.5t-8.5 16.5q0 31 120 114.5t322 192.5l116 60q147 75 194 108q92 66 139 145.5t47 170.5q0 101 -61 168t-152 67q-81 0 -138 -57.5t-57 -137.5q0 -61 40.5 -105t95.5 -44q32 0 54.5 18.5t29.5 49.5l10 -3q-5 -87 -65 -146.5t-144 -59.5q-78 0 -128 50
t-50 128q0 63 39 126.5t112 117.5q71 52 151 78t171 26q161 0 259.5 -78.5t98.5 -204.5q0 -130 -104 -222t-337 -165l-66 -20q-251 -75 -382 -158z" />
    <glyph glyph-name="three" unicode="3" horiz-adv-x="1176" 
d="M270 559l-6 -18q144 -5 220.5 -60t76.5 -153q0 -146 -163.5 -248.5t-409.5 -102.5q-199 0 -320 79t-121 204q0 87 62 149t147 62q71 0 126.5 -41.5t78.5 -112.5l-12 -3q-5 18 -22.5 29t-43.5 11q-55 0 -94 -45t-39 -112q0 -85 62 -143t155 -58q129 0 228.5 104t99.5 238
q0 95 -52.5 144.5t-152.5 49.5q-35 0 -68.5 -3.5t-64.5 -10.5l10 33h49q251 0 377.5 75.5t126.5 225.5q0 83 -46.5 136.5t-117.5 53.5q-66 0 -108.5 -44t-42.5 -113q0 -51 26.5 -83t67.5 -32q27 0 44.5 16.5t21.5 44.5l12 -2q0 -75 -56.5 -129.5t-130.5 -54.5
q-66 0 -110.5 44.5t-44.5 111.5q0 109 122 190.5t292 81.5q139 0 223 -61t84 -160q0 -122 -123.5 -196t-362.5 -97z" />
    <glyph glyph-name="four" unicode="4" horiz-adv-x="1176" 
d="M690 1223l-987 -836l498 6l344 598l286 31l-368 -623l221 7l-25 -41l-215 6l-192 -353l-293 -26l227 378q-163 -1 -304.5 -8.5t-268.5 -21.5l868 870z" />
    <glyph glyph-name="five" unicode="5" horiz-adv-x="1176" 
d="M358 1079q69 -55 129.5 -79.5t126.5 -24.5q62 0 110.5 20t82.5 60l10 -11q-64 -116 -162.5 -179.5t-214.5 -63.5q-56 0 -109 14.5t-106 44.5l-252 -295q76 38 152 57t151 19q141 0 223.5 -68.5t82.5 -185.5q0 -94 -61.5 -181.5t-170.5 -148.5q-71 -38 -156.5 -59
t-175.5 -21q-178 0 -285.5 75.5t-107.5 199.5q0 93 60 153t151 60q77 0 133 -46.5t68 -121.5l-12 -2q-7 25 -26 39t-46 14q-54 0 -92.5 -49.5t-38.5 -120.5q0 -80 53 -131t137 -51q125 0 219.5 116.5t94.5 268.5q0 101 -50.5 158t-138.5 57q-42 0 -87.5 -16t-100.5 -50
l-19 23z" />
    <glyph glyph-name="six" unicode="6" horiz-adv-x="1176" 
d="M410 530q0 105 -40.5 163.5t-111.5 58.5q-43 0 -87 -25t-93 -78q-72 -77 -112 -184t-40 -225q0 -106 47.5 -170t124.5 -64q47 0 93.5 27t80.5 76q63 84 100.5 200t37.5 221zM1018 942q19 63 27 103.5t8 72.5q0 106 -61 170t-163 64q-106 0 -242 -76.5t-270 -212.5
q-115 -118 -195.5 -236.5t-127.5 -238.5l12 -2q75 112 178.5 176.5t204.5 64.5q111 0 180.5 -72t69.5 -186q0 -102 -49 -203.5t-141 -191.5q-97 -92 -219.5 -148.5t-221.5 -56.5q-142 0 -225.5 95t-83.5 255q0 216 125 425t352 372q173 123 368 192.5t365 69.5
q153 0 241.5 -64t88.5 -173q0 -84 -63.5 -141.5t-157.5 -57.5z" />
    <glyph glyph-name="seven" unicode="7" horiz-adv-x="1176" 
d="M-53 1069h22q-3 -45 -10.5 -88t-19.5 -86q70 80 142.5 118t154.5 38q70 0 198.5 -48.5t192.5 -48.5q62 0 114.5 28t104.5 87l20 -12l-463 -639.5l-432 -640.5q-82 0 -168.5 -7.5t-179.5 -23.5l942 993l84.5 89t71.5 69l-12 12q-75 -57 -147 -85.5t-142 -28.5
q-83 0 -221.5 49t-192.5 49q-17 0 -35 -6t-41 -19q-37 -106 -63 -145t-55 -39q-13 0 -21 10.5t-8 26.5q0 24 34.5 65.5t96.5 92.5q13 46 21 93.5t12 96.5z" />
    <glyph glyph-name="eight" unicode="8" horiz-adv-x="1176" 
d="M512 612l-2 17q81 26 124.5 95t43.5 173q0 139 -62.5 234.5t-152.5 95.5q-73 0 -120.5 -63.5t-47.5 -162.5q0 -46 15 -99t42 -103l31 -53q141 -245 141 -369q0 -87 -38 -162t-111 -131q-69 -52 -161.5 -82.5t-180.5 -30.5q-158 0 -256.5 90t-98.5 232q0 154 120 265.5
t325 143.5q-20 43 -29.5 86t-9.5 89q0 166 119 270t307 104q154 0 253 -88t99 -223q0 -126 -95 -215.5t-255 -112.5zM131 684q-113 -11 -184.5 -97.5t-71.5 -213.5q0 -161 70 -266t174 -105q82 0 135 69.5t53 180.5q0 72 -31.5 156.5t-144.5 275.5z" />
    <glyph glyph-name="nine" unicode="9" horiz-adv-x="1176" 
d="M-799 -21q-5 -30 -7.5 -52.5t-2.5 -41.5q0 -135 88 -221t227 -86q117 0 270.5 94t291.5 254q106 125 185.5 251t133.5 253l-10 6q-78 -107 -177 -167t-196 -60q-113 0 -181.5 74.5t-68.5 197.5q0 109 62 224t172 206q87 74 186 112t203 38q144 0 225.5 -86.5t81.5 -239.5
q0 -190 -100 -396.5t-281 -387.5q-183 -185 -422 -292.5t-463 -107.5q-196 0 -306.5 66t-110.5 182q0 80 55 129.5t145 50.5zM281 1030q-44 0 -94.5 -34t-92.5 -93q-52 -74 -84.5 -183.5t-32.5 -215.5q0 -97 43 -158t109 -61q46 0 99.5 30.5t95.5 81.5q64 80 99.5 179
t35.5 200q0 124 -46 189t-132 65z" />
    <glyph glyph-name="colon" unicode=":" horiz-adv-x="588" 
d="M-268 274q60 0 102.5 -41.5t42.5 -101.5q0 -59 -43 -101t-102 -42q-58 0 -101 43t-43 100t43.5 100t100.5 43zM-18 713q60 0 102.5 -42t42.5 -102q0 -59 -43 -101t-102 -42q-57 0 -99.5 43.5t-42.5 99.5q0 57 42.5 100.5t99.5 43.5z" />
    <glyph glyph-name="semicolon" unicode=";" horiz-adv-x="588" 
d="M-651 -293l4 17q174 6 280.5 86t126.5 221q-15 -18 -32.5 -26.5t-40.5 -8.5q-45 0 -73 31.5t-28 83.5q0 65 41 106t107 41t109.5 -50.5t43.5 -127.5q0 -151 -152 -259t-386 -114zM-18 713q60 0 102.5 -42t42.5 -102q0 -59 -43 -101t-102 -42q-57 0 -99.5 43.5t-42.5 99.5
q0 57 42.5 100.5t99.5 43.5z" />
    <glyph glyph-name="less" unicode="&#x3c;" horiz-adv-x="1706" 
d="M1442 991l-934 -381l934 -381v-182l-1178 483v160l1178 486v-185z" />
    <glyph glyph-name="equal" unicode="=" horiz-adv-x="1706" 
d="M1452 487v-165h-1198v165h1198zM1452 901v-168h-1198v168h1198z" />
    <glyph glyph-name="greater" unicode="&#x3e;" horiz-adv-x="1706" 
d="M1442 690v-160l-1178 -483v182l934 381l-934 381v185z" />
    <glyph glyph-name="question" unicode="?" 
d="M-145 260q56 0 97.5 -41t41.5 -98q0 -56 -41 -96.5t-98 -40.5q-56 0 -97 41t-41 96q0 56 41 97.5t97 41.5zM-29 266l-16 8q46 68 154 139l10 7q166 116 215 189t49 167q0 103 -65.5 175.5t-157.5 72.5q-75 0 -122.5 -51.5t-47.5 -132.5q0 -68 33 -110t86 -42
q45 0 73.5 33.5t28.5 87.5v10h12q1 -8 1.5 -17t0.5 -24q0 -100 -59.5 -167.5t-145.5 -67.5q-72 0 -119.5 52t-47.5 130q0 69 39 135t114 121q65 48 145.5 75t157.5 27q140 0 229 -77.5t89 -198.5q0 -120 -86.5 -203.5t-331.5 -179.5l-13 -5q-170 -65 -225 -153z" />
    <glyph glyph-name="at" unicode="@" horiz-adv-x="2019" 
d="M1305 823l51 170h172l-172 -616l-2 -6q-15 -59 -15 -90q0 -49 22 -76t60 -27q34 0 84 22t92 56q110 88 169 222t59 296q0 279 -191 450t-504 171q-173 0 -328.5 -65t-273.5 -185q-122 -125 -183.5 -286t-61.5 -357q0 -172 59.5 -306.5t179.5 -234.5q106 -88 247 -135
t302 -47q166 0 321 51.5t304 157.5l37 -47q-148 -111 -315 -167.5t-347 -56.5q-188 0 -347 46.5t-275 134.5q-151 113 -230.5 277t-79.5 362q0 203 86 381t250 313q135 111 297.5 168t345.5 57q348 0 557 -188.5t209 -501.5q0 -159 -59 -297.5t-168 -237.5q-62 -54 -129 -82
t-133 -28q-98 0 -152.5 52.5t-60.5 152.5q-64 -105 -137.5 -154t-165.5 -49q-134 0 -212.5 92t-78.5 248q0 112 49 219t141 195q68 65 147.5 99t161.5 34q90 0 145.5 -47.5t72.5 -139.5zM1249 772q0 83 -37.5 132.5t-99.5 49.5q-64 0 -117 -45t-106 -147
q-57 -107 -87 -209.5t-30 -185.5t36.5 -133t94.5 -50q62 0 115.5 41.5t107.5 132.5q56 96 89.5 210t33.5 204z" />
    <glyph glyph-name="A" unicode="A" horiz-adv-x="1933" 
d="M1384 1280q-192 -101 -385 -265t-387 -390h260q90 160 205.5 306t311.5 337zM1720 1434l17 -23q-355 -375 -556.5 -718.5t-201.5 -559.5q0 -58 18 -86.5t56 -28.5q84 0 243 141t312 365l12 -8q-177 -259 -360.5 -406t-325.5 -147q-94 0 -147.5 56.5t-53.5 156.5
q0 88 34.5 201.5t96.5 230.5h-270q-303 -346 -512.5 -490.5t-398.5 -144.5q-127 0 -206 63t-79 161q0 72 40.5 118.5t102.5 46.5q47 0 77 -30.5t30 -79.5q0 -43 -21.5 -69.5t-56.5 -26.5q-2 0 -7 1t-7 1q9 -64 63 -99.5t141 -35.5q75 0 165.5 35t183.5 100q139 99 435 418
l77 83q320 347 567.5 517.5t531.5 257.5z" />
    <glyph glyph-name="B" unicode="B" horiz-adv-x="2048" 
d="M1581 1435v-18h-43q-65 0 -129.5 -19.5t-124.5 -58.5q113 -47 173.5 -124t60.5 -173q0 -138 -118 -225t-335 -108l-10 -23h45q154 0 243 -72.5t89 -197.5q0 -79 -42 -156t-118 -137q-90 -71 -205.5 -110.5t-235.5 -39.5q-106 0 -176.5 52t-70.5 129q0 60 43 103.5
t102 43.5q41 0 72 -14.5t55 -44.5q-46 -38 -71 -79t-25 -79q0 -42 23.5 -64t68.5 -22q49 0 100.5 31t96.5 88q56 71 88 159t32 170q0 109 -55.5 168.5t-157.5 59.5q-13 0 -53 -3q-15 -1 -22 -1l8 18q175 26 284 136.5t109 256.5q0 60 -20.5 109t-59.5 82q-80 -64 -294 -450
l-148 -263q-169 -292 -384 -439t-474 -147q-142 0 -232 63.5t-90 160.5q0 70 39.5 115.5t99.5 45.5q52 0 86.5 -34t34.5 -84q0 -37 -20 -65.5t-55 -41.5q1 -64 42.5 -100.5t114.5 -36.5q143 0 270.5 127t321.5 485q177 329 314 485.5t298 229.5q-59 33 -139 49.5t-180 16.5
q-174 0 -329 -58.5t-283 -171.5q-116 -103 -177 -227t-61 -254q0 -102 56.5 -168t144.5 -66q116 0 204.5 114t88.5 267q0 90 -18 157.5t-56 119.5l14 8q37 -51 57.5 -120.5t20.5 -145.5q0 -115 -38.5 -203.5t-121.5 -163.5q-57 -53 -124.5 -80.5t-139.5 -27.5
q-134 0 -220.5 85.5t-86.5 217.5q0 146 91 285t259 247q159 102 355 153.5t425 51.5q78 0 160.5 -11.5t169.5 -33.5q79 37 161.5 55.5t164.5 18.5q21 0 33 -0.5t24 -2.5z" />
    <glyph glyph-name="C" unicode="C" horiz-adv-x="1479" 
d="M758 1225l10 -8q-37 -37 -55.5 -77t-18.5 -83q0 -66 42.5 -108t109.5 -42q57 0 111.5 31.5t99.5 89.5q39 52 61.5 113.5t22.5 115.5q0 66 -36.5 101t-105.5 35q-106 0 -232.5 -57.5t-246.5 -161.5q-200 -174 -315 -401t-115 -445q0 -152 72 -243t190 -91
q146 0 256.5 131.5t110.5 310.5q0 102 -42 158.5t-118 56.5q-96 0 -165.5 -105t-69.5 -255q0 -13 1 -28t1 -17h-14q-3 20 -4 29.5t-1 15.5q0 180 100.5 304t239.5 124q115 0 186.5 -69t71.5 -179q0 -88 -49.5 -175t-142.5 -161q-106 -85 -231 -131.5t-244 -46.5
q-193 0 -303.5 110t-110.5 302q0 181 109.5 375.5t304.5 355.5q178 147 385 230t393 83q124 0 195 -58.5t71 -160.5q0 -128 -114.5 -227t-264.5 -99q-101 0 -163 52t-62 135q0 49 20.5 93t59.5 77z" />
    <glyph glyph-name="D" unicode="D" horiz-adv-x="2048" 
d="M1262 1214q-91 -126 -212.5 -375t-187.5 -343q-123 -178 -288.5 -294.5t-378.5 -174.5q66 -15 134.5 -22t141.5 -7q174 0 316 57.5t257 173.5q135 136 212 329t77 392q0 84 -17.5 148.5t-53.5 115.5zM1698 1456q-26 -8 -73 -21q-237 -68 -329 -175q125 -107 192.5 -244
t67.5 -281q0 -180 -101 -344.5t-275 -265.5q-123 -71 -299.5 -107t-397.5 -36q-81 0 -238 14q-77 7 -115 10q-70 -13 -127 -19.5t-103 -6.5q-95 0 -145 18.5t-50 52.5q0 19 20.5 30t57.5 11q51 0 144.5 -14.5t234.5 -44.5q115 25 223.5 141.5t237.5 355.5l55 108
q138 276 258 425q62 75 124.5 131.5t131.5 99.5q-77 53 -178 82t-211 29q-148 0 -290.5 -63t-250.5 -175q-97 -102 -152 -229t-55 -252q0 -118 54 -186t147 -68q126 0 225 126t99 294q0 64 -16 131.5t-48 138.5l12 4q34 -76 50 -143t16 -131q0 -88 -29 -169t-84 -148
q-63 -79 -146 -122.5t-167 -43.5q-141 0 -235.5 95.5t-94.5 235.5q0 139 70 273t194 233q129 104 302 160.5t360 56.5q134 0 247.5 -28.5t209.5 -85.5q103 66 224.5 103.5t252.5 43.5z" />
    <glyph glyph-name="E" unicode="E" horiz-adv-x="1442" 
d="M485 936l5 14q25 -11 53.5 -16.5t60.5 -5.5q99 0 159 72t60 190q0 94 -46 150.5t-124 56.5q-58 0 -110.5 -43.5t-81.5 -116.5q-21 -54 -37 -172.5t-41 -171.5q-30 -65 -163 -139q-56 -31 -85 -49q-82 -54 -131 -146.5t-49 -196.5q0 -157 100.5 -260.5t253.5 -103.5
q148 0 251.5 105.5t103.5 252.5q0 99 -51.5 158t-135.5 59q-79 0 -153.5 -59t-128.5 -166l-15 6q71 140 190 219.5t253 79.5q109 0 176 -61.5t67 -161.5q0 -94 -57.5 -177t-173.5 -157q-108 -68 -233 -102.5t-261 -34.5q-207 0 -329.5 89.5t-122.5 236.5q0 107 68.5 190
t232.5 168q7 4 21 10q93 46 110 119q6 25 19 112.5t30 145.5q16 57 42.5 108t61.5 93q71 84 195 137t248 53q137 0 219 -62.5t82 -166.5q0 -121 -110.5 -202t-274.5 -81q-39 0 -75 6.5t-73 20.5z" />
    <glyph glyph-name="F" unicode="F" horiz-adv-x="1821" 
d="M1560 1200q-138 -27 -264.5 -155.5t-242.5 -360.5q68 5 112 19t72 38q22 48 54 66t98 18q21 0 66.5 -2.5t68.5 -3.5q-153 -119 -259.5 -239t-179.5 -254h-18q19 72 50.5 158t78.5 190l-154 -12q-165 -342 -399 -515.5t-530 -173.5q-171 0 -270 65.5t-99 176.5
q0 68 38 111t99 43q53 0 87 -33.5t34 -85.5q0 -45 -27 -76t-65 -31q11 -70 66 -109.5t143 -39.5q167 0 307 140t333 519l-65 -6.5t-46 -3.5l5 21h6q72 4 111 8q125 220 300.5 343.5t445.5 186.5l-3 4q-129 8 -231 11.5t-192 3.5q-354 0 -585 -33t-376 -103
q-117 -57 -185.5 -141t-68.5 -168q0 -94 87 -158.5t218 -64.5q106 0 214 42t175 110q45 45 69 95.5t24 102.5q0 31 -8.5 64t-24.5 71l12 6q20 -36 29.5 -74.5t9.5 -80.5q0 -67 -24 -132t-68 -118q-75 -88 -179 -136t-221 -48q-155 0 -244 85t-89 232q0 109 69.5 211.5
t200.5 185.5q191 122 484.5 183t682.5 61q93 0 230.5 -5t181.5 -5h84q119 0 171 -23.5t52 -74.5q0 -57 -65 -84t-203 -27q-30 0 -75.5 1.5t-107.5 4.5z" />
    <glyph glyph-name="G" unicode="G" horiz-adv-x="1479" 
d="M545 1161q65 -71 142.5 -106t170.5 -35q147 0 248.5 76.5t101.5 179.5q0 63 -42.5 98t-118.5 35q-113 0 -247.5 -66t-254.5 -182zM604 1581l6 -14q-72 -26 -112.5 -80.5t-40.5 -126.5q0 -25 4 -49.5t12 -48.5q163 84 313.5 124.5t296.5 40.5q143 0 220 -45.5t77 -130.5
q0 -112 -122.5 -191t-307.5 -79q-135 0 -236 40.5t-182 127.5q-115 -112 -178 -244.5t-63 -259.5q0 -95 41.5 -151t109.5 -56q46 0 97.5 21.5t91.5 56.5q33 30 52 94q3 11 5 17q19 52 38.5 79t45.5 39q47 22 111 36t114 14q17 0 28 -7.5t11 -19.5q0 -10 -20 -42
q-13 -20 -21 -34q-15 -26 -50 -103.5t-62 -123.5q-135 -233 -340 -359t-449 -126q-196 0 -316 85.5t-120 219.5q0 81 47.5 137.5t116.5 56.5q53 0 86 -32t33 -85q0 -50 -30.5 -85t-76.5 -40q-8 -19 -11 -32t-3 -23q0 -77 73 -131.5t183 -54.5q170 0 319.5 134.5t251.5 381.5
q-83 -73 -177 -112.5t-183 -39.5q-121 0 -196 78.5t-75 204.5q0 164 116 324.5t326 285.5q-8 26 -13 51.5t-5 49.5q0 82 43 141.5t121 85.5z" />
    <glyph glyph-name="H" unicode="H" horiz-adv-x="2048" 
d="M799 725h250q90 166 199 291t233 203q130 82 270.5 130t245.5 48q104 0 161.5 -33.5t57.5 -93.5q0 -42 -26.5 -72.5t-63.5 -30.5q-38 0 -70.5 26t-56.5 75q-24 48 -50.5 68t-64.5 20q-85 0 -218 -127t-263 -336q-115 -185 -179.5 -365.5t-64.5 -312.5q0 -71 27.5 -113.5
t73.5 -42.5q70 0 173.5 104t301.5 380l12 -8q-212 -306 -353.5 -432t-267.5 -126q-100 0 -156.5 70.5t-56.5 196.5q0 84 29.5 193.5t91.5 258.5h-252q-181 -353 -402 -525.5t-493 -172.5q-160 0 -252 59.5t-92 163.5q0 70 40 114t104 44q47 0 78.5 -32.5t31.5 -80.5
q0 -43 -17.5 -76t-53.5 -59q30 -51 80 -79.5t108 -28.5q67 0 126 41.5t150 162.5q88 118 231 351t208 329q133 197 292 309t377 166h-63q-532 0 -864 -149t-332 -371q0 -79 46.5 -126.5t125.5 -47.5q102 0 180 76.5t78 163.5q0 32 -10 61t-31 60l16 6q24 -39 33.5 -66
t9.5 -53q0 -45 -19.5 -90.5t-57.5 -89.5q-61 -69 -143.5 -107.5t-172.5 -38.5q-114 0 -189 70t-75 176q0 225 321 370.5t885 170.5q81 4 194.5 5t141.5 5l93 15q81 14 96 14q16 0 28.5 -7.5t12.5 -17.5q-1 -32 -105 -34q-12 -1 -18 -1q-60 -2 -104.5 -11.5t-84.5 -29.5
q-98 -46 -197 -164.5t-294 -445.5z" />
    <glyph glyph-name="I" unicode="I" horiz-adv-x="1479" 
d="M1550 1348q-128 -25 -240.5 -128t-228.5 -302l-87 -154q-262 -463 -451 -606q-115 -87 -267.5 -140t-283.5 -53q-203 0 -323 77t-120 204q0 65 39.5 108t98.5 43q54 0 86 -31.5t32 -84.5q0 -39 -21 -68t-54 -37q-1 -5 -1.5 -11.5t-0.5 -14.5q0 -71 69 -118.5t176 -47.5
q96 0 185.5 41.5t173.5 126.5q110 110 269 399q80 146 126 219q150 236 326.5 368.5t441.5 209.5h-33q-603 0 -954.5 -154t-351.5 -412q0 -83 51.5 -137.5t132.5 -54.5q100 0 176 74.5t76 173.5q0 39 -12.5 75t-36.5 68l10 8q27 -32 41 -70t14 -81q0 -127 -112 -222.5
t-267 -95.5q-125 0 -205.5 71t-80.5 179q0 262 353 420t986 174h143q69 0 95 2t43 6q16 4 48 13q99 26 140 26q28 0 43.5 -9.5t15.5 -25.5q0 -20 -21 -32.5t-56 -12.5q-20 0 -62 4t-121 13z" />
    <glyph glyph-name="J" unicode="J" horiz-adv-x="1479" 
d="M268 47q-469 -67 -645 -160t-176 -258q0 -88 54.5 -140t146.5 -52q152 0 302.5 147t317.5 463zM1514 1348q-96 -20 -174.5 -74t-163.5 -160q-146 -180 -591 -984l-9 -17q169 46 322 155t261 262l12 -8q-110 -161 -269.5 -273.5t-342.5 -158.5q-187 -321 -437 -496.5
t-521 -175.5q-173 0 -271 62t-98 170q0 113 80.5 184t259.5 115q103 25 341.5 57.5t362.5 54.5l136 241q337 606 538 785q90 80 210.5 142.5t297.5 118.5h-33q-604 0 -956 -154.5t-352 -411.5q0 -81 53.5 -136.5t132.5 -55.5q100 0 175 74.5t75 173.5q0 39 -12 75t-37 68
l12 8q28 -32 41.5 -70t13.5 -81q0 -127 -112 -222.5t-266 -95.5q-126 0 -206.5 71t-80.5 179q0 262 353 420t986 174h144q68 0 94 2t42 6l51 13q96 26 136 26q28 0 45 -9.5t17 -25.5q0 -20 -22 -32.5t-58 -12.5q-21 0 -61 3.5t-119 13.5z" />
    <glyph glyph-name="K" unicode="K" horiz-adv-x="2048" 
d="M-215 153q0 -3 -1 -12.5t-1 -13.5q0 -56 44.5 -92.5t115.5 -36.5q65 0 132 32.5t132 96.5q103 102 280 424l88 158q132 229 232 339.5t229 188.5q70 43 160.5 78t200.5 63l-2 6h-86q-235 0 -456 -36.5t-386 -102.5q-181 -72 -278 -179.5t-97 -234.5q0 -72 50 -122
t124 -50q100 0 181 81.5t81 185.5q0 30 -9.5 60t-31.5 65l11 8q24 -32 35.5 -66t11.5 -75q0 -124 -119 -225t-272 -101q-119 0 -189.5 67t-70.5 179q0 233 294.5 373.5t862.5 177.5q73 4 221 6.5t205 15.5q67 15 106 22t55 7q22 0 32.5 -8t10.5 -23q0 -14 -17.5 -20.5
t-57.5 -6.5q-13 0 -46.5 2t-54.5 2q-122 0 -246 -98.5t-243 -290.5q-59 -95 -161 -280q-189 -344 -312 -469q-122 -122 -287 -194t-319 -72q-156 0 -247 63t-91 168q0 59 39.5 102t91.5 43q57 0 92 -32t35 -84q0 -35 -20.5 -59.5t-51.5 -29.5zM2007 1098q32 52 48 99.5
t16 90.5q0 51 -19.5 83t-48.5 32t-58.5 -21t-62.5 -65q-24 -32 -86.5 -135t-112.5 -160q-125 -142 -288 -210t-391 -73q119 -50 181 -123t62 -163q0 -56 -46 -176.5t-46 -176.5q0 -22 18.5 -38.5t45.5 -16.5q77 0 220.5 133.5t291.5 351.5l12 -8q-195 -278 -353 -409
t-298 -131q-92 0 -142.5 44.5t-50.5 125.5q0 54 20 117.5t72 168.5q42 84 54 120.5t12 66.5q0 58 -34 83t-116 25v19q9 0 29 -1t31 -1q105 0 194 49.5t195 171.5q19 21 58 71q126 155 222 234q86 70 186.5 107.5t202.5 37.5q101 0 158.5 -38.5t57.5 -106.5q0 -76 -62.5 -124
t-171.5 -54z" />
    <glyph glyph-name="L" unicode="L" horiz-adv-x="1327" 
d="M569 825q-146 -325 -329.5 -502.5t-456.5 -263.5l2 -6q5 0 28.5 1t43.5 1q218 0 328.5 -46t140.5 -148q141 161 547 545l137 129l10 -13l-239 -227q-338 -320 -451 -459q-3 -84 -78.5 -154.5t-149.5 -70.5q-23 0 -37 9t-14 24q0 12 7.5 21.5t35.5 27.5q1 11 1.5 23.5
t0.5 35.5q0 125 -90 206t-231 81q-35 0 -173.5 -31t-240.5 -31q-57 0 -86 14t-29 42q0 25 33 38t96 13q59 0 149.5 -6t213.5 -19q132 38 250.5 192t333.5 607q-133 28 -212 108t-79 185q0 91 65 153t162 62q30 0 55.5 -5t51.5 -15l-7 -15q-34 12 -56 16.5t-42 4.5
q-92 0 -151.5 -57t-59.5 -144q0 -97 75.5 -173t203.5 -104q129 257 350.5 407.5t464.5 150.5q135 0 212 -57t77 -156q0 -87 -65.5 -164.5t-188.5 -134.5q-103 -48 -231 -74.5t-257 -26.5q-31 0 -60.5 1.5t-60.5 4.5zM576 842q22 -4 46 -5t72 -1q224 0 378.5 127.5
t154.5 304.5q0 67 -34 106t-91 39q-106 0 -249.5 -154t-276.5 -417z" />
    <glyph glyph-name="M" unicode="M" horiz-adv-x="2048" 
d="M1313 1432l10 -25q-121 -64 -209 -177.5t-174 -324.5l-50 -127q-169 -440 -362 -633l13 -14q194 157 477 539l139 184q231 293 454.5 431t467.5 138q44 0 67 -10t23 -31q0 -12 -16 -22t-35 -10q-34 0 -92 12t-80 12q-80 0 -176.5 -127t-194.5 -362l-34 -83
q-142 -348 -259 -495q-83 -104 -184.5 -176.5t-220.5 -112.5h41q277 0 474 124.5t334 387.5l15 -8q-139 -268 -341.5 -395t-490.5 -127q-28 0 -42.5 0.5t-26.5 1.5q-37 -12 -72.5 -18.5t-69.5 -6.5q-27 0 -44 11.5t-17 27.5q0 14 12 23.5t29 9.5q43 0 100 -12t68 -12
q55 0 116 93.5t173 364.5q96 234 161 346.5t144 202.5q88 102 190.5 182t218.5 138l-4 14q-155 -36 -311 -151t-311 -308q-60 -74 -174 -226q-242 -323 -383 -462q-90 -88 -171.5 -147.5t-164.5 -98.5l-21 19q81 108 158 346.5t115 327.5q108 252 255.5 416.5t354.5 267.5
l-8 18q-168 -66 -314 -180.5t-292 -296.5q-71 -87 -223.5 -307t-250.5 -330q-125 -141 -241.5 -210t-229.5 -69q-127 0 -209.5 64.5t-82.5 163.5q0 68 38.5 112.5t96.5 44.5q51 0 86 -33t35 -81q0 -36 -22 -63t-64 -42q-1 -4 -2.5 -12.5t-2.5 -11.5q0 -41 47.5 -67.5
t122.5 -26.5q93 0 182.5 48t192.5 154q109 112 309 397l97 136q209 292 407.5 446.5t448.5 227.5z" />
    <glyph glyph-name="N" unicode="N" horiz-adv-x="1858" 
d="M911 1419l-57 -129q-5 -40 -6.5 -60.5t-1.5 -39.5q0 -110 76 -349q25 -78 36 -118q32 -111 45 -192t13 -156v-15q217 504 437.5 773.5t414.5 269.5q80 0 130 -50.5t50 -131.5q0 -97 -74 -168t-202 -95v15q60 12 93 50.5t33 96.5q0 67 -42 105.5t-115 38.5
q-188 0 -413 -338.5t-462 -976.5h-28q5 30 7.5 61t2.5 66q0 84 -16 180.5t-46 185.5l-24 72q-117 346 -135 500q-246 -542 -466 -785t-460 -243q-119 0 -195.5 62.5t-76.5 158.5q0 66 39 113t92 47q49 0 81.5 -33.5t32.5 -83.5q0 -48 -26.5 -78.5t-69.5 -30.5h-6
q9 -52 56.5 -83t119.5 -31q218 0 422 236t453 784q0 7 -1 20t-1 20q0 158 66 245t185 87h39z" />
    <glyph glyph-name="O" unicode="O" horiz-adv-x="1669" 
d="M913 422q22 -7 46 -9.5t57 -2.5q90 0 171.5 33.5t168.5 105.5l6 -14q-87 -75 -171 -109.5t-177 -34.5q-29 0 -58.5 3.5t-60.5 10.5q-163 -205 -357 -320.5t-372 -115.5q-168 0 -266.5 108.5t-98.5 295.5q0 197 115.5 397t319.5 356q108 84 224 134t236 65q52 49 107 73.5
t112 24.5q110 0 181 -95.5t71 -246.5q0 -143 -67 -319t-187 -340zM805 471q79 180 117.5 332.5t38.5 290.5t-37 208t-109 70q-22 0 -44 -11t-48 -36q73 0 115.5 -45t42.5 -123q0 -41 -11.5 -80.5t-35.5 -83.5l-13 4q23 44 34 82t11 70q0 77 -37.5 119.5t-105.5 42.5h-12
q-48 -71 -72.5 -167.5t-24.5 -215.5q0 -170 45.5 -278.5t145.5 -178.5zM684 1311q-99 -28 -192.5 -98t-180.5 -181q-107 -137 -173 -321.5t-66 -343.5q0 -154 71 -247t187 -93q112 0 244.5 118.5t222.5 307.5q-136 65 -207.5 177t-71.5 259q0 104 42 210.5t124 211.5z" />
    <glyph glyph-name="P" unicode="P" horiz-adv-x="1933" 
d="M1665 1460l2 -12q-88 -19 -127 -32t-67 -30q123 -52 193.5 -148.5t70.5 -211.5q0 -156 -126 -263.5t-315 -107.5q-104 0 -163.5 35.5t-59.5 95.5q0 41 29 68t74 27q25 0 44.5 -8t34.5 -25q-26 -19 -41.5 -48.5t-15.5 -60.5q0 -29 15.5 -47t39.5 -18q32 0 72 29.5t76 80.5
q47 67 73.5 149.5t26.5 160.5q0 92 -24.5 150.5t-75.5 86.5q-51 -41 -100 -96t-101 -129q-69 -99 -187 -311t-186 -312q-116 -172 -265 -279.5t-355 -166.5q96 -14 184 -20.5t170 -6.5q387 0 635.5 122.5t419.5 395.5l14 -6q-191 -294 -401.5 -421.5t-507.5 -127.5
q-96 0 -227 13t-318 41q-95 -28 -169.5 -41t-139.5 -13q-101 0 -166.5 28.5t-65.5 68.5q0 17 20 28t54 11q33 0 92.5 -7.5t136.5 -21.5l107 -19q104 -18 115 -18q16 0 48 16t73 45q70 51 133 130.5t153 236.5q24 41 70 126q194 357 352 523q87 92 172.5 153.5t175.5 96.5
q-51 26 -120 38.5t-156 12.5q-167 0 -327.5 -53t-291.5 -151q-142 -108 -228.5 -254t-86.5 -275q0 -102 51.5 -162.5t136.5 -60.5q114 0 193.5 105t79.5 261q0 58 -6 102.5t-19 84.5l15 4q13 -39 19.5 -85t6.5 -101q0 -97 -27 -173.5t-83 -144.5q-61 -72 -142 -112.5
t-164 -40.5q-122 0 -200 79.5t-78 204.5q0 172 127.5 335.5t357.5 285.5q159 84 334.5 127t366.5 43q79 0 156.5 -9.5t154.5 -27.5q62 25 127.5 39.5t130.5 17.5z" />
    <glyph glyph-name="Q" unicode="Q" horiz-adv-x="1593" 
d="M-9 70l-14 8q-177 104 -260 104q-53 0 -86.5 -25t-33.5 -63q0 -34 38.5 -57t100.5 -23q42 0 98.5 12t156.5 44zM223 150q110 -22 201.5 -33t167.5 -11q212 0 373.5 100t310.5 324l10 -8q-196 -287 -422 -444.5t-440 -157.5q-98 0 -198.5 34t-217.5 107
q-111 -39 -211.5 -58t-193.5 -19q-78 0 -115 19t-37 58q0 57 101 98.5t251 41.5q73 0 164.5 -10.5t225.5 -34.5q348 145 549.5 377t201.5 483q0 156 -81 253t-212 97q-149 0 -256.5 -122t-107.5 -286q0 -126 68.5 -207t172.5 -81q92 0 171 70.5t110 183.5l12 -4
q-31 -139 -160 -234.5t-280 -95.5q-123 0 -202 76t-79 194q0 114 70 221.5t201 194.5q97 65 201 98t212 33q186 0 303 -102t117 -261q0 -234 -245.5 -458t-735.5 -436z" />
    <glyph glyph-name="R" unicode="R" horiz-adv-x="2048" 
d="M1593 1436v-15h-34q-67 0 -117.5 -13t-89.5 -40q113 -44 174 -122.5t61 -178.5q0 -154 -140.5 -250t-371.5 -96h-43l-4 -21q118 -60 167.5 -120t49.5 -140q0 -66 -44 -178t-44 -156q0 -29 15.5 -46t41.5 -17q86 0 225 129.5t290 353.5l12 -8q-173 -263 -339.5 -403
t-307.5 -140q-93 0 -147 48.5t-54 130.5q0 47 15 97.5t61 139.5l1 2q72 142 72 201q0 54 -33.5 85.5t-93.5 31.5h-14l13 24l36.5 -3t20.5 -1q149 0 259.5 111t110.5 264q0 59 -22.5 106t-69.5 84q-81 -71 -164.5 -192t-251.5 -433l-1 -2q-196 -360 -371 -497
q-124 -96 -265.5 -146.5t-287.5 -50.5q-137 0 -227.5 64t-90.5 160q0 66 40 110.5t100 44.5q51 0 87 -33t36 -81q0 -38 -19.5 -63.5t-54.5 -35.5v-24q0 -59 38.5 -89t114.5 -30q134 0 258 114t273 380l64 117q220 403 388 567q54 50 116 93t134 79q-58 29 -129 44t-149 15
q-192 0 -368.5 -65t-303.5 -183q-103 -95 -156 -201.5t-53 -218.5q0 -101 49 -156t140 -55q140 0 238.5 132t98.5 337q0 31 -3 59t-9 54l12 4q8 -29 11.5 -58t3.5 -59q0 -109 -25 -194.5t-78 -155.5q-70 -93 -166 -142.5t-204 -49.5q-130 0 -211.5 77t-81.5 201
q0 147 107 286.5t298 240.5q156 83 340 125t389 42q98 0 185.5 -8t165.5 -24q65 22 128.5 33.5t127.5 11.5q18 0 65 -4h6z" />
    <glyph glyph-name="S" unicode="S" horiz-adv-x="1442" 
d="M1079 1012q48 34 73.5 83.5t25.5 108.5q0 82 -43.5 136.5t-108.5 54.5q-51 0 -95.5 -36t-74.5 -102q-51 -110 -64 -457q-1 -31 -1 -46q-7 -227 -51 -365t-136 -231q-87 -89 -222.5 -142t-277.5 -53q-208 0 -343.5 101.5t-135.5 257.5q0 98 48.5 159.5t125.5 61.5
q51 0 84 -34t33 -87q0 -56 -27.5 -88.5t-76.5 -34.5q-9 -22 -13 -41t-4 -37q0 -101 81.5 -168t209.5 -67q113 0 206 56t148 157q75 137 97 510q2 40 4 62q11 203 46 303t107 179q74 80 176 121t228 41q138 0 219.5 -58t81.5 -155q0 -84 -66 -141t-164 -57q-25 0 -47 2t-43 6
z" />
    <glyph glyph-name="T" unicode="T" horiz-adv-x="1821" 
d="M1661 1200q-143 -31 -263.5 -153.5t-264.5 -395.5q-122 -229 -213 -339t-205 -185q-112 -74 -243 -114t-261 -40q-171 0 -270 65.5t-99 176.5q0 66 38.5 110t94.5 44t90.5 -33t34.5 -86q0 -44 -26 -75.5t-64 -31.5q12 -71 66 -110t141 -39q162 0 299 131t303 450
q93 179 169.5 274t174.5 165q85 60 194.5 106t256.5 82l-2 4q-130 8 -232 11.5t-192 3.5q-354 0 -584.5 -33t-376.5 -103q-117 -57 -185.5 -141t-68.5 -168q0 -94 87 -158.5t219 -64.5q105 0 213 42t176 110q45 45 68.5 95.5t23.5 102.5q0 31 -8 64t-25 71l14 6
q19 -34 28 -72.5t9 -82.5q0 -67 -24 -132t-68 -118q-74 -88 -178.5 -136t-220.5 -48q-155 0 -244.5 85t-89.5 232q0 109 70 211t202 186q191 122 484 183t682 61q93 0 230 -5t181 -5h84q119 0 171 -23.5t52 -74.5q0 -57 -64.5 -84t-203.5 -27q-29 0 -73.5 1.5t-106.5 4.5z
" />
    <glyph glyph-name="U" unicode="U" horiz-adv-x="1933" 
d="M1354 1350h278q-402 -612 -558 -887.5t-156 -364.5q0 -42 21.5 -66t59.5 -24q100 0 275 143.5t338 372.5l10 -10q-181 -257 -374.5 -404t-348.5 -147q-97 0 -151 50t-54 141q0 39 15 87.5t45 106.5l-9 6q-159 -181 -315 -279t-285 -98q-79 0 -125.5 46.5t-46.5 126.5
q0 142 233 489l77 115q138 211 192.5 320.5t54.5 172.5q0 64 -39.5 100.5t-109.5 36.5q-67 0 -139 -35.5t-138 -101.5q-68 -70 -105.5 -157.5t-37.5 -176.5q0 -75 33 -120t86 -45q60 0 119 51.5t100 140.5l10 -4q-44 -104 -124 -166.5t-167 -62.5q-76 0 -122 49.5t-46 134.5
q0 92 61 194.5t165 184.5q88 70 192.5 108.5t206.5 38.5q127 0 198.5 -59t71.5 -164q0 -131 -292 -583l-27 -42q-144 -224 -182.5 -308t-38.5 -140q0 -38 21 -61t57 -23q55 0 151 61t203 166q168 166 531 776z" />
    <glyph glyph-name="V" unicode="V" horiz-adv-x="1479" 
d="M723 1409l18 -29q-167 -108 -289 -515q-10 -34 -16 -52q-82 -268 -161 -433t-173 -265l9 -13q483 244 733 520t250 568v6q-21 17 -32 39t-11 49q0 52 35.5 87.5t87.5 35.5q69 0 109 -45.5t40 -124.5q0 -183 -176 -403t-496 -435q-129 -86 -399.5 -237l-384.5 -219l-19 20
q125 114 233 524l40 146q59 206 181 376.5t300 297.5l-10 16q-87 -36 -256.5 -91t-247.5 -89q-142 -62 -215.5 -142t-73.5 -174q0 -63 33.5 -103t85.5 -40q63 0 107.5 52.5t44.5 129.5q0 27 -5 53.5t-16 53.5l10 2q13 -30 19 -57.5t6 -55.5q0 -98 -68.5 -161.5t-175.5 -63.5
q-81 0 -134.5 52t-53.5 130q0 128 112 217t361 158q39 11 117 31q337 89 481 184z" />
    <glyph glyph-name="W" unicode="W" horiz-adv-x="2048" 
d="M535 -47l-33 27q67 87 124 328q6 26 9 38l3 14q64 271 150 471l-6 5q-161 -256 -344 -438.5t-395 -301.5q-59 -60 -110.5 -91.5t-92.5 -31.5q-14 0 -20 5t-6 16q0 17 45 52q21 16 32 26q61 103 124.5 355.5t113.5 373.5q67 166 173 288t288 242l-2 12l-287.5 -90
t-175.5 -55q-176 -67 -269.5 -154t-93.5 -184q0 -69 37 -110t97 -41q57 0 98 44.5t41 106.5q0 20 -3 44.5t-9 56.5l10 2q8 -25 12 -48.5t4 -52.5q0 -91 -69.5 -157t-167.5 -66q-87 0 -142 54.5t-55 140.5q0 131 110 220.5t367 162.5l118 31q301 78 482 161l17 -27
q-163 -107 -308 -535l-8 -24q-87 -258 -166 -419.5t-174 -280.5q205 113 384 295.5t323 425.5l41 72q136 245 270 358q67 57 130 91t95 34q19 0 28 -8t9 -25q0 -30 -49.5 -71t-142.5 -87q-33 -45 -66 -138.5t-74 -254.5q-66 -266 -150 -458t-183 -302q486 257 731.5 538
t245.5 581q0 8 -1 19.5l-2 23.5q-23 13 -35 34t-12 47q0 49 37 83t90 34q59 0 98.5 -50.5t39.5 -127.5q0 -162 -120.5 -349.5t-346.5 -377.5q-251 -210 -680 -453z" />
    <glyph glyph-name="X" unicode="X" horiz-adv-x="2048" 
d="M1163 1016q195 190 383 289.5t352 99.5q93 0 144 -35t51 -98q0 -51 -37 -87t-90 -36q-31 0 -64 15t-65 44q15 20 22 38t7 36q0 37 -26.5 58.5t-72.5 21.5q-92 0 -222.5 -85.5t-250.5 -227.5q-158 -191 -250 -408t-92 -397q0 -107 42.5 -164t121.5 -57q106 0 268.5 139
t329.5 379l12 -9q-193 -277 -382.5 -422t-358.5 -145q-126 0 -195 76t-69 215q0 26 3 54t9 61q-178 -194 -369 -296t-374 -102q-118 0 -188 54t-70 141q0 63 39.5 105t97.5 42q49 0 80 -30t31 -76q0 -36 -18 -60.5t-50 -34.5v-3q0 -47 46.5 -80t113.5 -33q108 0 246 85.5
t268 235.5q74 87 134.5 184t113.5 212q55 121 80.5 215t25.5 176q0 129 -62.5 202.5t-170.5 73.5q-76 0 -150 -35t-133 -98q-67 -73 -105 -174t-38 -205q0 -118 54.5 -190t143.5 -72q104 0 186 102.5t91 254.5h12v-29q0 -33 -14.5 -82t-38.5 -96q-58 -110 -154 -175
t-201 -65q-112 0 -184 77.5t-72 201.5q0 123 74 251.5t199 219.5q92 67 208 107t216 40q176 0 271 -85t95 -243q0 -23 -3 -65q-1 -4 -1 -6z" />
    <glyph glyph-name="Y" unicode="Y" horiz-adv-x="1741" 
d="M1333 1350h285q-237 -347 -543.5 -851.5t-408.5 -635.5q-182 -234 -397.5 -351.5t-461.5 -117.5q-191 0 -303 77.5t-112 209.5q0 112 87.5 178.5t235.5 66.5q46 0 92.5 -9.5t100.5 -29.5l-4 -12q-35 9 -57 12.5t-37 3.5q-80 0 -133.5 -67.5t-53.5 -169.5q0 -108 64 -175
t168 -67q97 0 203.5 65.5t203.5 186.5q111 137 431 626l50 77l-8 6q-147 -184 -312 -290t-298 -106q-80 0 -126 47t-46 130q0 122 226 473l24 37l59 90q248 379 248 508q0 51 -41 87.5t-98 36.5q-70 0 -142 -34t-133 -97q-69 -70 -110 -164.5t-41 -181.5q0 -74 32 -117.5
t86 -43.5q56 0 112 49t99 137h15q-42 -100 -124 -166t-161 -66q-78 0 -124 51t-46 136q0 93 50 184.5t143 169.5q101 86 209 130t219 44q122 0 196 -62t74 -165q0 -131 -273 -549l-59 -90q-119 -186 -165 -280t-46 -148q0 -36 24 -59t62 -23q56 0 153.5 62.5t201.5 166.5
q105 106 274 362t436 718z" />
    <glyph glyph-name="Z" unicode="Z" horiz-adv-x="1479" 
d="M-172 199l10 -17q68 47 138 68.5t149 21.5q111 0 309 -63q5 -2 6 -2q105 -34 155 -44.5t91 -10.5q122 0 241.5 95t233.5 283l13 -6q-170 -268 -355.5 -411.5t-359.5 -143.5q-62 0 -123.5 18t-136.5 58l-42 23q-166 90 -261 90q-60 0 -118 -24.5t-85 -59.5
q-57 -75 -79.5 -95t-39.5 -20q-14 0 -21.5 7t-7.5 20q0 28 94 95q99 70 171 130l337.5 287.5t321.5 269.5q108 86 318 236t300 219l-10 14q-103 -71 -209 -107t-209 -36q-51 0 -108.5 8.5t-118.5 25.5l-90 28q-144 46 -199 46q-94 0 -161.5 -66.5t-67.5 -156.5
q0 -78 56.5 -129t140.5 -51q65 0 128.5 34t108.5 95l10 -6q-44 -72 -118 -116t-148 -44q-86 0 -140 55.5t-54 143.5q0 86 37.5 164.5t107.5 138.5q68 57 150.5 87.5t168.5 30.5q102 0 288 -71q32 -13 48 -19q79 -30 131.5 -41.5t104.5 -11.5q65 0 132 18t114 48
q36 57 69.5 86.5t61.5 29.5q12 0 19 -9.5t7 -25.5q0 -15 -20.5 -33t-85.5 -57q-114 -65 -254 -192l-34 -30l-43 -38q-493 -439 -1072 -837z" />
    <glyph glyph-name="bracketleft" unicode="[" horiz-adv-x="797" 
d="M887 1337l-6 -24h-267l-1085 -1716h260v-25h-467l1116 1765h449z" />
    <glyph glyph-name="backslash" unicode="\" horiz-adv-x="1327" 
d="M299 1417l645 -1612h-106l-334 845l-316 767h111z" />
    <glyph glyph-name="bracketright" unicode="]" horiz-adv-x="797" 
d="M-424 -428h-446l4 25h266l1092 1716h-261v24h467z" />
    <glyph glyph-name="asciicircum" unicode="^" horiz-adv-x="2048" 
d="M1130 1462l502 -565h-104l-506 397l-506 -397h-104l503 565h215z" />
    <glyph glyph-name="underscore" unicode="_" 
d="M1024 -311v-172h-1024v172h1024z" />
    <glyph glyph-name="grave" unicode="`" 
d="M133 1239h204q2 -36 2.5 -69t0.5 -68q0 -63 -3.5 -130.5t-10.5 -139.5l-21 -3q-31 118 -74.5 221t-97.5 189z" />
    <glyph glyph-name="a" unicode="a" horiz-adv-x="1128" 
d="M270 596l56 104l276 17q-182 -288 -264 -439t-82 -198q0 -21 13 -36t30 -15q74 0 194.5 118t313.5 381l10 -8q-203 -289 -341.5 -414.5t-250.5 -125.5q-79 0 -127.5 49t-48.5 129q0 9 0.5 18.5t1.5 20.5q-69 -100 -162 -158.5t-176 -58.5q-86 0 -140 59.5t-54 155.5
q0 105 57.5 210.5t161.5 186.5q83 66 178.5 102.5t181.5 36.5q76 0 119 -33.5t53 -101.5zM141 713q-48 0 -97.5 -36.5t-111.5 -117.5q-72 -96 -116.5 -204t-44.5 -181q0 -49 23 -77.5t63 -28.5q44 0 89.5 34.5t98.5 108.5q80 111 125 216t45 175q0 53 -19 82t-55 29z" />
    <glyph glyph-name="b" unicode="b" horiz-adv-x="1090" 
d="M451 1372l-646 -1065q-38 -65 -62 -131t-24 -102q0 -37 20 -57.5t54 -20.5q115 0 239 147.5t191 379.5q-7 21 -10.5 39t-3.5 32q0 61 35 97t94 36q54 0 89.5 -44.5t35.5 -113.5q0 -21 -2.5 -42.5t-7.5 -49.5q34 -34 65.5 -49.5t65.5 -15.5q48 0 94 28t88 84l12 -8
q-39 -57 -90 -89t-104 -32q-36 0 -70.5 15t-64.5 45q-20 -72 -63.5 -141.5t-106.5 -129.5q-97 -92 -226 -148t-239 -56q-117 0 -194 64t-77 159q0 104 133 328v1l486 818z" />
    <glyph glyph-name="c" unicode="c" horiz-adv-x="870" 
d="M111 444q3 43 4.5 72.5t1.5 42.5q0 76 -12.5 107.5t-41.5 31.5q-26 0 -60 -26t-81 -82q-72 -89 -108.5 -179.5t-36.5 -179.5q0 -88 45 -138t125 -50q119 0 269 120.5t331 360.5l10 -10q-192 -268 -381.5 -403.5t-374.5 -135.5q-125 0 -201.5 65.5t-76.5 172.5
q0 113 67.5 218.5t192.5 184.5q85 55 184.5 85t192.5 30q89 0 138.5 -33t49.5 -92q0 -69 -57.5 -116.5t-145.5 -47.5q-10 0 -18 0.5t-16 1.5z" />
    <glyph glyph-name="d" unicode="d" horiz-adv-x="1128" 
d="M141 713q-48 0 -97.5 -36.5t-111.5 -117.5q-72 -96 -116.5 -204t-44.5 -181q0 -49 23 -77.5t63 -28.5q44 0 89.5 34.5t98.5 108.5q80 111 125 216t45 175q0 53 -19 82t-55 29zM270 596l56 104l379 658l284 22l-387 -663q-6 -11 -78 -125l-133 -219q-69 -122 -102 -193
t-33 -100q0 -21 13 -36t30 -15q74 0 194.5 118t313.5 381l10 -8q-203 -289 -341.5 -414.5t-250.5 -125.5q-79 0 -127.5 49t-48.5 129q0 9 0.5 18.5t1.5 20.5q-69 -100 -162 -158.5t-176 -58.5q-86 0 -140 59.5t-54 155.5q0 105 57.5 210.5t161.5 186.5q83 66 178.5 102.5
t181.5 36.5q76 0 119 -33.5t53 -101.5z" />
    <glyph glyph-name="e" unicode="e" horiz-adv-x="870" 
d="M-217 307q-1 -13 -4 -36q-4 -38 -4 -50q0 -87 43 -135.5t119 -48.5q121 0 278 126t330 363l10 -8q-192 -272 -382.5 -407.5t-381.5 -135.5q-126 0 -197 66t-71 182q0 89 49.5 180.5t138.5 165.5q93 78 211 122t232 44q79 0 125.5 -34t46.5 -93q0 -96 -122 -164.5
t-421 -136.5zM-213 324q156 34 251 128.5t95 209.5q0 23 -12 38t-31 15q-67 0 -161.5 -115t-141.5 -276z" />
    <glyph glyph-name="f" unicode="f" horiz-adv-x="569" 
d="M539 1024q42 46 64 99t22 112q0 48 -26.5 82.5t-61.5 34.5q-92 0 -222 -160t-311 -496h471l-22 -22h-463l-215 -441q-216 -443 -471.5 -648.5t-587.5 -205.5q-175 0 -276 71.5t-101 193.5q0 117 92.5 187.5t249.5 70.5q37 0 66.5 -2.5t56.5 -8.5l-3 -16q-5 1 -12 1.5
t-20 0.5q-86 0 -144.5 -66.5t-58.5 -164.5q0 -108 63 -176t163 -68q149 0 301 154t323 479l336 639h-178l23 22h170q154 320 374.5 498t456.5 178q117 0 186.5 -49.5t69.5 -130.5q0 -78 -63 -135.5t-152 -57.5q-26 0 -51 6.5t-49 18.5z" />
    <glyph glyph-name="g" unicode="g" horiz-adv-x="1124" 
d="M281 606l43 96l274 11l-393 -678q153 59 302 182t294 309l12 -6q-143 -191 -301.5 -320t-321.5 -188q-167 -314 -405 -474.5t-537 -160.5q-179 0 -285 75t-106 200q0 111 95.5 177.5t256.5 66.5q33 0 65 -3.5t64 -9.5l-2 -14q-10 1 -21.5 1.5t-29.5 0.5q-93 0 -148 -60.5
t-55 -162.5q0 -107 65 -177.5t161 -70.5q94 0 189 61.5t200 190.5q6 8 127 183.5t248 336.5l-17 10q-86 -99 -177.5 -150.5t-182.5 -51.5q-81 0 -129.5 56t-48.5 150q0 93 47 189.5t133 179.5q90 87 194 132.5t211 45.5q67 0 109 -30t70 -97zM219 608q0 51 -21 79t-59 28
q-39 0 -84.5 -29t-93.5 -84q-93 -104 -148 -224.5t-55 -215.5q0 -49 22.5 -80t57.5 -31q48 0 110.5 47.5t121.5 130.5q67 93 108 200t41 179z" />
    <glyph glyph-name="h" unicode="h" horiz-adv-x="1100" 
d="M434 1386l-448 -755l-101.5 -163l-111.5 -171l16 -8q167 232 300 344t243 112q72 0 121 -45t49 -112q0 -81 -112 -242l-38 -55q-54 -83 -81 -134.5t-27 -72.5q0 -20 12 -34.5t29 -14.5q71 0 190.5 121t310.5 389l15 -8q-219 -308 -353 -432.5t-241 -124.5
q-75 0 -119.5 48t-44.5 130q0 56 23.5 113t89.5 151q19 28 55 73q72 93 72 134q0 22 -18.5 36.5t-45.5 14.5q-88 0 -253 -188t-312 -476l-275 -14l775 1360z" />
    <glyph glyph-name="i" unicode="i" horiz-adv-x="588" 
d="M45 713l-3 -5q-323 -526 -323 -618q0 -24 15.5 -38.5t40.5 -14.5q68 0 204 135t287 358l10 -8q-174 -262 -329.5 -401t-272.5 -139q-71 0 -112 46t-41 128q0 50 22 117t62 137l166 292zM98 1143q56 0 94.5 -39t38.5 -94t-39.5 -95.5t-93.5 -40.5q-53 0 -94 41t-41 95
t40 93.5t95 39.5z" />
    <glyph glyph-name="j" unicode="j" horiz-adv-x="588" 
d="M39 713l-387 -680q148 49 302 171.5t314 319.5l11 -6q-156 -197 -319 -328t-325 -188q-152 -299 -393.5 -464t-525.5 -165q-189 0 -296.5 70.5t-107.5 191.5q0 119 96.5 189t262.5 70q34 0 63.5 -4t57.5 -13l-4 -16q-5 0 -24.5 3t-29.5 3q-89 0 -140.5 -60.5
t-51.5 -164.5q0 -109 64 -178.5t163 -69.5q140 0 289.5 148.5t325.5 463.5l389 692zM80 1143q55 0 94 -39t39 -94t-39.5 -95.5t-93.5 -40.5t-93.5 41t-39.5 95t39 93.5t94 39.5z" />
    <glyph glyph-name="k" unicode="k" horiz-adv-x="1100" 
d="M436 1389l-364 -613l-175.5 -290.5l-123.5 -192.5l14 -10q175 238 307 345t250 107q75 0 120.5 -36.5t45.5 -96.5q0 -87 -102 -143t-297 -76l-2 -14q91 -26 133.5 -60t42.5 -82q0 -25 -22.5 -76.5t-22.5 -78.5q0 -16 10.5 -27.5t23.5 -11.5q72 0 202 127.5t304 367.5
l13 -10q-213 -299 -357.5 -420t-281.5 -121q-74 0 -122 41.5t-48 104.5q0 53 43 125t43 96q0 10 -0.5 15t-1.5 9q-5 -1 -16 -5q-64 -25 -91 -25q-11 0 -21 7.5t-10 16.5q0 15 17.5 29.5t38.5 14.5q15 0 41.5 -9.5t35.5 -9.5q62 0 123.5 66t61.5 147q0 21 -15 36t-36 15
q-84 0 -245.5 -183t-303.5 -458l-275 -12l779 1368z" />
    <glyph glyph-name="l" unicode="l" horiz-adv-x="588" 
d="M428 1382l-655 -1130q-24 -41 -39 -86t-15 -76q0 -24 15.5 -38.5t40.5 -14.5q67 0 204 135.5t287 357.5l10 -8q-174 -262 -329.5 -401t-272.5 -139q-71 0 -112 46t-41 128q0 49 21.5 115.5t62.5 138.5l538 958z" />
    <glyph glyph-name="m" unicode="m" horiz-adv-x="1616" 
d="M434 446l8 -2q127 160 220 225.5t186 65.5q68 0 113 -44t45 -109q0 -86 -130 -280l-8 -12l-15 -22q-91 -136 -91 -192q0 -17 13 -29t32 -12q66 0 191 129t302 381l17 -8q-217 -306 -353 -431.5t-243 -125.5q-75 0 -119.5 48t-44.5 130q0 56 23.5 113t87.5 147
q20 29 57 78q72 94 72 129q0 22 -14.5 39.5t-32.5 17.5q-89 0 -246.5 -185t-313.5 -481l-272 -18l299 514q26 45 37.5 72.5t11.5 44.5q0 20 -15.5 36.5t-35.5 16.5q-84 0 -249.5 -190t-311.5 -476l-275 -14l404 709l278 10l-282 -408l18 -10q167 227 291 329.5t229 102.5
q74 0 117 -41t43 -110q0 -31 -10.5 -65t-32.5 -73z" />
    <glyph glyph-name="n" unicode="n" horiz-adv-x="1100" 
d="M786 545l15 -8q-219 -308 -353 -432.5t-241 -124.5q-75 0 -119.5 48t-44.5 130q0 56 23.5 113t89.5 151q19 28 55 73q72 93 72 134q0 22 -18.5 37.5t-45.5 15.5q-88 0 -253 -189t-312 -477l-275 -14l404 709l278 10l-282 -408l18 -10q164 225 295.5 333.5t239.5 108.5
q72 0 121 -45t49 -112q0 -81 -112 -242l-38 -55q-54 -83 -81 -134.5t-27 -72.5q0 -20 12 -34.5t29 -14.5q71 0 190.5 121t310.5 389z" />
    <glyph glyph-name="o" unicode="o" horiz-adv-x="1100" 
d="M780 532l13 -6q-53 -66 -101 -95.5t-104 -29.5q-55 0 -96.5 29t-77.5 94q3 -27 4.5 -44t1.5 -25q0 -87 -48 -180.5t-130 -165.5q-75 -66 -182 -100t-238 -34q-129 0 -203 72.5t-74 198.5q0 97 43 186t125 162q85 74 190 115t210 41q110 0 179 -40t114 -128
q53 -105 91.5 -136.5t94.5 -31.5q50 0 95 28t93 90zM231 618q0 54 -21.5 82.5t-62.5 28.5t-97.5 -45t-110.5 -123q-89 -127 -138 -246.5t-49 -208.5q0 -59 20 -85.5t64 -26.5q43 0 94 36t99 101q33 44 63.5 98t61.5 125q39 93 58 158.5t19 105.5z" />
    <glyph glyph-name="p" unicode="p" horiz-adv-x="1100" 
d="M59 170q-102 -7 -162.5 -42t-60.5 -85q0 -15 11.5 -27t25.5 -12q27 0 76 43.5t110 122.5zM287 1108l-312 -481l-69 -101l-105 -151l17 -10q127 187 238.5 278.5t213.5 91.5q85 0 136 -60t51 -161q0 -75 -31 -145.5t-100 -153.5q124 33 240 114t214 206l13 -11
q-106 -133 -231.5 -217t-266.5 -117q-113 -97 -224.5 -146.5t-217.5 -49.5q-48 0 -75.5 18t-27.5 49q0 48 54 73.5t268 53.5q69 103 103 190.5t34 162.5q0 47 -22 74.5t-60 27.5q-66 0 -172 -118.5t-229 -329.5l-476 -813l-264 -5l1022 1713z" />
    <glyph glyph-name="q" unicode="q" horiz-adv-x="1104" 
d="M281 608l38 90l281 17l-393 -666q146 55 289.5 174.5t285.5 306.5l15 -6q-132 -182 -286 -311t-327 -201l-362 -645l-279 -14l293 485l4 7q110 173 230 327l-15 12q-93 -104 -179 -156.5t-165 -52.5q-90 0 -143 57t-53 152q0 103 52.5 207.5t145.5 183.5
q86 73 190.5 115.5t192.5 42.5q72 0 116 -30t69 -95zM137 711q-50 0 -103 -37t-110 -113q-76 -101 -122 -211.5t-46 -187.5q0 -49 24 -78t62 -29q47 0 103.5 43t115.5 123q71 96 113.5 202t42.5 181q0 52 -20.5 79.5t-59.5 27.5z" />
    <glyph glyph-name="r" unicode="r" horiz-adv-x="948" 
d="M469 748q-73 -77 -106 -138t-33 -118q0 -48 24 -76.5t64 -28.5q43 0 99 38t112 105l10 -10q-65 -89 -155 -137.5t-189 -48.5q-95 0 -153 48t-58 126q0 22 5.5 44.5t16.5 49.5q-133 -89 -252.5 -243.5t-201.5 -346.5l-273 -12l388 702l272 9l-119 -187q-21 -34 -143 -215
l-33 -49l12 -8q91 136 185.5 235t181.5 152q32 46 60 64t67 22z" />
    <glyph glyph-name="s" unicode="s" horiz-adv-x="834" 
d="M41 483q15 24 22 50.5t7 58.5q0 57 -26 92t-67 35q-42 0 -69 -33t-27 -84q0 -66 87 -176l18 -23q43 -54 61.5 -97.5t18.5 -86.5q0 -63 -36 -114.5t-98 -75.5l5 -13q145 38 298 173.5t277 336.5l12 -6q-162 -271 -367.5 -414t-432.5 -143q-143 0 -224.5 58.5t-81.5 160.5
q0 62 46 112t102 50q46 0 76 -28.5t30 -71.5q0 -38 -24 -64t-58 -26q-10 0 -34 10q-3 1 -5 2q-6 -17 -9 -32.5t-3 -29.5q0 -50 38 -84t93 -34q71 0 120.5 50.5t49.5 125.5q0 56 -73 155l-17 23q-44 59 -58 94t-14 72q0 98 95 167.5t229 69.5q113 0 181.5 -43t68.5 -112
q0 -49 -42.5 -85t-103.5 -36q-20 0 -59 14q-5 2 -6 2z" />
    <glyph glyph-name="t" unicode="t" horiz-adv-x="698" 
d="M201 983l-176 -287h270l-16 -22h-269l-205 -367q-34 -63 -53.5 -117.5t-19.5 -89.5t17.5 -54t49.5 -19q98 0 257 136.5t321 366.5l14 -6q-179 -261 -356.5 -401.5t-327.5 -140.5q-92 0 -142 47.5t-50 136.5q0 34 20.5 91t58.5 128l156 289h-166l19 22h164l161 271z" />
    <glyph glyph-name="u" unicode="u" horiz-adv-x="1108" 
d="M49 713l-252 -412q-40 -64 -64 -122.5t-24 -86.5q0 -22 13 -37.5t32 -15.5q76 0 189.5 117.5t230.5 322.5l125 219l276 13l-264 -447q-44 -73 -61 -115t-17 -73q0 -21 13 -36t33 -15q68 0 204.5 134.5t296.5 364.5l13 -8q-211 -296 -349 -418.5t-258 -122.5
q-69 0 -114 46.5t-45 119.5q0 22 4.5 44t13.5 46l-8 9q-104 -128 -201.5 -195.5t-179.5 -67.5q-72 0 -113 44t-41 120q0 51 22.5 111t86.5 170l164 280z" />
    <glyph glyph-name="v" unicode="v" horiz-adv-x="1096" 
d="M453 473q26 -30 62 -46.5t71 -16.5q48 0 95 29t93 87l10 -8q-42 -60 -95 -92.5t-109 -32.5q-33 0 -66.5 14t-67.5 42q-24 -87 -80.5 -167t-138.5 -145q-89 -70 -210.5 -115t-219.5 -45q-116 0 -182 61.5t-66 168.5q0 52 19.5 110.5t60.5 131.5l140 245l276 17
q-204 -325 -260.5 -444t-56.5 -189q0 -36 21.5 -59t53.5 -23q114 0 243.5 159.5t176.5 387.5q-8 14 -12 29t-4 32q0 49 35 84t84 35q65 0 101 -43t36 -121q0 -16 -2.5 -36t-7.5 -50z" />
    <glyph glyph-name="w" unicode="w" horiz-adv-x="1593" 
d="M950 471q26 -30 57.5 -45.5t65.5 -15.5q49 0 98 28t93 82l10 -8q-38 -54 -94 -86.5t-111 -32.5q-36 0 -67 13t-60 40q-23 -82 -78.5 -159t-140.5 -144q-99 -78 -220 -125t-222 -47q-107 0 -171.5 53t-64.5 138q0 18 4 39.5t12 48.5h-6q-89 -131 -184 -199.5t-186 -68.5
q-74 0 -121 48t-47 124q0 84 107 275q12 22 18 32l131 233l278 17q-224 -355 -282 -466t-58 -161q0 -27 15 -43t41 -16q67 0 168.5 103t197.5 275l166 297l272 7l-31 -51q-313 -492 -313 -595q0 -31 20 -50t52 -19q108 0 237 155.5t181 374.5q-7 17 -10.5 34.5t-4.5 37.5
q0 55 32.5 91t80.5 36q65 0 106.5 -45t41.5 -117q0 -21 -3.5 -43t-9.5 -45z" />
    <glyph glyph-name="x" unicode="x" horiz-adv-x="1139" 
d="M152 531q109 91 203.5 138.5t166.5 47.5q71 0 112.5 -34.5t41.5 -92.5q0 -60 -43 -100.5t-107 -40.5q-16 0 -34 4.5t-37 13.5q25 48 38 88t13 72q0 27 -14 44t-35 17q-30 0 -74 -30t-96 -87q-87 -94 -134 -195.5t-47 -195.5q0 -60 38.5 -98.5t99.5 -38.5q108 0 252.5 123
t314.5 360l12 -8q-182 -267 -360.5 -405t-341.5 -138q-101 0 -158 48.5t-57 132.5q0 11 0.5 17t1.5 11q-83 -96 -195.5 -150t-228.5 -54q-93 0 -149 46.5t-56 123.5q0 68 39.5 112.5t99.5 44.5q43 0 72 -26.5t29 -65.5q0 -36 -21.5 -60t-54.5 -24q-9 0 -18.5 1.5t-20.5 4.5
q-6 -13 -9 -24t-3 -23q0 -42 30.5 -68t81.5 -26q66 0 141 46.5t142 129.5q76 93 120 194t44 179q0 50 -22.5 76t-65.5 26t-89 -35t-96 -106l-10 8q67 104 141 155.5t156 51.5q86 0 134.5 -49.5t52.5 -140.5z" />
    <glyph glyph-name="y" unicode="y" horiz-adv-x="1096" 
d="M567 713l-395 -678q153 59 302 182t294 309l12 -6q-144 -192 -301 -321t-319 -187q-168 -314 -406.5 -474.5t-537.5 -160.5q-180 0 -286 75t-106 200q0 111 95.5 177.5t257.5 66.5q32 0 64 -3.5t65 -9.5l-3 -14q-10 1 -21.5 1.5t-29.5 0.5q-92 0 -146 -60t-54 -163
q0 -107 64.5 -177.5t160.5 -70.5q94 0 190.5 62t198.5 190q46 57 187.5 274l220.5 334l-15 10q-106 -141 -210.5 -217t-192.5 -76q-72 0 -113 44t-41 120q0 51 22.5 111t86.5 170l162 280l276 11l-252 -412q-40 -64 -64 -122.5t-24 -86.5q0 -22 13 -37.5t32 -15.5
q77 0 192.5 120.5t223.5 319.5l121 223z" />
    <glyph glyph-name="z" unicode="z" horiz-adv-x="922" 
d="M-244 217l4 -8q6 0 33 1t49 1q50 0 148 -30.5t149 -30.5q107 0 204.5 77t254.5 303l12 -6q-171 -255 -347.5 -402t-309.5 -147q-38 0 -78 12.5t-88 39.5q-14 7 -40 22q-86 49 -122 49q-26 0 -48.5 -14t-45.5 -45l-8 -11q-37 -51 -68 -51q-14 0 -21 7t-7 20q0 25 94 78.5
t157 99.5q17 12 58 49q208 182 430 283l-4 10q-36 -12 -74 -18t-80 -6q-58 0 -134.5 18.5t-100.5 18.5q-33 0 -58.5 -11t-46.5 -32l-12 12q79 121 145 169t148 48q73 0 179 -41t142 -41q12 0 29 3.5t41 10.5q21 50 42.5 74.5t43.5 24.5q11 0 18 -7t7 -18q0 -23 -103 -99
q-84 -61 -139 -106h-1q-261 -209 -452 -307z" />
    <glyph glyph-name="braceleft" unicode="{" 
d="M850 1459q-128 -2 -175.5 -55t-47.5 -210v-137q0 -225 -56.5 -307.5t-208.5 -114.5q152 -32 208.5 -114.5t56.5 -307.5v-137q0 -157 47 -209t176 -54v-57h-10q-222 0 -305.5 74t-83.5 272v201q0 161 -58 223.5t-215 75.5v68q159 15 216 76t57 223v200q0 200 84.5 273.5
t314.5 73.5v-57z" />
    <glyph glyph-name="bar" unicode="|" 
d="M602 1565v-2048h-178v2048h178z" />
    <glyph glyph-name="braceright" unicode="}" 
d="M575 1169v-200q0 -162 57 -223t216 -76v-68q-157 -13 -215 -74.5t-58 -224.5v-201q0 -197 -84 -271.5t-307 -74.5h-10v57q129 2 176 54t47 209v137q0 227 56.5 308.5t208.5 113.5q-151 32 -208 113.5t-57 308.5v137q0 157 -47.5 210t-175.5 55v57h10q223 0 307 -74.5
t84 -272.5z" />
    <glyph glyph-name="asciitilde" unicode="~" horiz-adv-x="1706" 
d="M1530 600q-103 -71 -197.5 -106t-183.5 -35q-44 0 -92.5 8.5t-98.5 26.5q-25 8 -76 26q-212 74 -319 74q-82 0 -174 -38t-211 -122v187q106 72 202 107.5t185 35.5q62 0 125.5 -12t168.5 -48q13 -4 42 -15q164 -58 250 -58q85 0 177 37t202 116v-184z" />
    <glyph glyph-name="Adieresis" unicode="&#xc4;" horiz-adv-x="1933" 
d="M1384 1280q-192 -101 -385 -265t-387 -390h260q90 160 205.5 306t311.5 337zM1720 1434l17 -23q-355 -375 -556.5 -718.5t-201.5 -559.5q0 -58 18 -86.5t56 -28.5q84 0 243 141t312 365l12 -8q-177 -259 -360.5 -406t-325.5 -147q-94 0 -147.5 56.5t-53.5 156.5
q0 88 34.5 201.5t96.5 230.5h-270q-303 -346 -512.5 -490.5t-398.5 -144.5q-127 0 -206 63t-79 161q0 72 40.5 118.5t102.5 46.5q47 0 77 -30.5t30 -79.5q0 -43 -21.5 -69.5t-56.5 -26.5q-2 0 -7 1t-7 1q9 -64 63 -99.5t141 -35.5q75 0 165.5 35t183.5 100q139 99 435 418
l77 83q320 347 567.5 517.5t531.5 257.5zM1932 1769q43 0 75.5 -32t32.5 -74q0 -47 -31 -79t-77 -32q-45 0 -76 32.5t-31 78.5q0 41 32.5 73.5t74.5 32.5zM1534 1769q44 0 76.5 -32t32.5 -74q0 -47 -31 -79t-78 -32q-44 0 -75 32.5t-31 78.5q0 41 32.5 73.5t73.5 32.5z" />
    <glyph glyph-name="Aring" unicode="&#xc5;" horiz-adv-x="1933" 
d="M1855 1837q0 31 -17.5 51.5t-43.5 20.5q-30 0 -62.5 -21.5t-60.5 -58.5q-35 -48 -56.5 -100.5t-21.5 -90.5q0 -31 17.5 -50t46.5 -19q28 0 59.5 21.5t61.5 62.5q35 48 56 99t21 85zM1774 1925q78 0 121.5 -39t43.5 -108q0 -87 -78.5 -156.5t-179.5 -69.5q-77 0 -124.5 41
t-47.5 107q0 91 79 158t186 67zM1720 1434l17 -23q-355 -375 -556.5 -718.5t-201.5 -559.5q0 -58 18 -86.5t56 -28.5q84 0 243 141t312 365l12 -8q-177 -259 -360.5 -406t-325.5 -147q-94 0 -147.5 56.5t-53.5 156.5q0 88 34.5 201.5t96.5 230.5h-270
q-303 -346 -512.5 -490.5t-398.5 -144.5q-127 0 -206 63t-79 161q0 72 40.5 118.5t102.5 46.5q47 0 77 -30.5t30 -79.5q0 -43 -21.5 -69.5t-56.5 -26.5q-2 0 -7 1t-7 1q9 -64 63 -99.5t141 -35.5q75 0 165.5 35t183.5 100q139 99 435 418l77 83q320 347 567.5 517.5
t531.5 257.5zM1384 1280q-192 -101 -385 -265t-387 -390h260q90 160 205.5 306t311.5 337z" />
    <glyph glyph-name="Ccedilla" unicode="&#xc7;" horiz-adv-x="1479" 
d="M758 1225l10 -8q-37 -37 -55.5 -77t-18.5 -83q0 -66 42.5 -108t109.5 -42q57 0 111.5 31.5t99.5 89.5q39 52 61.5 113.5t22.5 115.5q0 66 -36.5 101t-105.5 35q-106 0 -232.5 -57.5t-246.5 -161.5q-200 -174 -315 -401t-115 -445q0 -152 72 -243t190 -91
q146 0 256.5 131.5t110.5 310.5q0 102 -42 158.5t-118 56.5q-96 0 -165.5 -105t-69.5 -255q0 -13 1 -28t1 -17h-14q-3 20 -4 29.5t-1 15.5q0 180 100.5 304t239.5 124q115 0 186.5 -69t71.5 -179q0 -88 -49.5 -175t-142.5 -161q-106 -85 -231 -131.5t-244 -46.5
q-193 0 -303.5 110t-110.5 302q0 181 109.5 375.5t304.5 355.5q178 147 385 230t393 83q124 0 195 -58.5t71 -160.5q0 -128 -114.5 -227t-264.5 -99q-101 0 -163 52t-62 135q0 49 20.5 93t59.5 77zM168 -6h22l-76 -117h13h22q68 0 108 -38.5t40 -104.5q0 -116 -121 -193.5
t-324 -89.5v17q144 13 223.5 63.5t79.5 126.5q0 41 -28.5 64.5t-77.5 23.5q-8 0 -18 -1.5t-25 -4.5z" />
    <glyph glyph-name="Eacute" unicode="&#xc9;" horiz-adv-x="1442" 
d="M485 936l5 14q25 -11 53.5 -16.5t60.5 -5.5q99 0 159 72t60 190q0 94 -46 150.5t-124 56.5q-58 0 -110.5 -43.5t-81.5 -116.5q-21 -54 -37 -172.5t-41 -171.5q-30 -65 -163 -139q-56 -31 -85 -49q-82 -54 -131 -146.5t-49 -196.5q0 -157 100.5 -260.5t253.5 -103.5
q148 0 251.5 105.5t103.5 252.5q0 99 -51.5 158t-135.5 59q-79 0 -153.5 -59t-128.5 -166l-15 6q71 140 190 219.5t253 79.5q109 0 176 -61.5t67 -161.5q0 -94 -57.5 -177t-173.5 -157q-108 -68 -233 -102.5t-261 -34.5q-207 0 -329.5 89.5t-122.5 236.5q0 107 68.5 190
t232.5 168q7 4 21 10q93 46 110 119q6 25 19 112.5t30 145.5q16 57 42.5 108t61.5 93q71 84 195 137t248 53q137 0 219 -62.5t82 -166.5q0 -121 -110.5 -202t-274.5 -81q-39 0 -75 6.5t-73 20.5zM1120 1855l-255.5 -199.5l-221.5 -185.5l-19 5l107.5 190t115.5 186z" />
    <glyph glyph-name="Ntilde" unicode="&#xd1;" horiz-adv-x="1858" 
d="M911 1419l-57 -129q-5 -40 -6.5 -60.5t-1.5 -39.5q0 -110 76 -349q25 -78 36 -118q32 -111 45 -192t13 -156v-15q217 504 437.5 773.5t414.5 269.5q80 0 130 -50.5t50 -131.5q0 -97 -74 -168t-202 -95v15q60 12 93 50.5t33 96.5q0 67 -42 105.5t-115 38.5
q-188 0 -413 -338.5t-462 -976.5h-28q5 30 7.5 61t2.5 66q0 84 -16 180.5t-46 185.5l-24 72q-117 346 -135 500q-246 -542 -466 -785t-460 -243q-119 0 -195.5 62.5t-76.5 158.5q0 66 39 113t92 47q49 0 81.5 -33.5t32.5 -83.5q0 -48 -26.5 -78.5t-69.5 -30.5h-6
q9 -52 56.5 -83t119.5 -31q218 0 422 236t453 784q0 7 -1 20t-1 20q0 158 66 245t185 87h39zM1644 1786q-49 -147 -90 -193.5t-108 -46.5q-52 0 -155 45t-150 45q-43 0 -70.5 -27t-38.5 -79l-22 4q22 125 61.5 178t108.5 53q41 0 140.5 -40t156.5 -40q51 0 78.5 20.5
t64.5 88.5z" />
    <glyph glyph-name="Odieresis" unicode="&#xd6;" horiz-adv-x="1669" 
d="M913 422q22 -7 46 -9.5t57 -2.5q90 0 171.5 33.5t168.5 105.5l6 -14q-87 -75 -171 -109.5t-177 -34.5q-29 0 -58.5 3.5t-60.5 10.5q-163 -205 -357 -320.5t-372 -115.5q-168 0 -266.5 108.5t-98.5 295.5q0 197 115.5 397t319.5 356q108 84 224 134t236 65q52 49 107 73.5
t112 24.5q110 0 181 -95.5t71 -246.5q0 -143 -67 -319t-187 -340zM805 471q79 180 117.5 332.5t38.5 290.5t-37 208t-109 70q-22 0 -44 -11t-48 -36q73 0 115.5 -45t42.5 -123q0 -41 -11.5 -80.5t-35.5 -83.5l-13 4q23 44 34 82t11 70q0 77 -37.5 119.5t-105.5 42.5h-12
q-48 -71 -72.5 -167.5t-24.5 -215.5q0 -170 45.5 -278.5t145.5 -178.5zM684 1311q-99 -28 -192.5 -98t-180.5 -181q-107 -137 -173 -321.5t-66 -343.5q0 -154 71 -247t187 -93q112 0 244.5 118.5t222.5 307.5q-136 65 -207.5 177t-71.5 259q0 104 42 210.5t124 211.5z
M1223 1769q43 0 75.5 -32t32.5 -74q0 -47 -31 -79t-77 -32q-45 0 -76 32.5t-31 78.5q0 41 32.5 73.5t74.5 32.5zM825 1769q44 0 76.5 -32t32.5 -74q0 -47 -31 -79t-78 -32q-44 0 -75 32.5t-31 78.5q0 41 32.5 73.5t73.5 32.5z" />
    <glyph glyph-name="Udieresis" unicode="&#xdc;" horiz-adv-x="1933" 
d="M1354 1350h278q-402 -612 -558 -887.5t-156 -364.5q0 -42 21.5 -66t59.5 -24q100 0 275 143.5t338 372.5l10 -10q-181 -257 -374.5 -404t-348.5 -147q-97 0 -151 50t-54 141q0 39 15 87.5t45 106.5l-9 6q-159 -181 -315 -279t-285 -98q-79 0 -125.5 46.5t-46.5 126.5
q0 142 233 489l77 115q138 211 192.5 320.5t54.5 172.5q0 64 -39.5 100.5t-109.5 36.5q-67 0 -139 -35.5t-138 -101.5q-68 -70 -105.5 -157.5t-37.5 -176.5q0 -75 33 -120t86 -45q60 0 119 51.5t100 140.5l10 -4q-44 -104 -124 -166.5t-167 -62.5q-76 0 -122 49.5t-46 134.5
q0 92 61 194.5t165 184.5q88 70 192.5 108.5t206.5 38.5q127 0 198.5 -59t71.5 -164q0 -131 -292 -583l-27 -42q-144 -224 -182.5 -308t-38.5 -140q0 -38 21 -61t57 -23q55 0 151 61t203 166q168 166 531 776zM1354 1769q43 0 75.5 -32t32.5 -74q0 -47 -31 -79t-77 -32
q-45 0 -76 32.5t-31 78.5q0 41 32.5 73.5t74.5 32.5zM956 1769q44 0 76.5 -32t32.5 -74q0 -47 -31 -79t-78 -32q-44 0 -75 32.5t-31 78.5q0 41 32.5 73.5t73.5 32.5z" />
    <glyph glyph-name="aacute" unicode="&#xe1;" horiz-adv-x="1128" 
d="M270 596l56 104l276 17q-182 -288 -264 -439t-82 -198q0 -21 13 -36t30 -15q74 0 194.5 118t313.5 381l10 -8q-203 -289 -341.5 -414.5t-250.5 -125.5q-79 0 -127.5 49t-48.5 129q0 9 0.5 18.5t1.5 20.5q-69 -100 -162 -158.5t-176 -58.5q-86 0 -140 59.5t-54 155.5
q0 105 57.5 210.5t161.5 186.5q83 66 178.5 102.5t181.5 36.5q76 0 119 -33.5t53 -101.5zM141 713q-48 0 -97.5 -36.5t-111.5 -117.5q-72 -96 -116.5 -204t-44.5 -181q0 -49 23 -77.5t63 -28.5q44 0 89.5 34.5t98.5 108.5q80 111 125 216t45 175q0 53 -19 82t-55 29z
M688 1214l-255.5 -199.5l-221.5 -185.5l-19 5l107.5 190t115.5 186z" />
    <glyph glyph-name="agrave" unicode="&#xe0;" horiz-adv-x="1128" 
d="M270 596l56 104l276 17q-182 -288 -264 -439t-82 -198q0 -21 13 -36t30 -15q74 0 194.5 118t313.5 381l10 -8q-203 -289 -341.5 -414.5t-250.5 -125.5q-79 0 -127.5 49t-48.5 129q0 9 0.5 18.5t1.5 20.5q-69 -100 -162 -158.5t-176 -58.5q-86 0 -140 59.5t-54 155.5
q0 105 57.5 210.5t161.5 186.5q83 66 178.5 102.5t181.5 36.5q76 0 119 -33.5t53 -101.5zM141 713q-48 0 -97.5 -36.5t-111.5 -117.5q-72 -96 -116.5 -204t-44.5 -181q0 -49 23 -77.5t63 -28.5q44 0 89.5 34.5t98.5 108.5q80 111 125 216t45 175q0 53 -19 82t-55 29z
M186 1239h204q2 -36 2.5 -69t0.5 -68q0 -63 -3.5 -130.5t-10.5 -139.5l-21 -3q-31 118 -74.5 221t-97.5 189z" />
    <glyph glyph-name="acircumflex" unicode="&#xe2;" horiz-adv-x="1128" 
d="M270 596l56 104l276 17q-182 -288 -264 -439t-82 -198q0 -21 13 -36t30 -15q74 0 194.5 118t313.5 381l10 -8q-203 -289 -341.5 -414.5t-250.5 -125.5q-79 0 -127.5 49t-48.5 129q0 9 0.5 18.5t1.5 20.5q-69 -100 -162 -158.5t-176 -58.5q-86 0 -140 59.5t-54 155.5
q0 105 57.5 210.5t161.5 186.5q83 66 178.5 102.5t181.5 36.5q76 0 119 -33.5t53 -101.5zM141 713q-48 0 -97.5 -36.5t-111.5 -117.5q-72 -96 -116.5 -204t-44.5 -181q0 -49 23 -77.5t63 -28.5q44 0 89.5 34.5t98.5 108.5q80 111 125 216t45 175q0 53 -19 82t-55 29z
M528 1284q-24 -52 -35.5 -97t-11.5 -89q0 -73 25 -132t73 -98l-4 -14q-114 27 -176 94t-63 164l-173.5 -132.5l-170.5 -141.5l-13 14l398 430z" />
    <glyph glyph-name="adieresis" unicode="&#xe4;" horiz-adv-x="1128" 
d="M270 596l56 104l276 17q-182 -288 -264 -439t-82 -198q0 -21 13 -36t30 -15q74 0 194.5 118t313.5 381l10 -8q-203 -289 -341.5 -414.5t-250.5 -125.5q-79 0 -127.5 49t-48.5 129q0 9 0.5 18.5t1.5 20.5q-69 -100 -162 -158.5t-176 -58.5q-86 0 -140 59.5t-54 155.5
q0 105 57.5 210.5t161.5 186.5q83 66 178.5 102.5t181.5 36.5q76 0 119 -33.5t53 -101.5zM141 713q-48 0 -97.5 -36.5t-111.5 -117.5q-72 -96 -116.5 -204t-44.5 -181q0 -49 23 -77.5t63 -28.5q44 0 89.5 34.5t98.5 108.5q80 111 125 216t45 175q0 53 -19 82t-55 29z
M547 1128q43 0 75.5 -32t32.5 -74q0 -47 -31 -79t-77 -32q-45 0 -76 32.5t-31 78.5q0 41 32.5 73.5t74.5 32.5zM149 1128q44 0 76.5 -32t32.5 -74q0 -47 -31 -79t-78 -32q-44 0 -75 32.5t-31 78.5q0 41 32.5 73.5t73.5 32.5z" />
    <glyph glyph-name="atilde" unicode="&#xe3;" horiz-adv-x="1128" 
d="M270 596l56 104l276 17q-182 -288 -264 -439t-82 -198q0 -21 13 -36t30 -15q74 0 194.5 118t313.5 381l10 -8q-203 -289 -341.5 -414.5t-250.5 -125.5q-79 0 -127.5 49t-48.5 129q0 9 0.5 18.5t1.5 20.5q-69 -100 -162 -158.5t-176 -58.5q-86 0 -140 59.5t-54 155.5
q0 105 57.5 210.5t161.5 186.5q83 66 178.5 102.5t181.5 36.5q76 0 119 -33.5t53 -101.5zM141 713q-48 0 -97.5 -36.5t-111.5 -117.5q-72 -96 -116.5 -204t-44.5 -181q0 -49 23 -77.5t63 -28.5q44 0 89.5 34.5t98.5 108.5q80 111 125 216t45 175q0 53 -19 82t-55 29z
M626 1145q-49 -147 -90 -193.5t-108 -46.5q-52 0 -155 45t-150 45q-43 0 -70.5 -27t-38.5 -79l-22 4q22 125 61.5 178t108.5 53q41 0 140.5 -40t156.5 -40q51 0 78.5 20.5t64.5 88.5z" />
    <glyph glyph-name="aring" unicode="&#xe5;" horiz-adv-x="1128" 
d="M360 1223q78 0 121 -39t43 -109q0 -87 -78.5 -156t-179.5 -69q-76 0 -124 41.5t-48 107.5q0 91 79.5 157.5t186.5 66.5zM141 713q-48 0 -97.5 -36.5t-111.5 -117.5q-72 -96 -116.5 -204t-44.5 -181q0 -49 23 -77.5t63 -28.5q44 0 89.5 34.5t98.5 108.5q80 111 125 216
t45 175q0 53 -19 82t-55 29zM270 596l56 104l276 17q-182 -288 -264 -439t-82 -198q0 -21 13 -36t30 -15q74 0 194.5 118t313.5 381l10 -8q-203 -289 -341.5 -414.5t-250.5 -125.5q-79 0 -127.5 49t-48.5 129q0 9 0.5 18.5t1.5 20.5q-69 -100 -162 -158.5t-176 -58.5
q-86 0 -140 59.5t-54 155.5q0 105 57.5 210.5t161.5 186.5q83 66 178.5 102.5t181.5 36.5q76 0 119 -33.5t53 -101.5zM440 1135q0 30 -17.5 50.5t-43.5 20.5q-30 0 -63 -21t-60 -59q-35 -47 -55.5 -98.5t-20.5 -89.5q0 -32 17 -52t45 -20t60.5 22t62.5 62q34 46 54.5 96.5
t20.5 88.5z" />
    <glyph glyph-name="ccedilla" unicode="&#xe7;" horiz-adv-x="870" 
d="M111 444q3 43 4.5 72.5t1.5 42.5q0 76 -12.5 107.5t-41.5 31.5q-26 0 -60 -26t-81 -82q-72 -89 -108.5 -179.5t-36.5 -179.5q0 -88 45 -138t125 -50q119 0 269 120.5t331 360.5l10 -10q-192 -268 -381.5 -403.5t-374.5 -135.5q-125 0 -201.5 65.5t-76.5 172.5
q0 113 67.5 218.5t192.5 184.5q85 55 184.5 85t192.5 30q89 0 138.5 -33t49.5 -92q0 -69 -57.5 -116.5t-145.5 -47.5q-10 0 -18 0.5t-16 1.5zM-260 -6h22l-76 -117h13h22q68 0 108 -38.5t40 -104.5q0 -116 -121 -193.5t-324 -89.5v17q144 13 223.5 63.5t79.5 126.5
q0 41 -28.5 64.5t-77.5 23.5q-8 0 -18 -1.5t-25 -4.5z" />
    <glyph glyph-name="eacute" unicode="&#xe9;" horiz-adv-x="870" 
d="M-217 307q-1 -13 -4 -36q-4 -38 -4 -50q0 -87 43 -135.5t119 -48.5q121 0 278 126t330 363l10 -8q-192 -272 -382.5 -407.5t-381.5 -135.5q-126 0 -197 66t-71 182q0 89 49.5 180.5t138.5 165.5q93 78 211 122t232 44q79 0 125.5 -34t46.5 -93q0 -96 -122 -164.5
t-421 -136.5zM-213 324q156 34 251 128.5t95 209.5q0 23 -12 38t-31 15q-67 0 -161.5 -115t-141.5 -276zM559 1214l-255.5 -199.5l-221.5 -185.5l-19 5l107.5 190t115.5 186z" />
    <glyph glyph-name="egrave" unicode="&#xe8;" horiz-adv-x="870" 
d="M-217 307q-1 -13 -4 -36q-4 -38 -4 -50q0 -87 43 -135.5t119 -48.5q121 0 278 126t330 363l10 -8q-192 -272 -382.5 -407.5t-381.5 -135.5q-126 0 -197 66t-71 182q0 89 49.5 180.5t138.5 165.5q93 78 211 122t232 44q79 0 125.5 -34t46.5 -93q0 -96 -122 -164.5
t-421 -136.5zM-213 324q156 34 251 128.5t95 209.5q0 23 -12 38t-31 15q-67 0 -161.5 -115t-141.5 -276zM57 1239h204q2 -36 2.5 -69t0.5 -68q0 -63 -3.5 -130.5t-10.5 -139.5l-21 -3q-31 118 -74.5 221t-97.5 189z" />
    <glyph glyph-name="ecircumflex" unicode="&#xea;" horiz-adv-x="870" 
d="M-217 307q-1 -13 -4 -36q-4 -38 -4 -50q0 -87 43 -135.5t119 -48.5q121 0 278 126t330 363l10 -8q-192 -272 -382.5 -407.5t-381.5 -135.5q-126 0 -197 66t-71 182q0 89 49.5 180.5t138.5 165.5q93 78 211 122t232 44q79 0 125.5 -34t46.5 -93q0 -96 -122 -164.5
t-421 -136.5zM-213 324q156 34 251 128.5t95 209.5q0 23 -12 38t-31 15q-67 0 -161.5 -115t-141.5 -276zM399 1284q-24 -52 -35.5 -97t-11.5 -89q0 -73 25 -132t73 -98l-4 -14q-114 27 -176 94t-63 164l-173.5 -132.5l-170.5 -141.5l-13 14l398 430z" />
    <glyph glyph-name="edieresis" unicode="&#xeb;" horiz-adv-x="870" 
d="M-217 307q-1 -13 -4 -36q-4 -38 -4 -50q0 -87 43 -135.5t119 -48.5q121 0 278 126t330 363l10 -8q-192 -272 -382.5 -407.5t-381.5 -135.5q-126 0 -197 66t-71 182q0 89 49.5 180.5t138.5 165.5q93 78 211 122t232 44q79 0 125.5 -34t46.5 -93q0 -96 -122 -164.5
t-421 -136.5zM-213 324q156 34 251 128.5t95 209.5q0 23 -12 38t-31 15q-67 0 -161.5 -115t-141.5 -276zM418 1128q43 0 75.5 -32t32.5 -74q0 -47 -31 -79t-77 -32q-45 0 -76 32.5t-31 78.5q0 41 32.5 73.5t74.5 32.5zM20 1128q44 0 76.5 -32t32.5 -74q0 -47 -31 -79
t-78 -32q-44 0 -75 32.5t-31 78.5q0 41 32.5 73.5t73.5 32.5z" />
    <glyph glyph-name="iacute" unicode="&#xed;" horiz-adv-x="588" 
d="M45 713l-3 -5q-323 -526 -323 -618q0 -24 15.5 -38.5t40.5 -14.5q68 0 204 135t287 358l10 -8q-174 -262 -329.5 -401t-272.5 -139q-71 0 -112 46t-41 128q0 50 22 117t62 137l166 292zM418 1214l-255.5 -199.5l-221.5 -185.5l-19 5l107.5 190t115.5 186z" />
    <glyph glyph-name="igrave" unicode="&#xec;" horiz-adv-x="588" 
d="M45 713l-3 -5q-323 -526 -323 -618q0 -24 15.5 -38.5t40.5 -14.5q68 0 204 135t287 358l10 -8q-174 -262 -329.5 -401t-272.5 -139q-71 0 -112 46t-41 128q0 50 22 117t62 137l166 292zM-84 1239h204q2 -36 2.5 -69t0.5 -68q0 -63 -3.5 -130.5t-10.5 -139.5l-21 -3
q-31 118 -74.5 221t-97.5 189z" />
    <glyph glyph-name="icircumflex" unicode="&#xee;" horiz-adv-x="588" 
d="M45 713l-3 -5q-323 -526 -323 -618q0 -24 15.5 -38.5t40.5 -14.5q68 0 204 135t287 358l10 -8q-174 -262 -329.5 -401t-272.5 -139q-71 0 -112 46t-41 128q0 50 22 117t62 137l166 292zM258 1284q-24 -52 -35.5 -97t-11.5 -89q0 -73 25 -132t73 -98l-4 -14
q-114 27 -176 94t-63 164l-173.5 -132.5l-170.5 -141.5l-13 14l398 430z" />
    <glyph glyph-name="idieresis" unicode="&#xef;" horiz-adv-x="588" 
d="M45 713l-3 -5q-323 -526 -323 -618q0 -24 15.5 -38.5t40.5 -14.5q68 0 204 135t287 358l10 -8q-174 -262 -329.5 -401t-272.5 -139q-71 0 -112 46t-41 128q0 50 22 117t62 137l166 292zM277 1128q43 0 75.5 -32t32.5 -74q0 -47 -31 -79t-77 -32q-45 0 -76 32.5t-31 78.5
q0 41 32.5 73.5t74.5 32.5zM-121 1128q44 0 76.5 -32t32.5 -74q0 -47 -31 -79t-78 -32q-44 0 -75 32.5t-31 78.5q0 41 32.5 73.5t73.5 32.5z" />
    <glyph glyph-name="ntilde" unicode="&#xf1;" horiz-adv-x="1100" 
d="M786 545l15 -8q-219 -308 -353 -432.5t-241 -124.5q-75 0 -119.5 48t-44.5 130q0 56 23.5 113t89.5 151q19 28 55 73q72 93 72 134q0 22 -18.5 37.5t-45.5 15.5q-88 0 -253 -189t-312 -477l-275 -14l404 709l278 10l-282 -408l18 -10q164 225 295.5 333.5t239.5 108.5
q72 0 121 -45t49 -112q0 -81 -112 -242l-38 -55q-54 -83 -81 -134.5t-27 -72.5q0 -20 12 -34.5t29 -14.5q71 0 190.5 121t310.5 389zM612 1145q-49 -147 -90 -193.5t-108 -46.5q-52 0 -155 45t-150 45q-43 0 -70.5 -27t-38.5 -79l-22 4q22 125 61.5 178t108.5 53
q41 0 140.5 -40t156.5 -40q51 0 78.5 20.5t64.5 88.5z" />
    <glyph glyph-name="oacute" unicode="&#xf3;" horiz-adv-x="1100" 
d="M780 532l13 -6q-53 -66 -101 -95.5t-104 -29.5q-55 0 -96.5 29t-77.5 94q3 -27 4.5 -44t1.5 -25q0 -87 -48 -180.5t-130 -165.5q-75 -66 -182 -100t-238 -34q-129 0 -203 72.5t-74 198.5q0 97 43 186t125 162q85 74 190 115t210 41q110 0 179 -40t114 -128
q53 -105 91.5 -136.5t94.5 -31.5q50 0 95 28t93 90zM231 618q0 54 -21.5 82.5t-62.5 28.5t-97.5 -45t-110.5 -123q-89 -127 -138 -246.5t-49 -208.5q0 -59 20 -85.5t64 -26.5q43 0 94 36t99 101q33 44 63.5 98t61.5 125q39 93 58 158.5t19 105.5zM674 1214l-255.5 -199.5
l-221.5 -185.5l-19 5l107.5 190t115.5 186z" />
    <glyph glyph-name="ograve" unicode="&#xf2;" horiz-adv-x="1100" 
d="M780 532l13 -6q-53 -66 -101 -95.5t-104 -29.5q-55 0 -96.5 29t-77.5 94q3 -27 4.5 -44t1.5 -25q0 -87 -48 -180.5t-130 -165.5q-75 -66 -182 -100t-238 -34q-129 0 -203 72.5t-74 198.5q0 97 43 186t125 162q85 74 190 115t210 41q110 0 179 -40t114 -128
q53 -105 91.5 -136.5t94.5 -31.5q50 0 95 28t93 90zM231 618q0 54 -21.5 82.5t-62.5 28.5t-97.5 -45t-110.5 -123q-89 -127 -138 -246.5t-49 -208.5q0 -59 20 -85.5t64 -26.5q43 0 94 36t99 101q33 44 63.5 98t61.5 125q39 93 58 158.5t19 105.5zM172 1239h204
q2 -36 2.5 -69t0.5 -68q0 -63 -3.5 -130.5t-10.5 -139.5l-21 -3q-31 118 -74.5 221t-97.5 189z" />
    <glyph glyph-name="ocircumflex" unicode="&#xf4;" horiz-adv-x="1100" 
d="M780 532l13 -6q-53 -66 -101 -95.5t-104 -29.5q-55 0 -96.5 29t-77.5 94q3 -27 4.5 -44t1.5 -25q0 -87 -48 -180.5t-130 -165.5q-75 -66 -182 -100t-238 -34q-129 0 -203 72.5t-74 198.5q0 97 43 186t125 162q85 74 190 115t210 41q110 0 179 -40t114 -128
q53 -105 91.5 -136.5t94.5 -31.5q50 0 95 28t93 90zM231 618q0 54 -21.5 82.5t-62.5 28.5t-97.5 -45t-110.5 -123q-89 -127 -138 -246.5t-49 -208.5q0 -59 20 -85.5t64 -26.5q43 0 94 36t99 101q33 44 63.5 98t61.5 125q39 93 58 158.5t19 105.5zM514 1284
q-24 -52 -35.5 -97t-11.5 -89q0 -73 25 -132t73 -98l-4 -14q-114 27 -176 94t-63 164l-173.5 -132.5l-170.5 -141.5l-13 14l398 430z" />
    <glyph glyph-name="odieresis" unicode="&#xf6;" horiz-adv-x="1100" 
d="M780 532l13 -6q-53 -66 -101 -95.5t-104 -29.5q-55 0 -96.5 29t-77.5 94q3 -27 4.5 -44t1.5 -25q0 -87 -48 -180.5t-130 -165.5q-75 -66 -182 -100t-238 -34q-129 0 -203 72.5t-74 198.5q0 97 43 186t125 162q85 74 190 115t210 41q110 0 179 -40t114 -128
q53 -105 91.5 -136.5t94.5 -31.5q50 0 95 28t93 90zM231 618q0 54 -21.5 82.5t-62.5 28.5t-97.5 -45t-110.5 -123q-89 -127 -138 -246.5t-49 -208.5q0 -59 20 -85.5t64 -26.5q43 0 94 36t99 101q33 44 63.5 98t61.5 125q39 93 58 158.5t19 105.5zM533 1128q43 0 75.5 -32
t32.5 -74q0 -47 -31 -79t-77 -32q-45 0 -76 32.5t-31 78.5q0 41 32.5 73.5t74.5 32.5zM135 1128q44 0 76.5 -32t32.5 -74q0 -47 -31 -79t-78 -32q-44 0 -75 32.5t-31 78.5q0 41 32.5 73.5t73.5 32.5z" />
    <glyph glyph-name="otilde" unicode="&#xf5;" horiz-adv-x="1100" 
d="M780 532l13 -6q-53 -66 -101 -95.5t-104 -29.5q-55 0 -96.5 29t-77.5 94q3 -27 4.5 -44t1.5 -25q0 -87 -48 -180.5t-130 -165.5q-75 -66 -182 -100t-238 -34q-129 0 -203 72.5t-74 198.5q0 97 43 186t125 162q85 74 190 115t210 41q110 0 179 -40t114 -128
q53 -105 91.5 -136.5t94.5 -31.5q50 0 95 28t93 90zM231 618q0 54 -21.5 82.5t-62.5 28.5t-97.5 -45t-110.5 -123q-89 -127 -138 -246.5t-49 -208.5q0 -59 20 -85.5t64 -26.5q43 0 94 36t99 101q33 44 63.5 98t61.5 125q39 93 58 158.5t19 105.5zM612 1145
q-49 -147 -90 -193.5t-108 -46.5q-52 0 -155 45t-150 45q-43 0 -70.5 -27t-38.5 -79l-22 4q22 125 61.5 178t108.5 53q41 0 140.5 -40t156.5 -40q51 0 78.5 20.5t64.5 88.5z" />
    <glyph glyph-name="uacute" unicode="&#xfa;" horiz-adv-x="1108" 
d="M49 713l-252 -412q-40 -64 -64 -122.5t-24 -86.5q0 -22 13 -37.5t32 -15.5q76 0 189.5 117.5t230.5 322.5l125 219l276 13l-264 -447q-44 -73 -61 -115t-17 -73q0 -21 13 -36t33 -15q68 0 204.5 134.5t296.5 364.5l13 -8q-211 -296 -349 -418.5t-258 -122.5
q-69 0 -114 46.5t-45 119.5q0 22 4.5 44t13.5 46l-8 9q-104 -128 -201.5 -195.5t-179.5 -67.5q-72 0 -113 44t-41 120q0 51 22.5 111t86.5 170l164 280zM678 1214l-255.5 -199.5l-221.5 -185.5l-19 5l107.5 190t115.5 186z" />
    <glyph glyph-name="ugrave" unicode="&#xf9;" horiz-adv-x="1108" 
d="M49 713l-252 -412q-40 -64 -64 -122.5t-24 -86.5q0 -22 13 -37.5t32 -15.5q76 0 189.5 117.5t230.5 322.5l125 219l276 13l-264 -447q-44 -73 -61 -115t-17 -73q0 -21 13 -36t33 -15q68 0 204.5 134.5t296.5 364.5l13 -8q-211 -296 -349 -418.5t-258 -122.5
q-69 0 -114 46.5t-45 119.5q0 22 4.5 44t13.5 46l-8 9q-104 -128 -201.5 -195.5t-179.5 -67.5q-72 0 -113 44t-41 120q0 51 22.5 111t86.5 170l164 280zM176 1239h204q2 -36 2.5 -69t0.5 -68q0 -63 -3.5 -130.5t-10.5 -139.5l-21 -3q-31 118 -74.5 221t-97.5 189z" />
    <glyph glyph-name="ucircumflex" unicode="&#xfb;" horiz-adv-x="1108" 
d="M49 713l-252 -412q-40 -64 -64 -122.5t-24 -86.5q0 -22 13 -37.5t32 -15.5q76 0 189.5 117.5t230.5 322.5l125 219l276 13l-264 -447q-44 -73 -61 -115t-17 -73q0 -21 13 -36t33 -15q68 0 204.5 134.5t296.5 364.5l13 -8q-211 -296 -349 -418.5t-258 -122.5
q-69 0 -114 46.5t-45 119.5q0 22 4.5 44t13.5 46l-8 9q-104 -128 -201.5 -195.5t-179.5 -67.5q-72 0 -113 44t-41 120q0 51 22.5 111t86.5 170l164 280zM518 1284q-24 -52 -35.5 -97t-11.5 -89q0 -73 25 -132t73 -98l-4 -14q-114 27 -176 94t-63 164l-173.5 -132.5
l-170.5 -141.5l-13 14l398 430z" />
    <glyph glyph-name="udieresis" unicode="&#xfc;" horiz-adv-x="1108" 
d="M49 713l-252 -412q-40 -64 -64 -122.5t-24 -86.5q0 -22 13 -37.5t32 -15.5q76 0 189.5 117.5t230.5 322.5l125 219l276 13l-264 -447q-44 -73 -61 -115t-17 -73q0 -21 13 -36t33 -15q68 0 204.5 134.5t296.5 364.5l13 -8q-211 -296 -349 -418.5t-258 -122.5
q-69 0 -114 46.5t-45 119.5q0 22 4.5 44t13.5 46l-8 9q-104 -128 -201.5 -195.5t-179.5 -67.5q-72 0 -113 44t-41 120q0 51 22.5 111t86.5 170l164 280zM537 1128q43 0 75.5 -32t32.5 -74q0 -47 -31 -79t-77 -32q-45 0 -76 32.5t-31 78.5q0 41 32.5 73.5t74.5 32.5z
M139 1128q44 0 76.5 -32t32.5 -74q0 -47 -31 -79t-78 -32q-44 0 -75 32.5t-31 78.5q0 41 32.5 73.5t73.5 32.5z" />
    <glyph glyph-name="dagger" unicode="&#x2020;" 
d="M-244 -96l439 911q18 39 41.5 57.5t54.5 18.5q42 0 71 -24.5t29 -59.5q0 -14 -6 -30t-16 -32l-588 -841h-25zM782 969l-14 -23h-854l14 23h854zM375 1036l108 359q9 31 35 51t57 20q44 0 73.5 -24.5t29.5 -61.5q0 -17 -5 -31t-16 -24l-266 -297z" />
    <glyph glyph-name="degree" unicode="&#xb0;" horiz-adv-x="674" 
d="M522 1165q0 77 -53.5 131t-130.5 54t-131.5 -54t-54.5 -131q0 -76 54.5 -131t131.5 -55t130.5 54.5t53.5 131.5zM338 1460q123 0 209 -87t86 -210q0 -121 -87 -208t-210 -87t-208 85.5t-85 209.5q0 125 86 211t209 86z" />
    <glyph glyph-name="cent" unicode="&#xa2;" horiz-adv-x="1176" 
d="M336 660q-6 18 -17.5 28t-27.5 10q-26 0 -61 -27t-80 -81q-75 -90 -110.5 -179.5t-35.5 -187.5q0 -36 8.5 -66t24.5 -48zM446 862l21 -8l-70 -125q83 0 130.5 -33t47.5 -90q0 -67 -59 -115.5t-145 -48.5q-10 0 -17 0.5t-16 2.5q0 3 1 12q7 72 7 102q0 13 -1 29t-3 40
l-291 -536q22 -25 52 -37t69 -12q82 0 176 54.5t203 164.5l12 -12q-125 -131 -263.5 -203t-264.5 -72q-10 0 -25.5 1t-21.5 1l-68 -129l-20 11l67 121q-107 23 -162 82t-55 151q0 193 182 346t445 170z" />
    <glyph glyph-name="sterling" unicode="&#xa3;" horiz-adv-x="2048" 
d="M59 55q-130 51 -246.5 79t-195.5 28q-57 0 -86 -16.5t-29 -49.5q0 -49 68.5 -78.5t183.5 -29.5q85 0 161.5 17t143.5 50zM1362 1212l6 -10q-127 -56 -199.5 -136.5t-72.5 -162.5q0 -53 28 -85t76 -32q50 0 108.5 39.5t106.5 108.5q50 70 78.5 150.5t28.5 148.5
q0 70 -35.5 111.5t-93.5 41.5q-155 0 -310 -190.5t-343 -615.5q139 -6 262 -8.5t237 -2.5l-6 -16q-132 0 -260.5 -1.5t-253.5 -4.5q-93 -163 -210.5 -267t-258.5 -149q111 -25 213 -37t196 -12q256 0 416 91.5t252 291.5l16 -4q-128 -252 -321 -388t-422 -136q-96 0 -221 26
t-283 80q-87 -35 -176.5 -53.5t-175.5 -18.5q-121 0 -192.5 34.5t-71.5 90.5q0 51 58 78t167 27q96 0 214.5 -15.5t279.5 -48.5q68 40 135.5 139.5t138.5 266.5q-122 5 -239.5 7.5t-231.5 2.5h-104l10 16l577 6l25 51q201 418 324 548q105 112 233.5 172.5t263.5 60.5
q147 0 228 -76.5t81 -214.5q0 -160 -107 -270.5t-261 -110.5q-88 0 -142.5 45.5t-54.5 116.5q0 91 78.5 178t208.5 137z" />
    <glyph glyph-name="section" unicode="&#xa7;" 
d="M250 1014q-95 -6 -152 -71t-57 -165q0 -90 122 -292q61 -101 93 -160q101 15 153 75t52 162q0 101 -128 310q-55 89 -83 141zM695 1076q32 40 46.5 76t14.5 75q0 82 -46.5 135t-117.5 53q-83 0 -140 -65.5t-57 -159.5q0 -49 28 -114t107 -189q74 -115 95.5 -168
t21.5 -101q0 -118 -94 -196t-285 -117q12 -36 16.5 -60t4.5 -44q0 -134 -119 -219.5t-309 -85.5q-143 0 -233.5 70.5t-90.5 176.5q0 90 73.5 147.5t188.5 57.5h27q-75 -40 -112.5 -94t-37.5 -123q0 -91 61.5 -151t156.5 -60q104 0 172.5 57t68.5 144q0 60 -26 123.5
t-105 179.5q-79 115 -107 181.5t-28 127.5q0 122 89.5 194t281.5 105q-15 32 -22 61.5t-7 57.5q0 127 107.5 207t281.5 80q131 0 213 -57.5t82 -145.5q0 -68 -55.5 -113t-144.5 -46z" />
    <glyph glyph-name="bullet" unicode="&#x2022;" horiz-adv-x="1208" 
d="M307 762q0 123 87 209t210 86q122 0 208.5 -86.5t86.5 -208.5t-87.5 -209.5t-209.5 -87.5q-123 0 -209 87t-86 210z" />
    <glyph glyph-name="paragraph" unicode="&#xb6;" 
d="M969 1380h-117v-1380h-129v1380h-168v-1380h-131v784q-168 6 -268.5 101t-100.5 245q0 158 107 253.5t284 95.5h523v-99z" />
    <glyph glyph-name="germandbls" unicode="&#xdf;" horiz-adv-x="1309" 
d="M422 29l2 -11q149 50 296.5 182.5t264.5 325.5l14 -6q-161 -268 -366.5 -411.5t-427.5 -143.5q-135 0 -215 59t-80 158q0 63 44.5 112.5t100.5 49.5q47 0 78 -29t31 -71q0 -37 -25.5 -62.5t-60.5 -25.5q-10 0 -19.5 2t-19.5 6q-5 -15 -7.5 -28.5t-2.5 -24.5
q0 -54 38.5 -89.5t96.5 -35.5q71 0 119.5 53t48.5 131q0 56 -63 176q-17 32 -25 49q-17 35 -25 66.5t-8 60.5q0 56 24.5 100.5t75.5 79.5q52 36 137 62t99 33q88 39 142 140t54 220q0 89 -36 140t-99 51q-113 0 -285.5 -185t-318.5 -475l-229 -455q-229 -455 -478 -654.5
t-581 -199.5q-175 0 -276 71.5t-101 193.5q0 116 92 187t246 71q34 0 72.5 -3.5t87.5 -11.5l-3 -12q-13 1 -27 1.5t-30 0.5q-91 0 -151 -65.5t-60 -165.5q0 -109 62.5 -176.5t163.5 -67.5q149 0 301 154t323 479l328 622q183 347 417 529t494 182q139 0 226.5 -68t87.5 -174
q0 -62 -28 -115.5t-79 -90.5q-58 -43 -174 -83q-44 -16 -63 -24q-92 -40 -136.5 -91.5t-44.5 -119.5q0 -67 57.5 -190.5t57.5 -186.5q0 -65 -36.5 -117.5t-100.5 -78.5z" />
    <glyph glyph-name="registered" unicode="&#xae;" horiz-adv-x="1683" 
d="M748 981v-258q14 -1 27 -1.5t26 -0.5q100 0 154.5 44t54.5 126q0 70 -46.5 114t-121.5 44q-47 0 -70.5 -17.5t-23.5 -50.5zM866 1096q145 0 232.5 -55t87.5 -142q0 -84 -65.5 -133t-217.5 -76q96 -25 147.5 -73t69.5 -127q6 -24 10 -67q9 -91 54 -91q29 0 44 34t15 99h49
v-23q0 -85 -43 -129.5t-127 -44.5q-46 0 -80 14.5t-53 43.5q-24 39 -27 111.5t-8 93.5q-16 74 -60.5 109.5t-121.5 35.5h-24v-246q0 -49 22.5 -69.5t85.5 -26.5v-47h-389v46q64 4 88.5 24.5t24.5 72.5v520q0 52 -23.5 72t-89.5 25v49h399zM1464 678q0 122 -48.5 240
t-135.5 206q-86 86 -200 133.5t-236 47.5q-126 0 -241 -48t-202 -137q-89 -90 -135.5 -203t-46.5 -239t47.5 -239.5t136.5 -202.5q91 -91 201.5 -137t237.5 -46q126 0 238.5 47t199.5 136q89 90 136.5 204.5t47.5 237.5zM844 1401q144 0 279 -57t235 -160
q98 -102 151.5 -235.5t53.5 -278.5q0 -138 -59.5 -272.5t-166.5 -239.5q-101 -100 -228 -149.5t-282 -49.5q-135 0 -264 54.5t-229 154.5q-105 104 -159 234t-54 276q0 143 54.5 275t156.5 235q102 102 235 157.5t277 55.5z" />
    <glyph glyph-name="copyright" unicode="&#xa9;" horiz-adv-x="1683" 
d="M1165 1100l2 -320h-47q-32 134 -102 203.5t-172 69.5q-116 0 -176 -94t-60 -275q0 -184 65 -281.5t189 -97.5q82 0 151 43.5t126 130.5l43 -26q-63 -108 -150 -160.5t-200 -52.5q-177 0 -297.5 124t-120.5 306q0 184 119.5 309t295.5 125q80 0 154 -33t78 -33
q28 0 41.5 14t19.5 48h41zM1464 678q0 124 -48 241.5t-136 204.5q-86 86 -200 133.5t-236 47.5q-126 0 -241 -48t-202 -137q-88 -90 -135 -203.5t-47 -238.5q0 -126 47.5 -239.5t136.5 -202.5q91 -91 201.5 -137t237.5 -46q126 0 238.5 47t199.5 136q88 89 136 204.5
t48 237.5zM844 1401q140 0 272.5 -55.5t233.5 -155.5q101 -102 157 -235.5t56 -276.5q0 -142 -55.5 -274t-157.5 -236q-101 -102 -231 -155.5t-277 -53.5q-145 0 -274.5 53t-233.5 156q-104 104 -158.5 234.5t-54.5 275.5q0 143 54 274.5t157 235.5q102 102 235 157.5
t277 55.5z" />
    <glyph glyph-name="trademark" unicode="&#x2122;" horiz-adv-x="1683" 
d="M969 1448l135 -381l137 381h189v-27l-28 -2q-19 -3 -29.5 -16.5t-10.5 -36.5v-375q0 -23 10.5 -36.5t30.5 -16.5l27 -4v-29h-246v29l30 4q20 2 29.5 15.5t9.5 37.5v375l-163 -463h-27l-170 469v-381q0 -24 10 -38t29 -15l35 -4v-29h-197v29l33 4q20 2 30.5 15t10.5 36
v373q0 23 -11 37t-30 16l-33 2v31h199zM692 1448l10 -188h-30q-8 80 -40 116.5t-93 36.5h-11v-422q0 -23 10.5 -37t28.5 -16l31 -4v-29h-260v29l32 4q19 2 28.5 15.5t9.5 37.5v422h-15q-59 0 -91 -37.5t-40 -115.5h-29l11 188h448z" />
    <glyph glyph-name="acute" unicode="&#xb4;" 
d="M635 1214l-255.5 -199.5l-221.5 -185.5l-19 5l107.5 190t115.5 186z" />
    <glyph glyph-name="dieresis" unicode="&#xa8;" 
d="M494 1128q43 0 75.5 -32t32.5 -74q0 -47 -31 -79t-77 -32q-45 0 -76 32.5t-31 78.5q0 41 32.5 73.5t74.5 32.5zM96 1128q44 0 76.5 -32t32.5 -74q0 -47 -31 -79t-78 -32q-44 0 -75 32.5t-31 78.5q0 41 32.5 73.5t73.5 32.5z" />
    <glyph glyph-name="notequal" unicode="&#x2260;" horiz-adv-x="1706" 
d="M1327 1112l-170 -215h295v-162h-403l-197 -250h600v-161h-707l-249 -314l-123 99l170 215h-289v161h393l199 250h-592v162h700l250 315z" />
    <glyph glyph-name="AE" unicode="&#xc6;" horiz-adv-x="2048" 
d="M590 82q-81 35 -140.5 50t-109.5 15q-59 0 -93 -21t-34 -56t37 -54.5t102 -19.5q64 0 124.5 22t113.5 64zM1465 1145q-90 -35 -155.5 -128.5t-170.5 -368.5q53 3 94.5 15t77.5 35q29 49 51.5 72.5t49.5 36.5q10 1 22 1.5t34 0.5h52q7 0 38.5 -1t57.5 -1
q-157 -92 -253 -202t-128 -234l-14 2q8 63 25 133t42 145q-27 -10 -66.5 -16.5t-89.5 -8.5q-56 -142 -158.5 -255.5t-250.5 -198.5q127 -22 221 -32.5t168 -10.5q123 0 214 27.5t161 85.5q77 64 215 252q18 25 27 36l12 -6q-213 -310 -378 -443.5t-331 -133.5
q-80 0 -180.5 30t-237.5 95q-63 -44 -130 -67t-130 -23q-78 0 -119.5 22.5t-41.5 65.5q0 56 76.5 92.5t203.5 36.5q62 0 202 -18q13 -2 19 -3q39 54 74 139.5t98 296.5h-96h-133q-33 0 -70.5 0.5t-79.5 1.5q-341 -413 -499 -532t-307 -119q-102 0 -164 51t-62 134
q0 50 39.5 89.5t91.5 39.5q48 0 79.5 -30.5t31.5 -76.5q0 -18 -8 -38.5t-27 -49.5q17 -23 45 -34t70 -11q110 0 258.5 118t372.5 388l32 39q336 405 615 604q-73 8 -161 12t-187 4q-246 0 -423.5 -41.5t-303.5 -128.5q-102 -69 -155.5 -147.5t-53.5 -159.5q0 -79 55 -127.5
t145 -48.5q149 0 261 95t112 220q0 40 -10.5 78.5t-32.5 79.5l10 4q25 -45 37 -89.5t12 -90.5q0 -159 -116 -275t-275 -116q-101 0 -166 61t-65 156q0 127 95 250t273 225q173 99 379 145.5t476 46.5q84 0 157 -4t139 -12q95 62 194 94.5t196 32.5q104 0 160.5 -33.5
t56.5 -95.5q0 -72 -95.5 -126t-236.5 -54q-23 0 -38 0.5t-29 1.5zM1081 1186q-162 -113 -304 -249t-275 -304q4 0 13 -1q125 -3 181 -3q32 0 125 2q33 1 51 2q67 194 205.5 322.5t353.5 195.5q-23 3 -139 14t-211 21zM1286 1323q130 -17 237 -27t152 -10q81 0 122.5 16.5
t41.5 49.5q0 36 -53 60t-137 24q-94 0 -190.5 -30t-172.5 -83z" />
    <glyph glyph-name="Oslash" unicode="&#xd8;" horiz-adv-x="1554" 
d="M803 1229q-18 21 -46 32t-63 11q-89 0 -197.5 -71t-195.5 -189q-111 -153 -172 -324.5t-61 -327.5q0 -72 15 -131t46 -110zM870 1300l-41 -67q18 -24 26.5 -47.5t8.5 -48.5q0 -42 -12.5 -84.5t-38.5 -85.5l-12 8q23 40 35 78.5t12 72.5q0 24 -8 46.5t-23 44.5l-674 -1117
q36 -38 75.5 -55.5t90.5 -17.5q103 0 202 63.5t183 183.5q117 167 182.5 363t65.5 379q0 92 -17.5 162.5t-54.5 121.5zM1016 1579l18 -8l-100 -164q102 -61 150.5 -153t48.5 -226q0 -215 -112.5 -431.5t-315.5 -391.5q-137 -119 -275 -179.5t-270 -60.5q-25 0 -49.5 3
t-47.5 9l-102 -167l-16 8l100 166q-113 40 -178.5 141t-65.5 235q0 192 98.5 379t274.5 328q129 103 264.5 164t227.5 61q51 0 87 -11.5t60 -35.5l45 74q-38 46 -97.5 70t-133.5 24q-101 0 -211.5 -64.5t-200.5 -177.5l-10 9q96 129 235 202.5t285 73.5q50 0 96.5 -9.5
t93.5 -29.5z" />
    <glyph glyph-name="infinity" unicode="&#x221e;" horiz-adv-x="1706" 
d="M928 559q45 -81 109.5 -122.5t146.5 -41.5q97 0 159 61.5t62 157.5q0 95 -57 158.5t-142 63.5q-78 0 -142 -63.5t-136 -213.5zM780 662q-46 81 -111 123t-145 42q-98 0 -159.5 -62t-61.5 -159q0 -94 56.5 -156.5t140.5 -62.5q80 0 144.5 62.5t135.5 212.5zM844 750
q71 139 149.5 200.5t184.5 61.5q127 0 222 -116t95 -284q0 -178 -84.5 -288.5t-220.5 -110.5q-92 0 -166.5 57.5t-161.5 200.5q-71 -135 -148.5 -197.5t-172.5 -62.5q-137 0 -232.5 114.5t-95.5 284.5q0 179 85 289.5t220 110.5q93 0 168.5 -60t157.5 -200z" />
    <glyph glyph-name="plusminus" unicode="&#xb1;" horiz-adv-x="1706" 
d="M1452 182v-168h-1198v168h1198zM938 1206v-334h514v-165h-514v-334h-170v334h-514v165h514v334h170z" />
    <glyph glyph-name="lessequal" unicode="&#x2264;" horiz-adv-x="1706" 
d="M1446 178v-166h-1186v166h1186zM1446 1047l-889 -287l889 -287v-176l-1186 389v145l1186 392v-176z" />
    <glyph glyph-name="greaterequal" unicode="&#x2265;" horiz-adv-x="1706" 
d="M1448 178v-166h-1188v166h1188zM1446 831v-145l-1186 -389v176l891 287l-891 287v176z" />
    <glyph glyph-name="yen" unicode="&#xa5;" horiz-adv-x="1176" 
d="M162 674l28 -277l271 277h-299zM266 1038l-12 -22h-127l31 -320h325l183 187q30 30 43.5 51.5t13.5 38.5q0 13 -5.5 23.5t-17.5 19.5l-106 6l6 16h397l-10 -16l-137 -10q-31 -17 -62 -41.5t-61 -55.5l-205 -219h246l-12 -22h-256l-238 -244h346l-14 -22h-354l-43 -37
l-144 -348h158l-12 -23h-545l16 23h152l155 356l-2 29h-393l12 22h377l-24 244h-250l12 22h234l-33 320h-139l12 22h483z" />
    <glyph glyph-name="mu" unicode="&#xb5;" horiz-adv-x="1184" 
d="M68 373l108 512h207l-100 -467q-10 -46 -15.5 -82t-5.5 -57q0 -64 37 -101t102 -37q87 0 139 53.5t76 167.5l111 523h209l-113 -533l-3 -15q-15 -70 -15 -110q0 -42 22.5 -66t63.5 -24q40 0 71 21.5t58 68.5q9 17 23 49q25 60 51 60q11 0 16.5 -7.5t5.5 -23.5
q0 -28 -17 -85.5t-40 -100.5q-41 -72 -95.5 -108t-123.5 -36q-84 0 -129.5 55t-47.5 156q-42 -104 -109.5 -157.5t-156.5 -53.5q-99 0 -156.5 58t-68.5 168q-23 -124 -48 -315q-39 -306 -134 -306q-47 0 -73 26.5t-26 74.5q0 52 69 282.5t108 409.5z" />
    <glyph glyph-name="partialdiff" unicode="&#x2202;" horiz-adv-x="1075" 
d="M758 639q17 103 26 186.5t9 147.5q0 120 -29 174.5t-92 54.5q-62 0 -147 -58.5t-122 -58.5t-64.5 26t-27.5 60q0 66 79 115t200 49q176 0 287.5 -159t111.5 -422q0 -338 -150 -558.5t-376 -220.5q-161 0 -266 112t-105 286q0 193 113 322.5t278 129.5q101 0 167.5 -45
t107.5 -141zM705 504q0 116 -41 178.5t-117 62.5q-105 0 -174.5 -131.5t-69.5 -337.5q0 -116 40.5 -177.5t117.5 -61.5q105 0 174.5 132.5t69.5 334.5z" />
    <glyph glyph-name="summation" unicode="&#x2211;" horiz-adv-x="1499" 
d="M18 1473h1199l120 -394h-82l-81 238q-15 43 -50.5 60.5t-130.5 17.5h-628l745 -809v-41l-784 -709h893q47 0 64.5 13.5t29.5 50.5l69 229h84l-159 -522h-1289v55l875 787l-875 964v60z" />
    <glyph glyph-name="product" unicode="&#x220f;" horiz-adv-x="1673" 
d="M51 1473h1569v-78h-190v-1710h190v-78h-643v78h184v1710h-653v-1710h186v-78h-643v78h189v1710h-189v78z" />
    <glyph glyph-name="pi" unicode="&#x3c0;" horiz-adv-x="1427" 
d="M1352 653h-342q-12 -73 -17.5 -147t-5.5 -152v-147q0 -129 -33 -189.5t-102 -60.5q-49 0 -74.5 30t-25.5 87q0 64 74.5 253.5t107.5 325.5h-381q-12 -68 -18.5 -141t-6.5 -152q0 -4 1 -21q1 -67 1 -130q0 -129 -33.5 -190.5t-103.5 -61.5q-48 0 -73 29t-25 86
q0 65 75 254.5t107 326.5h-139q-5 0 -15.5 -1t-15.5 -1q-106 0 -153 -36.5t-68 -135.5h-59q41 227 128.5 316.5t266.5 89.5h981z" />
    <glyph glyph-name="integral" unicode="&#x222b;" horiz-adv-x="1120" 
d="M324 -258q106 0 122 692l3 123q13 538 113 766.5t312 228.5q87 0 143 -45.5t56 -111.5q0 -61 -34 -95t-95 -34q-45 0 -74.5 22.5t-40.5 65.5q-4 17 -6 45q-3 40 -26 41q-101 0 -119 -615q-5 -161 -8 -249q-10 -280 -30.5 -427t-59.5 -245q-55 -136 -139.5 -205.5
t-194.5 -69.5q-87 0 -142 44t-55 112q0 63 35.5 97t99.5 34q39 0 66 -18t41 -54q6 -16 9 -59t24 -43z" />
    <glyph glyph-name="ordfeminine" unicode="&#xaa;" horiz-adv-x="797" 
d="M588 1407q-35 0 -68.5 -24.5t-73.5 -77.5q-54 -72 -83 -142t-29 -127q0 -30 15.5 -48.5t41.5 -18.5q31 0 60 21.5t71 78.5q55 74 86 145t31 119q0 36 -13 55t-38 19zM684 1333l41 76l197 8q-126 -193 -187 -303t-61 -143q0 -14 10 -24.5t23 -10.5q53 0 138.5 82.5
t223.5 267.5l10 -6q-142 -202 -242.5 -290.5t-185.5 -88.5q-56 0 -90.5 35.5t-34.5 93.5q0 7 0.5 12t1.5 10q-48 -68 -114 -109.5t-125 -41.5q-62 0 -100.5 42t-38.5 110q0 74 41 147t114 129q62 47 129.5 72.5t128.5 25.5q53 0 83 -23.5t38 -70.5z" />
    <glyph glyph-name="ordmasculine" unicode="&#xba;" horiz-adv-x="797" 
d="M1065 1284l12 -10q-41 -49 -75 -68.5t-72 -19.5q-43 0 -73 21.5t-52 65.5q1 -12 1.5 -23.5t0.5 -24.5q0 -135 -118 -233.5t-292 -98.5q-98 0 -151 49.5t-53 140.5q0 140 120.5 246.5t278.5 106.5q77 0 127.5 -29t81.5 -90q38 -74 65 -95.5t66 -21.5q34 0 67 20.5t66 63.5
zM608 1415q-28 0 -65 -29t-70 -79q-66 -99 -98.5 -177t-32.5 -141q0 -41 13.5 -59.5t43.5 -18.5t63.5 25t65.5 70q59 80 98.5 179.5t39.5 153.5q0 36 -15.5 56t-42.5 20z" />
    <glyph glyph-name="Omega" unicode="&#x3a9;" horiz-adv-x="1569" 
d="M1122 221h301l54 168h67l-117 -389h-516q111 218 167.5 434.5t56.5 423.5q0 278 -87.5 417.5t-261.5 139.5t-262 -139t-88 -416q0 -205 57 -421.5t169 -438.5h-519l-116 389h67l53 -168h302v23q-158 127 -240 283.5t-82 330.5q0 277 188 458t471 181q284 0 471 -180.5
t187 -458.5q0 -176 -82 -332t-240 -282v-23z" />
    <glyph glyph-name="ae" unicode="&#xe6;" horiz-adv-x="1450" 
d="M363 307q-4 -33 -5.5 -51t-1.5 -27q0 -94 41.5 -143t120.5 -49q122 0 279 126t329 363l9 -8q-190 -271 -381.5 -407t-382.5 -136q-126 0 -197.5 65t-71.5 177q0 8 1 20l3 37q-84 -138 -189.5 -216t-203.5 -78q-86 0 -140 59.5t-54 155.5q0 105 57.5 210.5t161.5 186.5
q83 66 178.5 102.5t181.5 36.5q76 0 119 -33.5t53 -101.5l41 102l291 19q33 10 64 15t61 5q83 0 130.5 -34.5t47.5 -94.5q0 -96 -122 -164.5t-420 -136.5zM367 324q156 34 251 128.5t95 209.5q0 24 -11.5 38.5t-29.5 14.5q-69 0 -163 -114t-142 -277zM141 713
q-48 0 -97.5 -36.5t-111.5 -117.5q-72 -96 -116.5 -204t-44.5 -181q0 -49 23 -77.5t63 -28.5q42 0 88 34.5t102 110.5q75 100 121.5 210t46.5 179q0 53 -19 82t-55 29z" />
    <glyph glyph-name="oslash" unicode="&#xf8;" horiz-adv-x="1100" 
d="M199 711l-408 -709q18 -5 26.5 -6.5t16.5 -1.5q45 0 95 35t98 100q36 49 68 106t59 121q39 91 58 156.5t19 108.5q0 36 -12 63t-20 27zM178 723q-9 3 -17 4.5t-16 1.5q-40 0 -97 -45t-109 -121q-92 -131 -139.5 -249.5t-47.5 -213.5q0 -31 5 -50.5t16 -32.5zM262 866
l19 -8l-68 -119q63 -16 105 -47.5t77 -91.5q4 -6 26.5 -51t45.5 -74q26 -31 57 -46t68 -15q50 0 95 28t93 90l13 -6q-53 -66 -101 -95.5t-104 -29.5q-55 0 -96.5 29t-77.5 94q3 -27 4.5 -44t1.5 -25q0 -87 -47.5 -179.5t-130.5 -166.5q-70 -61 -176 -97.5t-211 -36.5
q-17 0 -36 2t-38 5l-96 -168l-19 10l90 158q-97 14 -154 85t-57 179q0 97 43 186t125 162q83 74 188 115t212 41q20 0 57 -4l23 -3z" />
    <glyph glyph-name="questiondown" unicode="&#xbf;" 
d="M397 801l17 -8q-40 -61 -138 -128q-18 -12 -26 -18q-163 -112 -213.5 -187t-50.5 -171q0 -103 65.5 -175.5t157.5 -72.5q76 0 123 51t47 133q0 68 -33 110t-86 42q-45 0 -72.5 -33t-27.5 -88v-10h-14q-2 8 -2.5 16.5t-0.5 24.5q0 100 59.5 167.5t145.5 67.5
q74 0 121 -50.5t47 -129.5q0 -70 -39.5 -136.5t-114.5 -121.5q-65 -48 -145 -75t-158 -27q-140 0 -228.5 77.5t-88.5 198.5q0 120 88 204t332 179l2 1q176 67 233 159zM514 1081q56 0 96.5 -41t40.5 -96q0 -56 -40.5 -96.5t-96.5 -40.5q-58 0 -98.5 40t-40.5 97
q0 56 41 96.5t98 40.5z" />
    <glyph glyph-name="exclamdown" unicode="&#xa1;" horiz-adv-x="834" 
d="M201 825l20 -8q-47 -81 -92.5 -191.5t-85.5 -240.5l-35 -119q-42 -142 -61 -180q-26 -49 -62 -74.5t-78 -25.5q-55 0 -95 37.5t-40 91.5q0 90 183 276l47 47q100 102 172.5 196t126.5 191zM303 1110q56 0 96.5 -41t40.5 -96q0 -56 -40.5 -96.5t-96.5 -40.5
q-58 0 -98.5 40t-40.5 97q0 55 41.5 96t97.5 41z" />
    <glyph glyph-name="logicalnot" unicode="&#xac;" horiz-adv-x="1706" 
d="M1452 862v-502h-166v336h-1032v166h1198z" />
    <glyph glyph-name="radical" unicode="&#x221a;" horiz-adv-x="1323" 
d="M1325 1675v-110h-108l-594 -1606h-82l-316 872l-131 -49l-28 95l305 108l247 -688l510 1378h197z" />
    <glyph glyph-name="florin" unicode="&#x192;" horiz-adv-x="1176" 
d="M641 582l-4 -23h-272q-149 -280 -217.5 -394t-118.5 -173q-117 -136 -255 -211.5t-268 -75.5q-129 0 -208.5 62t-79.5 159q0 59 30 93t82 34q47 0 79 -29t32 -71q0 -37 -25.5 -61.5t-64.5 -24.5q-7 0 -19.5 3.5t-36.5 12.5q26 -71 73.5 -109t109.5 -38q139 0 278 173.5
t365 649.5h-227l10 23h229q174 352 345 513.5t368 161.5q94 0 151.5 -47.5t57.5 -124.5q0 -56 -32 -90t-83 -34q-48 0 -81.5 27.5t-33.5 66.5q0 38 27.5 65t67.5 27q6 0 19 -4t35 -12q-2 42 -37 70t-87 28q-98 0 -197 -130t-278 -517h266z" />
    <glyph glyph-name="approxequal" unicode="&#x2248;" horiz-adv-x="1706" 
d="M1530 406q-107 -73 -200 -106.5t-189 -33.5q-89 0 -279.5 66.5t-298.5 66.5q-84 0 -173.5 -36t-211.5 -121v184q112 75 206.5 110t180.5 35q118 0 309 -67.5t277 -67.5q83 0 172 36.5t207 119.5v-186zM1530 795q-109 -75 -201.5 -108.5t-187.5 -33.5q-88 0 -278.5 67.5
t-299.5 67.5q-82 0 -170 -35t-215 -122v184q109 73 205 109.5t182 36.5q120 0 310 -68t268 -68q92 0 181 35t206 119v-184z" />
    <glyph glyph-name="Delta" unicode="&#x2206;" horiz-adv-x="1350" 
d="M958 250l-380 899l-385 -899h765zM705 1497l641 -1497h-1340l651 1497h48z" />
    <glyph glyph-name="guillemotleft" unicode="&#xab;" 
d="M244 -12l-260 331l462 349l11 -15l-275 -334l74 -321zM-88 -12l-260 331l463 349l10 -15l-275 -334l74 -321z" />
    <glyph glyph-name="guillemotright" unicode="&#xbb;" 
d="M-225 668l260 -332l-463 -348l-8 14l272 334l-74 321zM106 668l261 -332l-463 -348l-8 14l272 334l-72 321z" />
    <glyph glyph-name="ellipsis" unicode="&#x2026;" horiz-adv-x="2048" 
d="M463 281q61 0 104 -44t43 -106q0 -61 -43 -104t-104 -43t-105.5 44t-44.5 103q0 61 44.5 105.5t105.5 44.5zM-221 281q62 0 105.5 -44t43.5 -106q0 -61 -43.5 -104t-105.5 -43q-60 0 -104 43.5t-44 103.5t44 105t104 45zM1145 281q61 0 104 -44t43 -106q0 -61 -43 -104
t-104 -43q-60 0 -104 43.5t-44 103.5q0 61 43.5 105.5t104.5 44.5z" />
    <glyph glyph-name="nonbreakingspace" unicode="&#xa0;" horiz-adv-x="1176" 
 />
    <glyph glyph-name="Agrave" unicode="&#xc0;" horiz-adv-x="1933" 
d="M1384 1280q-192 -101 -385 -265t-387 -390h260q90 160 205.5 306t311.5 337zM1720 1434l17 -23q-355 -375 -556.5 -718.5t-201.5 -559.5q0 -58 18 -86.5t56 -28.5q84 0 243 141t312 365l12 -8q-177 -259 -360.5 -406t-325.5 -147q-94 0 -147.5 56.5t-53.5 156.5
q0 88 34.5 201.5t96.5 230.5h-270q-303 -346 -512.5 -490.5t-398.5 -144.5q-127 0 -206 63t-79 161q0 72 40.5 118.5t102.5 46.5q47 0 77 -30.5t30 -79.5q0 -43 -21.5 -69.5t-56.5 -26.5q-2 0 -7 1t-7 1q9 -64 63 -99.5t141 -35.5q75 0 165.5 35t183.5 100q139 99 435 418
l77 83q320 347 567.5 517.5t531.5 257.5zM1571 1880h204q2 -36 2.5 -69t0.5 -68q0 -63 -3.5 -130.5t-10.5 -139.5l-21 -3q-31 118 -74.5 221t-97.5 189z" />
    <glyph glyph-name="Atilde" unicode="&#xc3;" horiz-adv-x="1933" 
d="M1384 1280q-192 -101 -385 -265t-387 -390h260q90 160 205.5 306t311.5 337zM1720 1434l17 -23q-355 -375 -556.5 -718.5t-201.5 -559.5q0 -58 18 -86.5t56 -28.5q84 0 243 141t312 365l12 -8q-177 -259 -360.5 -406t-325.5 -147q-94 0 -147.5 56.5t-53.5 156.5
q0 88 34.5 201.5t96.5 230.5h-270q-303 -346 -512.5 -490.5t-398.5 -144.5q-127 0 -206 63t-79 161q0 72 40.5 118.5t102.5 46.5q47 0 77 -30.5t30 -79.5q0 -43 -21.5 -69.5t-56.5 -26.5q-2 0 -7 1t-7 1q9 -64 63 -99.5t141 -35.5q75 0 165.5 35t183.5 100q139 99 435 418
l77 83q320 347 567.5 517.5t531.5 257.5zM2011 1786q-49 -147 -90 -193.5t-108 -46.5q-52 0 -155 45t-150 45q-43 0 -70.5 -27t-38.5 -79l-22 4q22 125 61.5 178t108.5 53q41 0 140.5 -40t156.5 -40q51 0 78.5 20.5t64.5 88.5z" />
    <glyph glyph-name="Otilde" unicode="&#xd5;" horiz-adv-x="1669" 
d="M913 422q22 -7 46 -9.5t57 -2.5q90 0 171.5 33.5t168.5 105.5l6 -14q-87 -75 -171 -109.5t-177 -34.5q-29 0 -58.5 3.5t-60.5 10.5q-163 -205 -357 -320.5t-372 -115.5q-168 0 -266.5 108.5t-98.5 295.5q0 197 115.5 397t319.5 356q108 84 224 134t236 65q52 49 107 73.5
t112 24.5q110 0 181 -95.5t71 -246.5q0 -143 -67 -319t-187 -340zM805 471q79 180 117.5 332.5t38.5 290.5t-37 208t-109 70q-22 0 -44 -11t-48 -36q73 0 115.5 -45t42.5 -123q0 -41 -11.5 -80.5t-35.5 -83.5l-13 4q23 44 34 82t11 70q0 77 -37.5 119.5t-105.5 42.5h-12
q-48 -71 -72.5 -167.5t-24.5 -215.5q0 -170 45.5 -278.5t145.5 -178.5zM684 1311q-99 -28 -192.5 -98t-180.5 -181q-107 -137 -173 -321.5t-66 -343.5q0 -154 71 -247t187 -93q112 0 244.5 118.5t222.5 307.5q-136 65 -207.5 177t-71.5 259q0 104 42 210.5t124 211.5z
M1302 1786q-49 -147 -90 -193.5t-108 -46.5q-52 0 -155 45t-150 45q-43 0 -70.5 -27t-38.5 -79l-22 4q22 125 61.5 178t108.5 53q41 0 140.5 -40t156.5 -40q51 0 78.5 20.5t64.5 88.5z" />
    <glyph glyph-name="OE" unicode="&#x152;" horiz-adv-x="2048" 
d="M909 807q-207 -79 -299 -181t-92 -249q0 -32 6 -69t19 -79q135 107 229 255t137 323zM922 1280q90 72 186 108.5t195 36.5q136 0 219.5 -62.5t83.5 -164.5q0 -121 -109.5 -203t-271.5 -82q-35 0 -67.5 5.5t-63.5 15.5l-2 16q24 -9 49 -13.5t51 -4.5q104 0 164.5 72.5
t60.5 197.5q0 84 -46.5 142.5t-113.5 58.5q-46 0 -89 -31.5t-74 -87.5q-44 -78 -80 -260q-15 -76 -25 -115q-50 -210 -158.5 -383.5t-277.5 -312.5q38 -93 134.5 -149t219.5 -56q170 0 280.5 107t110.5 268q0 87 -53 143t-133 56q-79 0 -142.5 -61t-99.5 -173l-16 -2
q43 150 146.5 240t232.5 90q114 0 188 -66.5t74 -169.5q0 -88 -62.5 -174t-179.5 -160q-115 -71 -248 -109t-270 -38q-121 0 -209.5 27.5t-156.5 85.5q-89 -53 -173 -80t-159 -27q-165 0 -268 116t-103 304q0 164 79.5 326t229.5 303q139 131 291.5 206.5t274.5 75.5
q87 0 135.5 -45t48.5 -127q0 -37 -12 -72t-37 -71l-10 6q24 41 35.5 74.5t11.5 64.5q0 69 -42.5 109.5t-115.5 40.5q-93 0 -195 -68.5t-200 -195.5q-107 -140 -168.5 -311.5t-61.5 -327.5q0 -168 65 -256t189 -88q45 0 87.5 13.5t86.5 41.5q-41 43 -61.5 92.5t-20.5 108.5
q0 94 48.5 170t148.5 139q33 21 95 52q121 60 159 124q42 72 62 226q8 61 14 89q8 44 23 76.5t38 59.5q-44 102 -124.5 157.5t-184.5 55.5q-130 0 -246.5 -61.5t-222.5 -186.5l-10 10q104 125 231 191.5t262 66.5q120 0 208 -43.5t145 -130.5z" />
    <glyph glyph-name="oe" unicode="&#x153;" horiz-adv-x="1479" 
d="M393 324q156 34 251 128.5t95 209.5q0 24 -11 38.5t-30 14.5q-68 0 -162 -114t-143 -277zM168 733q-41 0 -96.5 -44t-110.5 -122q-92 -133 -140 -252t-48 -213q0 -59 20.5 -86.5t63.5 -27.5q41 0 91 36.5t99 102.5q33 44 64.5 100t62.5 127q37 87 56.5 156t19.5 113
q0 52 -21.5 81t-60.5 29zM389 307q0 -7 -1 -18.5t-1 -16.5q0 -113 42.5 -170t127.5 -57q123 0 282.5 132t321.5 370l17 -10q-202 -280 -391.5 -422t-362.5 -142q-73 0 -129.5 26t-99.5 79q-70 -53 -156.5 -81t-179.5 -28q-139 0 -216 73t-77 204q0 98 42.5 187.5
t125.5 162.5q83 74 189 116t210 42q94 0 160.5 -31.5t103.5 -93.5q94 53 185.5 79.5t179.5 26.5q79 0 124.5 -34t45.5 -93q0 -96 -122 -164.5t-421 -136.5z" />
    <glyph glyph-name="endash" unicode="&#x2013;" 
d="M-242 491q131 -3 231.5 -4.5t174.5 -1.5q100 0 343 4h38l-103 -157q-100 1 -217.5 2.5t-132.5 1.5q-167 0 -260.5 -0.5t-179.5 -1.5z" />
    <glyph glyph-name="emdash" unicode="&#x2014;" horiz-adv-x="2048" 
d="M-315 496h2003l-99 -160h-2003z" />
    <glyph glyph-name="quotedblleft" unicode="&#x201c;" horiz-adv-x="883" 
d="M778 1309l-2 -17q-183 -9 -296.5 -95.5t-117.5 -215.5q12 15 29.5 23t38.5 8q44 0 71 -29t27 -76q0 -59 -39 -97t-100 -38q-65 0 -107 48t-42 122q0 147 150 252t388 115zM352 1309l-2 -17q-183 -9 -296.5 -95t-116.5 -216q13 16 29.5 23.5t35.5 7.5q44 0 71 -29t27 -76
q0 -59 -39 -97t-100 -38q-65 0 -106 47.5t-41 122.5q0 147 150 252t388 115z" />
    <glyph glyph-name="quotedblright" unicode="&#x201d;" horiz-adv-x="883" 
d="M109 737l2 17q183 9 296.5 95t116.5 215q-12 -14 -29 -22t-38 -8q-44 0 -71.5 28.5t-27.5 74.5q0 59 39.5 98t100.5 39q65 0 107 -48t42 -122q0 -147 -150.5 -252t-387.5 -115zM-317 739v17q183 9 296.5 95t116.5 216q-14 -16 -29.5 -23.5t-35.5 -7.5q-44 0 -71.5 28.5
t-27.5 74.5q0 58 40 97.5t100 39.5q65 0 107 -48t42 -122q0 -147 -150.5 -252t-387.5 -115z" />
    <glyph glyph-name="quoteleft" unicode="&#x2018;" horiz-adv-x="455" 
d="M352 1309l-2 -17q-183 -9 -296.5 -95t-116.5 -216q13 16 29.5 23.5t35.5 7.5q44 0 71 -29t27 -76q0 -59 -39 -97t-100 -38q-65 0 -106 47.5t-41 122.5q0 147 150 252t388 115z" />
    <glyph glyph-name="quoteright" unicode="&#x2019;" horiz-adv-x="455" 
d="M-317 739v17q183 9 296.5 95t116.5 216q-14 -16 -29.5 -23.5t-35.5 -7.5q-44 0 -71.5 28.5t-27.5 74.5q0 58 40 97.5t100 39.5q65 0 107 -48t42 -122q0 -147 -150.5 -252t-387.5 -115z" />
    <glyph glyph-name="divide" unicode="&#xf7;" horiz-adv-x="1706" 
d="M854 367q57 0 97 -40.5t40 -97.5q0 -56 -39.5 -95.5t-97.5 -39.5t-97.5 39t-39.5 96t40.5 97.5t96.5 40.5zM1452 694v-166h-1198v166h1198zM854 1128q57 0 97 -41t40 -98q0 -56 -39.5 -95.5t-97.5 -39.5t-97.5 39t-39.5 96t40.5 98t96.5 41z" />
    <glyph glyph-name="lozenge" unicode="&#x25ca;" horiz-adv-x="1012" 
d="M506 1409l-385 -817l385 -825l385 825zM506 1653l500 -1061l-500 -1069l-500 1069z" />
    <glyph glyph-name="ydieresis" unicode="&#xff;" horiz-adv-x="1096" 
d="M567 713l-395 -678q153 59 302 182t294 309l12 -6q-144 -192 -301 -321t-319 -187q-168 -314 -406.5 -474.5t-537.5 -160.5q-180 0 -286 75t-106 200q0 111 95.5 177.5t257.5 66.5q32 0 64 -3.5t65 -9.5l-3 -14q-10 1 -21.5 1.5t-29.5 0.5q-92 0 -146 -60t-54 -163
q0 -107 64.5 -177.5t160.5 -70.5q94 0 190.5 62t198.5 190q46 57 187.5 274l220.5 334l-15 10q-106 -141 -210.5 -217t-192.5 -76q-72 0 -113 44t-41 120q0 51 22.5 111t86.5 170l162 280l276 11l-252 -412q-40 -64 -64 -122.5t-24 -86.5q0 -22 13 -37.5t32 -15.5
q77 0 192.5 120.5t223.5 319.5l121 223zM531 1128q43 0 75.5 -32t32.5 -74q0 -47 -31 -79t-77 -32q-45 0 -76 32.5t-31 78.5q0 41 32.5 73.5t74.5 32.5zM133 1128q44 0 76.5 -32t32.5 -74q0 -47 -31 -79t-78 -32q-44 0 -75 32.5t-31 78.5q0 41 32.5 73.5t73.5 32.5z" />
    <glyph glyph-name="Ydieresis" unicode="&#x178;" horiz-adv-x="1741" 
d="M1333 1350h285q-237 -347 -543.5 -851.5t-408.5 -635.5q-182 -234 -397.5 -351.5t-461.5 -117.5q-191 0 -303 77.5t-112 209.5q0 112 87.5 178.5t235.5 66.5q46 0 92.5 -9.5t100.5 -29.5l-4 -12q-35 9 -57 12.5t-37 3.5q-80 0 -133.5 -67.5t-53.5 -169.5q0 -108 64 -175
t168 -67q97 0 203.5 65.5t203.5 186.5q111 137 431 626l50 77l-8 6q-147 -184 -312 -290t-298 -106q-80 0 -126 47t-46 130q0 122 226 473l24 37l59 90q248 379 248 508q0 51 -41 87.5t-98 36.5q-70 0 -142 -34t-133 -97q-69 -70 -110 -164.5t-41 -181.5q0 -74 32 -117.5
t86 -43.5q56 0 112 49t99 137h15q-42 -100 -124 -166t-161 -66q-78 0 -124 51t-46 136q0 93 50 184.5t143 169.5q101 86 209 130t219 44q122 0 196 -62t74 -165q0 -131 -273 -549l-59 -90q-119 -186 -165 -280t-46 -148q0 -36 24 -59t62 -23q56 0 153.5 62.5t201.5 166.5
q105 106 274 362t436 718zM1495 1769q43 0 75.5 -32t32.5 -74q0 -47 -31 -79t-77 -32q-45 0 -76 32.5t-31 78.5q0 41 32.5 73.5t74.5 32.5zM1097 1769q44 0 76.5 -32t32.5 -74q0 -47 -31 -79t-78 -32q-44 0 -75 32.5t-31 78.5q0 41 32.5 73.5t73.5 32.5z" />
    <glyph glyph-name="fraction" unicode="&#x2215;" horiz-adv-x="342" 
d="M522 1176l-534.5 -628.5l-493.5 -594.5l-160 -8l531.5 618l501.5 606z" />
    <glyph glyph-name="currency" unicode="&#xa4;" horiz-adv-x="1241" 
d="M913 885q0 119 -85.5 205t-204.5 86q-120 0 -205.5 -86t-85.5 -205q0 -120 84.5 -204.5t206.5 -84.5q121 0 205.5 84.5t84.5 204.5zM371 1227q55 41 117 61.5t133 20.5t134 -20.5t117 -61.5l203 203l94 -93l-204 -204q39 -54 59 -116.5t20 -131.5q0 -70 -20 -132.5
t-59 -115.5l204 -205l-94 -92l-203 205q-57 -42 -118 -62t-131 -20q-72 0 -135 20.5t-117 61.5l-203 -205l-92 92l203 205q-40 53 -60 115.5t-20 132.5q0 69 20 131.5t60 116.5l-203 204l92 93z" />
    <glyph glyph-name="guilsinglleft" unicode="&#x2039;" horiz-adv-x="682" 
d="M-88 -12l-260 331l463 349l10 -15l-275 -334l74 -321z" />
    <glyph glyph-name="guilsinglright" unicode="&#x203a;" horiz-adv-x="682" 
d="M-203 668l260 -332l-463 -348l-8 14l273 334l-72 321z" />
    <glyph glyph-name="fi" unicode="&#xf001;" horiz-adv-x="1118" 
d="M575 713q-195 -317 -260 -442t-65 -175q0 -28 14.5 -43.5t40.5 -15.5q67 0 204 135.5t288 357.5l10 -8q-176 -263 -330.5 -401.5t-271.5 -138.5q-71 0 -112.5 46.5t-41.5 127.5q0 50 22.5 118.5t61.5 135.5l148 249h-293l-215 -426q-230 -455 -479.5 -654.5
t-579.5 -199.5q-175 0 -276 71.5t-101 193.5q0 117 92.5 187.5t249.5 70.5q37 0 66.5 -2.5t56.5 -8.5l-3 -16q-5 1 -12 1.5t-20 0.5q-86 0 -144.5 -66.5t-58.5 -164.5q0 -108 63 -176t163 -68q148 0 301 155t323 478l328 624h-170l23 23h161q163 329 378 511.5t435 182.5
q107 0 165.5 -52.5t58.5 -149.5q0 -69 -42 -113.5t-106 -44.5q-58 0 -95.5 37t-37.5 94q0 53 35 90t86 37q11 0 26.5 -2t32.5 -6q-2 40 -37.5 65t-91.5 25q-115 0 -245 -155t-316 -519h258q37 0 121 8t192 23z" />
    <glyph glyph-name="fl" unicode="&#xf002;" horiz-adv-x="1114" 
d="M4 678h293l319 553q-12 40 -35 60t-57 20q-110 0 -234.5 -151t-285.5 -482zM958 1382l-610 -1050q-54 -95 -76 -151t-22 -97q0 -23 15.5 -39t37.5 -16q65 0 203 138t293 365l14 -6q-189 -277 -336 -410.5t-262 -133.5q-75 0 -119.5 44t-44.5 119q0 63 32.5 148.5
t98.5 193.5l101 166h-293l-215 -420q-236 -460 -482.5 -657t-576.5 -197q-175 0 -276 71.5t-101 193.5q0 117 92.5 187.5t249.5 70.5q37 0 66.5 -2.5t56.5 -8.5l-3 -16q-5 1 -12 1.5t-20 0.5q-86 0 -144.5 -66.5t-58.5 -164.5q0 -108 63 -176t163 -68q148 0 299 153t325 480
l328 618h-170l23 25h161q153 310 345 490t366 180q69 0 111.5 -24.5t56.5 -72.5l65 117z" />
    <glyph glyph-name="daggerdbl" unicode="&#x2021;" 
d="M-174 -68l135 394q11 30 34.5 48.5t51.5 18.5q43 0 74 -25t31 -59q0 -16 -7 -32.5t-20 -30.5l-281 -322zM489 459l-12 -23h-784l12 23h784zM121 506l108 344q10 30 35.5 50t54.5 20q40 0 66.5 -25.5t26.5 -63.5q0 -15 -5.5 -29t-17.5 -28l-254 -278zM795 985l-13 -24
h-784l12 24h785zM414 1036l114 361q10 28 36.5 47.5t56.5 19.5q40 0 68 -24.5t28 -61.5q0 -17 -6 -32t-19 -29l-264 -289z" />
    <glyph glyph-name="periodcentered" unicode="&#xb7;" horiz-adv-x="588" 
d="M-102 666q55 0 95 -40t40 -96q0 -54 -40.5 -93.5t-94.5 -39.5t-94 40t-40 93q0 55 39.5 95.5t94.5 40.5z" />
    <glyph glyph-name="quotesinglbase" unicode="&#x201a;" horiz-adv-x="455" 
d="M-655 -279l2 17q182 9 296 95.5t117 215.5q-12 -16 -28.5 -23.5t-38.5 -7.5q-43 0 -69.5 28.5t-26.5 74.5q0 58 39.5 97.5t99.5 39.5q65 0 106 -47t41 -123q0 -147 -150.5 -251.5t-387.5 -115.5z" />
    <glyph glyph-name="quotedblbase" unicode="&#x201e;" horiz-adv-x="883" 
d="M-227 -279v17q183 9 296.5 95t116.5 216q-12 -16 -28 -23.5t-37 -7.5q-44 0 -71 28.5t-27 74.5q0 59 39 98t100 39q65 0 107 -47.5t42 -122.5q0 -147 -150.5 -251.5t-387.5 -115.5zM-655 -279l2 17q182 9 296 95.5t117 215.5q-12 -16 -28.5 -23.5t-38.5 -7.5
q-43 0 -69.5 28.5t-26.5 74.5q0 58 39.5 97.5t99.5 39.5q65 0 106 -47t41 -123q0 -147 -150.5 -251.5t-387.5 -115.5z" />
    <glyph glyph-name="perthousand" unicode="&#x2030;" horiz-adv-x="2632" 
d="M1919 487q0 40 -16.5 61t-47.5 21q-33 0 -80 -35t-94 -96q-67 -86 -111 -190.5t-44 -163.5q0 -39 17 -60.5t48 -21.5q32 0 73.5 27t78.5 73q74 93 125 209t51 176zM1147 487q0 40 -16.5 61t-47.5 21q-33 0 -80 -35t-94 -96q-66 -86 -109.5 -190t-43.5 -164
q0 -40 16.5 -61t46.5 -21q32 0 73.5 27t78.5 73q74 93 125 209t51 176zM1827 592q109 0 175 -60.5t66 -158.5q0 -78 -45.5 -157t-126.5 -140q-60 -46 -134 -71t-150 -25q-110 0 -171 56t-61 157q0 74 37 147t105 131q62 56 145 88.5t160 32.5zM1055 592q109 0 175 -60.5
t66 -158.5q0 -78 -45.5 -157t-126.5 -140q-60 -47 -133 -71.5t-149 -24.5q-110 0 -171 56t-61 157q0 75 36.5 147.5t103.5 130.5q62 56 145 88.5t160 32.5zM928 944l-862 -1067l-17 12l717 994q-42 -30 -82 -45t-78 -15q-36 0 -70 12t-65 35q5 -22 6.5 -34t1.5 -23
q0 -61 -38.5 -132t-104.5 -132q-63 -58 -144 -89.5t-167 -31.5q-111 0 -172.5 55.5t-61.5 155.5q0 74 37 147t104 132q64 56 147.5 89t160.5 33q70 0 128.5 -29t94.5 -81q39 -56 69.5 -75t73.5 -19q48 0 97 24t88 68q24 27 60 80q56 82 93 82q20 0 32.5 -13t12.5 -33
q0 -14 -12.5 -35t-48.5 -65zM330 936q0 40 -16.5 61t-47.5 21q-33 0 -79.5 -35.5t-94.5 -97.5q-68 -89 -111.5 -192.5t-43.5 -168.5q0 -34 18 -54.5t47 -20.5q31 0 72.5 27.5t79.5 74.5q74 92 125 208t51 177z" />
    <glyph glyph-name="Acircumflex" unicode="&#xc2;" horiz-adv-x="1933" 
d="M1384 1280q-192 -101 -385 -265t-387 -390h260q90 160 205.5 306t311.5 337zM1720 1434l17 -23q-355 -375 -556.5 -718.5t-201.5 -559.5q0 -58 18 -86.5t56 -28.5q84 0 243 141t312 365l12 -8q-177 -259 -360.5 -406t-325.5 -147q-94 0 -147.5 56.5t-53.5 156.5
q0 88 34.5 201.5t96.5 230.5h-270q-303 -346 -512.5 -490.5t-398.5 -144.5q-127 0 -206 63t-79 161q0 72 40.5 118.5t102.5 46.5q47 0 77 -30.5t30 -79.5q0 -43 -21.5 -69.5t-56.5 -26.5q-2 0 -7 1t-7 1q9 -64 63 -99.5t141 -35.5q75 0 165.5 35t183.5 100q139 99 435 418
l77 83q320 347 567.5 517.5t531.5 257.5zM1913 1925q-24 -52 -35.5 -97t-11.5 -89q0 -73 25 -132t73 -98l-4 -14q-114 27 -176 94t-63 164l-173.5 -132.5l-170.5 -141.5l-13 14l398 430z" />
    <glyph glyph-name="Ecircumflex" unicode="&#xca;" horiz-adv-x="1442" 
d="M485 936l5 14q25 -11 53.5 -16.5t60.5 -5.5q99 0 159 72t60 190q0 94 -46 150.5t-124 56.5q-58 0 -110.5 -43.5t-81.5 -116.5q-21 -54 -37 -172.5t-41 -171.5q-30 -65 -163 -139q-56 -31 -85 -49q-82 -54 -131 -146.5t-49 -196.5q0 -157 100.5 -260.5t253.5 -103.5
q148 0 251.5 105.5t103.5 252.5q0 99 -51.5 158t-135.5 59q-79 0 -153.5 -59t-128.5 -166l-15 6q71 140 190 219.5t253 79.5q109 0 176 -61.5t67 -161.5q0 -94 -57.5 -177t-173.5 -157q-108 -68 -233 -102.5t-261 -34.5q-207 0 -329.5 89.5t-122.5 236.5q0 107 68.5 190
t232.5 168q7 4 21 10q93 46 110 119q6 25 19 112.5t30 145.5q16 57 42.5 108t61.5 93q71 84 195 137t248 53q137 0 219 -62.5t82 -166.5q0 -121 -110.5 -202t-274.5 -81q-39 0 -75 6.5t-73 20.5zM960 1925q-24 -52 -35.5 -97t-11.5 -89q0 -73 25 -132t73 -98l-4 -14
q-114 27 -176 94t-63 164l-173.5 -132.5l-170.5 -141.5l-13 14l398 430z" />
    <glyph glyph-name="Aacute" unicode="&#xc1;" horiz-adv-x="1933" 
d="M1384 1280q-192 -101 -385 -265t-387 -390h260q90 160 205.5 306t311.5 337zM1720 1434l17 -23q-355 -375 -556.5 -718.5t-201.5 -559.5q0 -58 18 -86.5t56 -28.5q84 0 243 141t312 365l12 -8q-177 -259 -360.5 -406t-325.5 -147q-94 0 -147.5 56.5t-53.5 156.5
q0 88 34.5 201.5t96.5 230.5h-270q-303 -346 -512.5 -490.5t-398.5 -144.5q-127 0 -206 63t-79 161q0 72 40.5 118.5t102.5 46.5q47 0 77 -30.5t30 -79.5q0 -43 -21.5 -69.5t-56.5 -26.5q-2 0 -7 1t-7 1q9 -64 63 -99.5t141 -35.5q75 0 165.5 35t183.5 100q139 99 435 418
l77 83q320 347 567.5 517.5t531.5 257.5zM2073 1855l-255.5 -199.5l-221.5 -185.5l-19 5l107.5 190t115.5 186z" />
    <glyph glyph-name="Edieresis" unicode="&#xcb;" horiz-adv-x="1442" 
d="M485 936l5 14q25 -11 53.5 -16.5t60.5 -5.5q99 0 159 72t60 190q0 94 -46 150.5t-124 56.5q-58 0 -110.5 -43.5t-81.5 -116.5q-21 -54 -37 -172.5t-41 -171.5q-30 -65 -163 -139q-56 -31 -85 -49q-82 -54 -131 -146.5t-49 -196.5q0 -157 100.5 -260.5t253.5 -103.5
q148 0 251.5 105.5t103.5 252.5q0 99 -51.5 158t-135.5 59q-79 0 -153.5 -59t-128.5 -166l-15 6q71 140 190 219.5t253 79.5q109 0 176 -61.5t67 -161.5q0 -94 -57.5 -177t-173.5 -157q-108 -68 -233 -102.5t-261 -34.5q-207 0 -329.5 89.5t-122.5 236.5q0 107 68.5 190
t232.5 168q7 4 21 10q93 46 110 119q6 25 19 112.5t30 145.5q16 57 42.5 108t61.5 93q71 84 195 137t248 53q137 0 219 -62.5t82 -166.5q0 -121 -110.5 -202t-274.5 -81q-39 0 -75 6.5t-73 20.5zM979 1769q43 0 75.5 -32t32.5 -74q0 -47 -31 -79t-77 -32q-45 0 -76 32.5
t-31 78.5q0 41 32.5 73.5t74.5 32.5zM581 1769q44 0 76.5 -32t32.5 -74q0 -47 -31 -79t-78 -32q-44 0 -75 32.5t-31 78.5q0 41 32.5 73.5t73.5 32.5z" />
    <glyph glyph-name="Egrave" unicode="&#xc8;" horiz-adv-x="1442" 
d="M485 936l5 14q25 -11 53.5 -16.5t60.5 -5.5q99 0 159 72t60 190q0 94 -46 150.5t-124 56.5q-58 0 -110.5 -43.5t-81.5 -116.5q-21 -54 -37 -172.5t-41 -171.5q-30 -65 -163 -139q-56 -31 -85 -49q-82 -54 -131 -146.5t-49 -196.5q0 -157 100.5 -260.5t253.5 -103.5
q148 0 251.5 105.5t103.5 252.5q0 99 -51.5 158t-135.5 59q-79 0 -153.5 -59t-128.5 -166l-15 6q71 140 190 219.5t253 79.5q109 0 176 -61.5t67 -161.5q0 -94 -57.5 -177t-173.5 -157q-108 -68 -233 -102.5t-261 -34.5q-207 0 -329.5 89.5t-122.5 236.5q0 107 68.5 190
t232.5 168q7 4 21 10q93 46 110 119q6 25 19 112.5t30 145.5q16 57 42.5 108t61.5 93q71 84 195 137t248 53q137 0 219 -62.5t82 -166.5q0 -121 -110.5 -202t-274.5 -81q-39 0 -75 6.5t-73 20.5zM618 1880h204q2 -36 2.5 -69t0.5 -68q0 -63 -3.5 -130.5t-10.5 -139.5l-21 -3
q-31 118 -74.5 221t-97.5 189z" />
    <glyph glyph-name="Iacute" unicode="&#xcd;" horiz-adv-x="1479" 
d="M1550 1348q-128 -25 -240.5 -128t-228.5 -302l-87 -154q-262 -463 -451 -606q-115 -87 -267.5 -140t-283.5 -53q-203 0 -323 77t-120 204q0 65 39.5 108t98.5 43q54 0 86 -31.5t32 -84.5q0 -39 -21 -68t-54 -37q-1 -5 -1.5 -11.5t-0.5 -14.5q0 -71 69 -118.5t176 -47.5
q96 0 185.5 41.5t173.5 126.5q110 110 269 399q80 146 126 219q150 236 326.5 368.5t441.5 209.5h-33q-603 0 -954.5 -154t-351.5 -412q0 -83 51.5 -137.5t132.5 -54.5q100 0 176 74.5t76 173.5q0 39 -12.5 75t-36.5 68l10 8q27 -32 41 -70t14 -81q0 -127 -112 -222.5
t-267 -95.5q-125 0 -205.5 71t-80.5 179q0 262 353 420t986 174h143q69 0 95 2t43 6q16 4 48 13q99 26 140 26q28 0 43.5 -9.5t15.5 -25.5q0 -20 -21 -32.5t-56 -12.5q-20 0 -62 4t-121 13zM1505 1855l-255.5 -199.5l-221.5 -185.5l-19 5l107.5 190t115.5 186z" />
    <glyph glyph-name="Icircumflex" unicode="&#xce;" horiz-adv-x="1479" 
d="M1550 1348q-128 -25 -240.5 -128t-228.5 -302l-87 -154q-262 -463 -451 -606q-115 -87 -267.5 -140t-283.5 -53q-203 0 -323 77t-120 204q0 65 39.5 108t98.5 43q54 0 86 -31.5t32 -84.5q0 -39 -21 -68t-54 -37q-1 -5 -1.5 -11.5t-0.5 -14.5q0 -71 69 -118.5t176 -47.5
q96 0 185.5 41.5t173.5 126.5q110 110 269 399q80 146 126 219q150 236 326.5 368.5t441.5 209.5h-33q-603 0 -954.5 -154t-351.5 -412q0 -83 51.5 -137.5t132.5 -54.5q100 0 176 74.5t76 173.5q0 39 -12.5 75t-36.5 68l10 8q27 -32 41 -70t14 -81q0 -127 -112 -222.5
t-267 -95.5q-125 0 -205.5 71t-80.5 179q0 262 353 420t986 174h143q69 0 95 2t43 6q16 4 48 13q99 26 140 26q28 0 43.5 -9.5t15.5 -25.5q0 -20 -21 -32.5t-56 -12.5q-20 0 -62 4t-121 13zM1345 1925q-24 -52 -35.5 -97t-11.5 -89q0 -73 25 -132t73 -98l-4 -14
q-114 27 -176 94t-63 164l-173.5 -132.5l-170.5 -141.5l-13 14l398 430z" />
    <glyph glyph-name="Idieresis" unicode="&#xcf;" horiz-adv-x="1479" 
d="M1550 1348q-128 -25 -240.5 -128t-228.5 -302l-87 -154q-262 -463 -451 -606q-115 -87 -267.5 -140t-283.5 -53q-203 0 -323 77t-120 204q0 65 39.5 108t98.5 43q54 0 86 -31.5t32 -84.5q0 -39 -21 -68t-54 -37q-1 -5 -1.5 -11.5t-0.5 -14.5q0 -71 69 -118.5t176 -47.5
q96 0 185.5 41.5t173.5 126.5q110 110 269 399q80 146 126 219q150 236 326.5 368.5t441.5 209.5h-33q-603 0 -954.5 -154t-351.5 -412q0 -83 51.5 -137.5t132.5 -54.5q100 0 176 74.5t76 173.5q0 39 -12.5 75t-36.5 68l10 8q27 -32 41 -70t14 -81q0 -127 -112 -222.5
t-267 -95.5q-125 0 -205.5 71t-80.5 179q0 262 353 420t986 174h143q69 0 95 2t43 6q16 4 48 13q99 26 140 26q28 0 43.5 -9.5t15.5 -25.5q0 -20 -21 -32.5t-56 -12.5q-20 0 -62 4t-121 13zM1364 1769q43 0 75.5 -32t32.5 -74q0 -47 -31 -79t-77 -32q-45 0 -76 32.5
t-31 78.5q0 41 32.5 73.5t74.5 32.5zM966 1769q44 0 76.5 -32t32.5 -74q0 -47 -31 -79t-78 -32q-44 0 -75 32.5t-31 78.5q0 41 32.5 73.5t73.5 32.5z" />
    <glyph glyph-name="Igrave" unicode="&#xcc;" horiz-adv-x="1479" 
d="M1550 1348q-128 -25 -240.5 -128t-228.5 -302l-87 -154q-262 -463 -451 -606q-115 -87 -267.5 -140t-283.5 -53q-203 0 -323 77t-120 204q0 65 39.5 108t98.5 43q54 0 86 -31.5t32 -84.5q0 -39 -21 -68t-54 -37q-1 -5 -1.5 -11.5t-0.5 -14.5q0 -71 69 -118.5t176 -47.5
q96 0 185.5 41.5t173.5 126.5q110 110 269 399q80 146 126 219q150 236 326.5 368.5t441.5 209.5h-33q-603 0 -954.5 -154t-351.5 -412q0 -83 51.5 -137.5t132.5 -54.5q100 0 176 74.5t76 173.5q0 39 -12.5 75t-36.5 68l10 8q27 -32 41 -70t14 -81q0 -127 -112 -222.5
t-267 -95.5q-125 0 -205.5 71t-80.5 179q0 262 353 420t986 174h143q69 0 95 2t43 6q16 4 48 13q99 26 140 26q28 0 43.5 -9.5t15.5 -25.5q0 -20 -21 -32.5t-56 -12.5q-20 0 -62 4t-121 13zM1003 1880h204q2 -36 2.5 -69t0.5 -68q0 -63 -3.5 -130.5t-10.5 -139.5l-21 -3
q-31 118 -74.5 221t-97.5 189z" />
    <glyph glyph-name="Oacute" unicode="&#xd3;" horiz-adv-x="1669" 
d="M913 422q22 -7 46 -9.5t57 -2.5q90 0 171.5 33.5t168.5 105.5l6 -14q-87 -75 -171 -109.5t-177 -34.5q-29 0 -58.5 3.5t-60.5 10.5q-163 -205 -357 -320.5t-372 -115.5q-168 0 -266.5 108.5t-98.5 295.5q0 197 115.5 397t319.5 356q108 84 224 134t236 65q52 49 107 73.5
t112 24.5q110 0 181 -95.5t71 -246.5q0 -143 -67 -319t-187 -340zM805 471q79 180 117.5 332.5t38.5 290.5t-37 208t-109 70q-22 0 -44 -11t-48 -36q73 0 115.5 -45t42.5 -123q0 -41 -11.5 -80.5t-35.5 -83.5l-13 4q23 44 34 82t11 70q0 77 -37.5 119.5t-105.5 42.5h-12
q-48 -71 -72.5 -167.5t-24.5 -215.5q0 -170 45.5 -278.5t145.5 -178.5zM684 1311q-99 -28 -192.5 -98t-180.5 -181q-107 -137 -173 -321.5t-66 -343.5q0 -154 71 -247t187 -93q112 0 244.5 118.5t222.5 307.5q-136 65 -207.5 177t-71.5 259q0 104 42 210.5t124 211.5z
M1364 1855l-255.5 -199.5l-221.5 -185.5l-19 5l107.5 190t115.5 186z" />
    <glyph glyph-name="Ocircumflex" unicode="&#xd4;" horiz-adv-x="1669" 
d="M913 422q22 -7 46 -9.5t57 -2.5q90 0 171.5 33.5t168.5 105.5l6 -14q-87 -75 -171 -109.5t-177 -34.5q-29 0 -58.5 3.5t-60.5 10.5q-163 -205 -357 -320.5t-372 -115.5q-168 0 -266.5 108.5t-98.5 295.5q0 197 115.5 397t319.5 356q108 84 224 134t236 65q52 49 107 73.5
t112 24.5q110 0 181 -95.5t71 -246.5q0 -143 -67 -319t-187 -340zM805 471q79 180 117.5 332.5t38.5 290.5t-37 208t-109 70q-22 0 -44 -11t-48 -36q73 0 115.5 -45t42.5 -123q0 -41 -11.5 -80.5t-35.5 -83.5l-13 4q23 44 34 82t11 70q0 77 -37.5 119.5t-105.5 42.5h-12
q-48 -71 -72.5 -167.5t-24.5 -215.5q0 -170 45.5 -278.5t145.5 -178.5zM684 1311q-99 -28 -192.5 -98t-180.5 -181q-107 -137 -173 -321.5t-66 -343.5q0 -154 71 -247t187 -93q112 0 244.5 118.5t222.5 307.5q-136 65 -207.5 177t-71.5 259q0 104 42 210.5t124 211.5z
M1204 1925q-24 -52 -35.5 -97t-11.5 -89q0 -73 25 -132t73 -98l-4 -14q-114 27 -176 94t-63 164l-173.5 -132.5l-170.5 -141.5l-13 14l398 430z" />
    <glyph glyph-name="apple" unicode="&#xf000;" horiz-adv-x="1618" 
d="M836 1216q-1 6 -1.5 14t-0.5 23q0 124 95 229.5t236 131.5q1 -10 1.5 -23t0.5 -39q0 -131 -103.5 -234.5t-203.5 -103.5h-8q-3 0 -7.5 1t-8.5 1zM1505 403q-114 -247 -205 -342.5t-204 -95.5q-50 0 -131.5 33t-122.5 33q-45 0 -131 -33t-127 -33q-64 0 -128.5 44
t-129.5 132q-102 140 -157.5 295.5t-55.5 300.5q0 219 125 356.5t323 137.5q68 0 155 -34t124 -34q34 0 121.5 35t152.5 35q110 0 198 -40t161 -124q-102 -65 -151.5 -145.5t-49.5 -182.5q0 -113 60 -200t173 -138z" />
    <glyph glyph-name="Ograve" unicode="&#xd2;" horiz-adv-x="1669" 
d="M913 422q22 -7 46 -9.5t57 -2.5q90 0 171.5 33.5t168.5 105.5l6 -14q-87 -75 -171 -109.5t-177 -34.5q-29 0 -58.5 3.5t-60.5 10.5q-163 -205 -357 -320.5t-372 -115.5q-168 0 -266.5 108.5t-98.5 295.5q0 197 115.5 397t319.5 356q108 84 224 134t236 65q52 49 107 73.5
t112 24.5q110 0 181 -95.5t71 -246.5q0 -143 -67 -319t-187 -340zM805 471q79 180 117.5 332.5t38.5 290.5t-37 208t-109 70q-22 0 -44 -11t-48 -36q73 0 115.5 -45t42.5 -123q0 -41 -11.5 -80.5t-35.5 -83.5l-13 4q23 44 34 82t11 70q0 77 -37.5 119.5t-105.5 42.5h-12
q-48 -71 -72.5 -167.5t-24.5 -215.5q0 -170 45.5 -278.5t145.5 -178.5zM684 1311q-99 -28 -192.5 -98t-180.5 -181q-107 -137 -173 -321.5t-66 -343.5q0 -154 71 -247t187 -93q112 0 244.5 118.5t222.5 307.5q-136 65 -207.5 177t-71.5 259q0 104 42 210.5t124 211.5z
M862 1880h204q2 -36 2.5 -69t0.5 -68q0 -63 -3.5 -130.5t-10.5 -139.5l-21 -3q-31 118 -74.5 221t-97.5 189z" />
    <glyph glyph-name="Uacute" unicode="&#xda;" horiz-adv-x="1933" 
d="M1354 1350h278q-402 -612 -558 -887.5t-156 -364.5q0 -42 21.5 -66t59.5 -24q100 0 275 143.5t338 372.5l10 -10q-181 -257 -374.5 -404t-348.5 -147q-97 0 -151 50t-54 141q0 39 15 87.5t45 106.5l-9 6q-159 -181 -315 -279t-285 -98q-79 0 -125.5 46.5t-46.5 126.5
q0 142 233 489l77 115q138 211 192.5 320.5t54.5 172.5q0 64 -39.5 100.5t-109.5 36.5q-67 0 -139 -35.5t-138 -101.5q-68 -70 -105.5 -157.5t-37.5 -176.5q0 -75 33 -120t86 -45q60 0 119 51.5t100 140.5l10 -4q-44 -104 -124 -166.5t-167 -62.5q-76 0 -122 49.5t-46 134.5
q0 92 61 194.5t165 184.5q88 70 192.5 108.5t206.5 38.5q127 0 198.5 -59t71.5 -164q0 -131 -292 -583l-27 -42q-144 -224 -182.5 -308t-38.5 -140q0 -38 21 -61t57 -23q55 0 151 61t203 166q168 166 531 776zM1495 1855l-255.5 -199.5l-221.5 -185.5l-19 5l107.5 190
t115.5 186z" />
    <glyph glyph-name="Ucircumflex" unicode="&#xdb;" horiz-adv-x="1933" 
d="M1354 1350h278q-402 -612 -558 -887.5t-156 -364.5q0 -42 21.5 -66t59.5 -24q100 0 275 143.5t338 372.5l10 -10q-181 -257 -374.5 -404t-348.5 -147q-97 0 -151 50t-54 141q0 39 15 87.5t45 106.5l-9 6q-159 -181 -315 -279t-285 -98q-79 0 -125.5 46.5t-46.5 126.5
q0 142 233 489l77 115q138 211 192.5 320.5t54.5 172.5q0 64 -39.5 100.5t-109.5 36.5q-67 0 -139 -35.5t-138 -101.5q-68 -70 -105.5 -157.5t-37.5 -176.5q0 -75 33 -120t86 -45q60 0 119 51.5t100 140.5l10 -4q-44 -104 -124 -166.5t-167 -62.5q-76 0 -122 49.5t-46 134.5
q0 92 61 194.5t165 184.5q88 70 192.5 108.5t206.5 38.5q127 0 198.5 -59t71.5 -164q0 -131 -292 -583l-27 -42q-144 -224 -182.5 -308t-38.5 -140q0 -38 21 -61t57 -23q55 0 151 61t203 166q168 166 531 776zM1335 1925q-24 -52 -35.5 -97t-11.5 -89q0 -73 25 -132t73 -98
l-4 -14q-114 27 -176 94t-63 164l-173.5 -132.5l-170.5 -141.5l-13 14l398 430z" />
    <glyph glyph-name="Ugrave" unicode="&#xd9;" horiz-adv-x="1933" 
d="M1354 1350h278q-402 -612 -558 -887.5t-156 -364.5q0 -42 21.5 -66t59.5 -24q100 0 275 143.5t338 372.5l10 -10q-181 -257 -374.5 -404t-348.5 -147q-97 0 -151 50t-54 141q0 39 15 87.5t45 106.5l-9 6q-159 -181 -315 -279t-285 -98q-79 0 -125.5 46.5t-46.5 126.5
q0 142 233 489l77 115q138 211 192.5 320.5t54.5 172.5q0 64 -39.5 100.5t-109.5 36.5q-67 0 -139 -35.5t-138 -101.5q-68 -70 -105.5 -157.5t-37.5 -176.5q0 -75 33 -120t86 -45q60 0 119 51.5t100 140.5l10 -4q-44 -104 -124 -166.5t-167 -62.5q-76 0 -122 49.5t-46 134.5
q0 92 61 194.5t165 184.5q88 70 192.5 108.5t206.5 38.5q127 0 198.5 -59t71.5 -164q0 -131 -292 -583l-27 -42q-144 -224 -182.5 -308t-38.5 -140q0 -38 21 -61t57 -23q55 0 151 61t203 166q168 166 531 776zM993 1880h204q2 -36 2.5 -69t0.5 -68q0 -63 -3.5 -130.5
t-10.5 -139.5l-21 -3q-31 118 -74.5 221t-97.5 189z" />
    <glyph glyph-name="dotlessi" unicode="&#x131;" horiz-adv-x="588" 
d="M45 713l-3 -5q-323 -526 -323 -618q0 -24 15.5 -38.5t40.5 -14.5q68 0 204 135t287 358l10 -8q-174 -262 -329.5 -401t-272.5 -139q-71 0 -112 46t-41 128q0 50 22 117t62 137l166 292z" />
    <glyph glyph-name="circumflex" unicode="&#x2c6;" 
d="M475 1284q-24 -52 -35.5 -97t-11.5 -89q0 -73 25 -132t73 -98l-4 -14q-114 27 -176 94t-63 164l-173.5 -132.5l-170.5 -141.5l-13 14l398 430z" />
    <glyph glyph-name="tilde" unicode="&#x2dc;" 
d="M573 1145q-49 -147 -90 -193.5t-108 -46.5q-52 0 -155 45t-150 45q-43 0 -70.5 -27t-38.5 -79l-22 4q22 125 61.5 178t108.5 53q41 0 140.5 -40t156.5 -40q51 0 78.5 20.5t64.5 88.5z" />
    <glyph glyph-name="macron" unicode="&#xaf;" 
d="M59 1087q84 -3 144 -4.5t96 -1.5q44 0 108.5 1.5t149.5 4.5l-70 -137q-47 1 -128 2.5t-103 1.5q-48 0 -189 -2q-50 -1 -77 -2z" />
    <glyph glyph-name="breve" unicode="&#x2d8;" 
d="M-14 1212q40 -99 103.5 -144.5t160.5 -45.5q96 0 195.5 47.5t197.5 138.5h21q-101 -158 -208 -235.5t-225 -77.5q-115 0 -176 72t-88 241z" />
    <glyph glyph-name="dotaccent" unicode="&#x2d9;" 
d="M295 1120q46 0 80.5 -34t34.5 -78q0 -50 -33 -82.5t-82 -32.5q-47 0 -79 33t-32 82q0 43 34 77.5t77 34.5z" />
    <glyph glyph-name="ring" unicode="&#x2da;" 
d="M440 1135q0 30 -17.5 50.5t-43.5 20.5q-30 0 -63 -21t-60 -59q-35 -47 -55.5 -98.5t-20.5 -89.5q0 -32 17 -52t45 -20t60.5 22t62.5 62q34 46 54.5 96.5t20.5 88.5zM360 1223q78 0 121 -39t43 -109q0 -87 -78.5 -156t-179.5 -69q-76 0 -124 41.5t-48 107.5
q0 91 79.5 157.5t186.5 66.5z" />
    <glyph glyph-name="cedilla" unicode="&#xb8;" 
d="M-184 -6h22l-76 -117h13h22q68 0 108 -38.5t40 -104.5q0 -116 -121 -193.5t-324 -89.5v17q144 13 223.5 63.5t79.5 126.5q0 41 -28.5 64.5t-77.5 23.5q-8 0 -18 -1.5t-25 -4.5z" />
    <glyph glyph-name="hungarumlaut" unicode="&#x2dd;" 
d="M821 1200q-129 -86 -248 -176t-229 -182l-27 4l130.5 189.5l115.5 164.5h258zM231 1200h236l-75 -67l-326 -291l-23 4l102 189.5z" />
    <glyph glyph-name="ogonek" unicode="&#x2db;" 
d="M-154 -6h25q-73 -57 -116.5 -131t-43.5 -137q0 -48 23 -74.5t63 -26.5t82 26.5t78 74.5l10 -7q-46 -78 -117 -126t-141 -48q-61 0 -99 36t-38 93q0 75 75 163t199 157z" />
    <glyph glyph-name="caron" unicode="&#x2c7;" 
d="M664 1309l12 -15l-397 -430l-134 -2q11 31 16 65t5 79q0 81 -25 153t-71 121l10 12q81 -37 142.5 -103t96.5 -155l164 125.5z" />
    <glyph glyph-name="Lslash" unicode="&#x141;" horiz-adv-x="1327" 
d="M576 842q22 -4 46 -5t72 -1q224 0 378.5 127.5t154.5 304.5q0 67 -34 106t-91 39q-106 0 -249.5 -154t-276.5 -417zM569 825l-45.5 -91.5l-56.5 -108.5l371 53v-23l-385 -57q-112 -200 -276 -332.5t-394 -206.5l2 -6q5 0 28.5 1t43.5 1q218 0 328.5 -46t140.5 -148
q141 161 547 545l137 129l10 -13l-239 -227q-338 -320 -451 -459q-3 -84 -78.5 -154.5t-149.5 -70.5q-23 0 -37 9t-14 24q0 12 7.5 21.5t35.5 27.5q1 11 1.5 23.5t0.5 35.5q0 125 -90 206t-231 81q-35 0 -173.5 -31t-240.5 -31q-57 0 -86 14t-29 42q0 25 33 38t96 13
q59 0 149.5 -6t213.5 -19q118 35 226 160.5t214 349.5l-344 -47v25l359 49q12 27 64 131l65 131q-133 28 -212 108t-79 185q0 91 65 153t162 62q30 0 55.5 -5t51.5 -15l-7 -15q-34 12 -56 16.5t-42 4.5q-92 0 -151.5 -57t-59.5 -144q0 -97 75.5 -173t203.5 -104
q129 257 350.5 407.5t464.5 150.5q135 0 212 -57t77 -156q0 -87 -65.5 -164.5t-188.5 -134.5q-103 -48 -231 -74.5t-257 -26.5q-31 0 -60.5 1.5t-60.5 4.5z" />
    <glyph glyph-name="lslash" unicode="&#x142;" horiz-adv-x="588" 
d="M428 1382l-330 -565l240 80l-4 -29l-256 -84l-305 -532q-24 -42 -39 -87.5t-15 -74.5q0 -24 15.5 -38.5t40.5 -14.5q67 0 204 135.5t287 357.5l10 -8q-174 -262 -329.5 -401t-272.5 -139q-71 0 -112 46t-41 128q0 49 21.5 115.5t62.5 138.5l168 297l-258 -84l4 28l270 86
l354 631z" />
    <glyph glyph-name="Scaron" unicode="&#x160;" horiz-adv-x="1442" 
d="M1079 1012q48 34 73.5 83.5t25.5 108.5q0 82 -43.5 136.5t-108.5 54.5q-51 0 -95.5 -36t-74.5 -102q-51 -110 -64 -457q-1 -31 -1 -46q-7 -227 -51 -365t-136 -231q-87 -89 -222.5 -142t-277.5 -53q-208 0 -343.5 101.5t-135.5 257.5q0 98 48.5 159.5t125.5 61.5
q51 0 84 -34t33 -87q0 -56 -27.5 -88.5t-76.5 -34.5q-9 -22 -13 -41t-4 -37q0 -101 81.5 -168t209.5 -67q113 0 206 56t148 157q75 137 97 510q2 40 4 62q11 203 46 303t107 179q74 80 176 121t228 41q138 0 219.5 -58t81.5 -155q0 -84 -66 -141t-164 -57q-25 0 -47 2t-43 6
zM1516 1950l12 -15l-397 -430l-134 -2q11 31 16 65t5 79q0 81 -25 153t-71 121l10 12q81 -37 142.5 -103t96.5 -155l164 125.5z" />
    <glyph glyph-name="scaron" unicode="&#x161;" horiz-adv-x="834" 
d="M41 483q15 24 22 50.5t7 58.5q0 57 -26 92t-67 35q-42 0 -69 -33t-27 -84q0 -66 87 -176l18 -23q43 -54 61.5 -97.5t18.5 -86.5q0 -63 -36 -114.5t-98 -75.5l5 -13q145 38 298 173.5t277 336.5l12 -6q-162 -271 -367.5 -414t-432.5 -143q-143 0 -224.5 58.5t-81.5 160.5
q0 62 46 112t102 50q46 0 76 -28.5t30 -71.5q0 -38 -24 -64t-58 -26q-10 0 -34 10q-3 1 -5 2q-6 -17 -9 -32.5t-3 -29.5q0 -50 38 -84t93 -34q71 0 120.5 50.5t49.5 125.5q0 56 -73 155l-17 23q-44 59 -58 94t-14 72q0 98 95 167.5t229 69.5q113 0 181.5 -43t68.5 -112
q0 -49 -42.5 -85t-103.5 -36q-20 0 -59 14q-5 2 -6 2zM570 1309l12 -15l-397 -430l-134 -2q11 31 16 65t5 79q0 81 -25 153t-71 121l10 12q81 -37 142.5 -103t96.5 -155l164 125.5z" />
    <glyph glyph-name="Zcaron" unicode="&#x17d;" horiz-adv-x="1479" 
d="M-172 199l10 -17q68 47 138 68.5t149 21.5q111 0 309 -63q5 -2 6 -2q105 -34 155 -44.5t91 -10.5q122 0 241.5 95t233.5 283l13 -6q-170 -268 -355.5 -411.5t-359.5 -143.5q-62 0 -123.5 18t-136.5 58l-42 23q-166 90 -261 90q-60 0 -118 -24.5t-85 -59.5
q-57 -75 -79.5 -95t-39.5 -20q-14 0 -21.5 7t-7.5 20q0 28 94 95q99 70 171 130l337.5 287.5t321.5 269.5q108 86 318 236t300 219l-10 14q-103 -71 -209 -107t-209 -36q-51 0 -108.5 8.5t-118.5 25.5l-90 28q-144 46 -199 46q-94 0 -161.5 -66.5t-67.5 -156.5
q0 -78 56.5 -129t140.5 -51q65 0 128.5 34t108.5 95l10 -6q-44 -72 -118 -116t-148 -44q-86 0 -140 55.5t-54 143.5q0 86 37.5 164.5t107.5 138.5q68 57 150.5 87.5t168.5 30.5q102 0 288 -71q32 -13 48 -19q79 -30 131.5 -41.5t104.5 -11.5q65 0 132 18t114 48
q36 57 69.5 86.5t61.5 29.5q12 0 19 -9.5t7 -25.5q0 -15 -20.5 -33t-85.5 -57q-114 -65 -254 -192l-34 -30l-43 -38q-493 -439 -1072 -837zM1534 1950l12 -15l-397 -430l-134 -2q11 31 16 65t5 79q0 81 -25 153t-71 121l10 12q81 -37 142.5 -103t96.5 -155l164 125.5z" />
    <glyph glyph-name="zcaron" unicode="&#x17e;" horiz-adv-x="922" 
d="M-244 217l4 -8q6 0 33 1t49 1q50 0 148 -30.5t149 -30.5q107 0 204.5 77t254.5 303l12 -6q-171 -255 -347.5 -402t-309.5 -147q-38 0 -78 12.5t-88 39.5q-14 7 -40 22q-86 49 -122 49q-26 0 -48.5 -14t-45.5 -45l-8 -11q-37 -51 -68 -51q-14 0 -21 7t-7 20q0 25 94 78.5
t157 99.5q17 12 58 49q208 182 430 283l-4 10q-36 -12 -74 -18t-80 -6q-58 0 -134.5 18.5t-100.5 18.5q-33 0 -58.5 -11t-46.5 -32l-12 12q79 121 145 169t148 48q73 0 179 -41t142 -41q12 0 29 3.5t41 10.5q21 50 42.5 74.5t43.5 24.5q11 0 18 -7t7 -18q0 -23 -103 -99
q-84 -61 -139 -106h-1q-261 -209 -452 -307zM613 1309l12 -15l-397 -430l-134 -2q11 31 16 65t5 79q0 81 -25 153t-71 121l10 12q81 -37 142.5 -103t96.5 -155l164 125.5z" />
    <glyph glyph-name="brokenbar" unicode="&#xa6;" 
d="M602 408v-758h-178v758h178zM602 1432v-758h-178v758h178z" />
    <glyph glyph-name="Eth" unicode="&#xd0;" horiz-adv-x="2048" 
d="M827 707q111 215 230 360t252 227q-77 54 -177 82.5t-210 28.5q-148 0 -291 -63t-250 -175q-98 -102 -152.5 -229t-54.5 -252q0 -118 54 -186t147 -68q88 0 165 65.5t128 184.5h-322v25h326q15 57 20.5 89.5t5.5 59.5q0 57 -16 123t-49 143l12 4q33 -77 49.5 -144.5
t16.5 -127.5q0 -31 -5 -65.5t-16 -81.5h137zM682 682q-55 -142 -163.5 -227.5t-231.5 -85.5q-141 0 -236.5 95.5t-95.5 235.5q0 139 70 273t194 233q128 104 301 160.5t361 56.5q134 0 247.5 -28.5t208.5 -85.5q104 66 224.5 103.5t250.5 43.5l3 -14q-131 -12 -229 -56.5
t-173 -125.5q124 -107 192 -244t68 -281q0 -181 -100.5 -345.5t-274.5 -264.5q-122 -71 -298.5 -107t-397.5 -36q-81 0 -241 14q-77 7 -116 10q-72 -14 -127.5 -20t-101.5 -6q-94 0 -144 18.5t-50 52.5q0 19 20.5 30t57.5 11q50 0 144 -14.5t235 -44.5q133 28 263.5 186
t272.5 463h-133zM1378 1214q-55 -66 -194 -338l-86 -169h137v-25h-150q-124 -258 -316 -420.5t-458 -234.5q67 -15 136 -22t143 -7q174 0 316 57.5t257 173.5q135 136 212 329t77 392q0 82 -18 147t-56 117z" />
    <glyph glyph-name="eth" unicode="&#xf0;" horiz-adv-x="1139" 
d="M274 678v35q0 128 -22 231t-68 189l-338 -179l-10 23l336 172q-71 97 -166.5 144.5t-218.5 47.5q-81 0 -150.5 -18t-132.5 -55l-10 16q100 62 198 91.5t206 29.5q161 0 279 -38.5t190 -115.5l280 146l10 -21l-274 -145q71 -86 105 -192.5t34 -243.5q0 -199 -80 -373
t-237 -318q166 54 313 155t313 278l11 -7q-163 -181 -320 -286t-348 -164q-72 -55 -151 -82t-170 -27q-138 0 -218.5 72t-80.5 195q0 90 44 178t128 164q83 74 188.5 115.5t210.5 41.5q51 0 89.5 -15t59.5 -44zM-150 -10q48 0 104 44.5t116 129.5q76 108 124 232t48 208
q0 53 -20.5 82t-57.5 29q-42 0 -96 -39.5t-111 -112.5q-85 -109 -137.5 -238t-52.5 -216q0 -57 22 -88t61 -31z" />
    <glyph glyph-name="Yacute" unicode="&#xdd;" horiz-adv-x="1741" 
d="M1333 1350h285q-237 -347 -543.5 -851.5t-408.5 -635.5q-182 -234 -397.5 -351.5t-461.5 -117.5q-191 0 -303 77.5t-112 209.5q0 112 87.5 178.5t235.5 66.5q46 0 92.5 -9.5t100.5 -29.5l-4 -12q-35 9 -57 12.5t-37 3.5q-80 0 -133.5 -67.5t-53.5 -169.5q0 -108 64 -175
t168 -67q97 0 203.5 65.5t203.5 186.5q111 137 431 626l50 77l-8 6q-147 -184 -312 -290t-298 -106q-80 0 -126 47t-46 130q0 122 226 473l24 37l59 90q248 379 248 508q0 51 -41 87.5t-98 36.5q-70 0 -142 -34t-133 -97q-69 -70 -110 -164.5t-41 -181.5q0 -74 32 -117.5
t86 -43.5q56 0 112 49t99 137h15q-42 -100 -124 -166t-161 -66q-78 0 -124 51t-46 136q0 93 50 184.5t143 169.5q101 86 209 130t219 44q122 0 196 -62t74 -165q0 -131 -273 -549l-59 -90q-119 -186 -165 -280t-46 -148q0 -36 24 -59t62 -23q56 0 153.5 62.5t201.5 166.5
q105 106 274 362t436 718zM1636 1855l-255.5 -199.5l-221.5 -185.5l-19 5l107.5 190t115.5 186z" />
    <glyph glyph-name="yacute" unicode="&#xfd;" horiz-adv-x="1096" 
d="M567 713l-395 -678q153 59 302 182t294 309l12 -6q-144 -192 -301 -321t-319 -187q-168 -314 -406.5 -474.5t-537.5 -160.5q-180 0 -286 75t-106 200q0 111 95.5 177.5t257.5 66.5q32 0 64 -3.5t65 -9.5l-3 -14q-10 1 -21.5 1.5t-29.5 0.5q-92 0 -146 -60t-54 -163
q0 -107 64.5 -177.5t160.5 -70.5q94 0 190.5 62t198.5 190q46 57 187.5 274l220.5 334l-15 10q-106 -141 -210.5 -217t-192.5 -76q-72 0 -113 44t-41 120q0 51 22.5 111t86.5 170l162 280l276 11l-252 -412q-40 -64 -64 -122.5t-24 -86.5q0 -22 13 -37.5t32 -15.5
q77 0 192.5 120.5t223.5 319.5l121 223zM672 1214l-255.5 -199.5l-221.5 -185.5l-19 5l107.5 190t115.5 186z" />
    <glyph glyph-name="Thorn" unicode="&#xde;" horiz-adv-x="1933" 
d="M852 514q14 -67 57 -103t109 -36q61 0 121.5 36t109.5 101q49 66 77 150.5t28 166.5q0 99 -44 165.5t-122 86.5q-92 -130 -175 -270.5t-161 -296.5zM1665 1460l2 -12q-134 -20 -240 -97t-225 -247q171 -29 270 -127t99 -236q0 -85 -42 -167t-118 -144
q-65 -53 -144.5 -80.5t-164.5 -27.5q-110 0 -180.5 42t-87.5 117q-128 -227 -332 -355t-436 -128q-161 0 -249.5 58t-88.5 163q0 73 37 115.5t100 42.5q50 0 82.5 -33t32.5 -84q0 -42 -20 -74.5t-56 -50.5q29 -55 79 -85t113 -30q91 0 194 95t222 286l94 161
q214 371 383 566q-8 1 -22 1q-83 4 -117 4q-143 0 -272 -33.5t-252 -102.5t-194 -162.5t-71 -185.5q0 -80 57 -132t144 -52q130 0 226 115.5t112 298.5l16 -2q-14 -209 -141.5 -337t-316.5 -128q-133 0 -215 69.5t-82 182.5q0 101 76 195.5t215 164.5q125 64 292.5 97.5
t358.5 33.5q42 0 91.5 -2.5t112.5 -7.5q128 136 300 218.5t358 96.5z" />
    <glyph glyph-name="thorn" unicode="&#xfe;" horiz-adv-x="1100" 
d="M168 1364l276 18l-469 -755q-11 -19 -89 -131l-85 -121l17 -10q127 187 238.5 278.5t213.5 91.5q85 0 136 -60t51 -161q0 -75 -31 -145.5t-100 -153.5q124 33 240 114t214 206l13 -11q-106 -133 -231.5 -217t-266.5 -117q-113 -97 -224.5 -146.5t-217.5 -49.5
q-48 0 -75.5 18t-27.5 49q0 48 54 73.5t268 53.5q69 103 103 190.5t34 162.5q0 47 -22 74.5t-60 27.5q-66 0 -172 -118.5t-229 -329.5l-476 -813l-264 -5zM59 170q-102 -7 -162.5 -42t-60.5 -85q0 -15 11.5 -27t25.5 -12q27 0 76 43.5t110 122.5z" />
    <glyph glyph-name="minus" unicode="&#x2212;" horiz-adv-x="1706" 
d="M1452 696v-170h-1198v170h1198z" />
    <glyph glyph-name="multiply" unicode="&#xd7;" horiz-adv-x="1706" 
d="M862 729l461 459l117 -117l-459 -461l459 -458l-117 -119l-461 461l-459 -461l-116 119l458 458l-458 461l116 117z" />
    <glyph glyph-name="onesuperior" unicode="&#xb9;" horiz-adv-x="776" 
d="M459 1073l10 -10l-395 -625l-193 -14l314 489q-75 -34 -145.5 -59t-139.5 -41l-6 18q166 40 305.5 101t249.5 141z" />
    <glyph glyph-name="twosuperior" unicode="&#xb2;" horiz-adv-x="776" 
d="M-131 559l4 -6q20 6 39 9t37 3q56 0 141 -18.5t119 -18.5q71 0 117.5 36.5t76.5 115.5l13 -2q-50 -120 -136 -189t-186 -69q-53 0 -188 46l-2 1q-40 15 -69 22t-52 7q-11 0 -31 -6q-6 -2 -8 -3q-16 -49 -27.5 -61t-31.5 -12q-13 0 -19 3.5t-6 10.5q0 18 79.5 68.5
t213.5 115.5q31 16 87 42q89 40 118 59q61 41 92 88.5t31 101.5q0 60 -41 100.5t-101 40.5q-53 0 -91 -34.5t-38 -81.5q0 -38 26.5 -64t63.5 -26q21 0 36 11t20 29l5 -1q-3 -54 -42.5 -89.5t-93.5 -35.5q-52 0 -85.5 30.5t-33.5 77.5q0 37 25.5 74.5t74.5 71.5
q50 32 102.5 47.5t110.5 15.5q105 0 170.5 -47.5t65.5 -122.5q0 -79 -68.5 -134.5t-221.5 -99.5q-9 -2 -31 -8q-174 -45 -265 -98z" />
    <glyph glyph-name="threesuperior" unicode="&#xb3;" horiz-adv-x="776" 
d="M178 764l-4 -12q95 -2 146 -35t51 -92q0 -88 -108 -149.5t-271 -61.5q-131 0 -211 47.5t-80 122.5q0 51 40.5 89t96.5 38q49 0 85.5 -25t49.5 -68l-8 -1q-2 11 -13.5 17.5t-29.5 6.5q-37 0 -62.5 -27t-25.5 -67q0 -51 41.5 -86t101.5 -35q86 0 152 62t66 143q0 57 -35 87
t-101 30q-24 0 -45.5 -2t-42.5 -7l6 19h33q167 0 250.5 45.5t83.5 136.5q0 50 -30.5 81.5t-77.5 31.5q-45 0 -73 -26.5t-28 -68.5q0 -29 17.5 -48t44.5 -19q18 0 29.5 10t13.5 27l8 -2q0 -46 -36.5 -78.5t-86.5 -32.5q-44 0 -73 27t-29 67q0 65 80.5 113.5t193.5 48.5
q92 0 147.5 -36t55.5 -95q0 -73 -81.5 -117.5t-240.5 -58.5z" />
    <glyph glyph-name="onequarter" unicode="&#xbc;" horiz-adv-x="1575" 
d="M999 788l-641 -542l324 4l223 389l187 20l-240 -405l143 4l-16 -27l-139 5l-123 -230l-193 -16l144 241q-85 0 -176 -5t-195 -15l567 569zM283 1208l10 -10l-387 -674l-191 -18l310 526q-66 -34 -136.5 -61.5t-144.5 -46.5l-6 24q161 41 297.5 106.5t247.5 153.5z
M-317 -49l534 628l500 605l164 16l-531.5 -622l-507.5 -613z" />
    <glyph glyph-name="onehalf" unicode="&#xbd;" horiz-adv-x="1575" 
d="M-317 -49l534 628l500 605l164 16l-531.5 -622l-507.5 -613zM283 1208l10 -10l-387 -674l-191 -18l310 526q-66 -34 -136.5 -61.5t-144.5 -46.5l-6 24q161 41 297.5 106.5t247.5 153.5zM475 133l4 -6q19 7 36.5 10.5t37.5 3.5q56 0 139 -20.5t113 -20.5q68 0 114 41
t74 125l17 -2q-43 -127 -129 -203.5t-185 -76.5q-57 0 -159 41t-144 41q-7 0 -14.5 -2t-22.5 -9q-14 -50 -27 -62.5t-40 -12.5q-9 0 -14 2.5t-5 7.5q0 24 61 68t189 114l71 38q288 151 288 290q0 64 -41 108.5t-99 44.5q-52 0 -87.5 -35t-35.5 -86q0 -42 24.5 -69t61.5 -27
q21 0 36 12t18 31h10v-16q0 -42 -42 -80.5t-95 -38.5q-51 0 -84 32t-33 83q0 87 93 157t222 70q98 0 162 -52t64 -132q0 -83 -66.5 -142.5t-222.5 -111.5l-60 -20q-160 -52 -229 -95z" />
    <glyph glyph-name="threequarters" unicode="&#xbe;" horiz-adv-x="1864" 
d="M168 879l-4 -10q93 -4 142.5 -40t49.5 -100q0 -94 -106.5 -160.5t-265.5 -66.5q-130 0 -207.5 51t-77.5 133q0 57 39.5 97t95.5 40q51 0 84.5 -24.5t48.5 -73.5l-10 -4q-6 11 -18 16.5t-31 5.5q-31 0 -54.5 -27t-23.5 -65q0 -54 41 -92.5t100 -38.5q83 0 148 68t65 151
q0 57 -35 88t-98 31q-23 0 -44 -2t-42 -6l6 24h52q148 0 227.5 50t79.5 143q0 53 -30.5 88t-76.5 35q-42 0 -70 -29t-28 -71q0 -32 17.5 -52t43.5 -20q18 0 30 11t14 28h11q-1 -50 -37 -84.5t-85 -34.5q-45 0 -74 27.5t-29 70.5q0 71 79.5 124.5t189.5 53.5
q89 0 143.5 -39.5t54.5 -103.5q0 -79 -77.5 -126.5t-237.5 -65.5zM-29 -49l554.5 650l482.5 583l163 16l-524.5 -613.5l-515.5 -621.5zM1290 788l-641 -542l324 4l223 389l186 20l-239 -405l143 4l-16 -27l-140 5l-124 -230l-191 -16l143 241q-84 0 -175 -5t-195 -15
l567 569z" />
    <glyph glyph-name="franc" unicode="&#x20a3;" horiz-adv-x="2769" 
d="M1560 1200q-138 -27 -264.5 -155.5t-242.5 -360.5q68 5 112 19t72 38q22 48 54 66t98 18q21 0 66.5 -2.5t68.5 -3.5q-153 -119 -259.5 -239t-179.5 -254h-18q19 72 50.5 158t78.5 190l-154 -12q-165 -342 -399 -515.5t-530 -173.5q-171 0 -270 65.5t-99 176.5
q0 68 38 111t99 43q53 0 87 -33.5t34 -85.5q0 -45 -27 -76t-65 -31q11 -70 66 -109.5t143 -39.5q167 0 307 140t333 519l-65 -6.5t-46 -3.5l5 21h6q72 4 111 8q125 220 300.5 343.5t445.5 186.5l-3 4q-129 8 -231 11.5t-192 3.5q-354 0 -585 -33t-376 -103
q-117 -57 -185.5 -141t-68.5 -168q0 -94 87 -158.5t218 -64.5q106 0 214 42t175 110q45 45 69 95.5t24 102.5q0 31 -8.5 64t-24.5 71l12 6q20 -36 29.5 -74.5t9.5 -80.5q0 -67 -24 -132t-68 -118q-75 -88 -179 -136t-221 -48q-155 0 -244 85t-89 232q0 109 69.5 211.5
t200.5 185.5q191 122 484.5 183t682.5 61q93 0 230.5 -5t181.5 -5h84q119 0 171 -23.5t52 -74.5q0 -57 -65 -84t-203 -27q-30 0 -75.5 1.5t-107.5 4.5zM2290 748q-73 -77 -106 -138t-33 -118q0 -48 24 -76.5t64 -28.5q43 0 99 38t112 105l10 -10q-65 -89 -155 -137.5
t-189 -48.5q-95 0 -153 48t-58 126q0 22 5.5 44.5t16.5 49.5q-133 -89 -252.5 -243.5t-201.5 -346.5l-273 -12l388 702l272 9l-119 -187q-21 -34 -143 -215l-33 -49l12 -8q91 136 185.5 235t181.5 152q32 46 60 64t67 22z" />
    <glyph glyph-name="Gbreve" unicode="&#x11e;" horiz-adv-x="1479" 
d="M545 1161q65 -71 142.5 -106t170.5 -35q147 0 248.5 76.5t101.5 179.5q0 63 -42.5 98t-118.5 35q-113 0 -247.5 -66t-254.5 -182zM604 1581l6 -14q-72 -26 -112.5 -80.5t-40.5 -126.5q0 -25 4 -49.5t12 -48.5q163 84 313.5 124.5t296.5 40.5q143 0 220 -45.5t77 -130.5
q0 -112 -122.5 -191t-307.5 -79q-135 0 -236 40.5t-182 127.5q-115 -112 -178 -244.5t-63 -259.5q0 -95 41.5 -151t109.5 -56q46 0 97.5 21.5t91.5 56.5q33 30 52 94q3 11 5 17q19 52 38.5 79t45.5 39q47 22 111 36t114 14q17 0 28 -7.5t11 -19.5q0 -10 -20 -42
q-13 -20 -21 -34q-15 -26 -50 -103.5t-62 -123.5q-135 -233 -340 -359t-449 -126q-196 0 -316 85.5t-120 219.5q0 81 47.5 137.5t116.5 56.5q53 0 86 -32t33 -85q0 -50 -30.5 -85t-76.5 -40q-8 -19 -11 -32t-3 -23q0 -77 73 -131.5t183 -54.5q170 0 319.5 134.5t251.5 381.5
q-83 -73 -177 -112.5t-183 -39.5q-121 0 -196 78.5t-75 204.5q0 164 116 324.5t326 285.5q-8 26 -13 51.5t-5 49.5q0 82 43 141.5t121 85.5zM856 1853q40 -99 103.5 -144.5t160.5 -45.5q96 0 195.5 47.5t197.5 138.5h21q-101 -158 -208 -235.5t-225 -77.5q-115 0 -176 72
t-88 241z" />
    <glyph glyph-name="gbreve" unicode="&#x11f;" horiz-adv-x="1124" 
d="M281 606l43 96l274 11l-393 -678q153 59 302 182t294 309l12 -6q-143 -191 -301.5 -320t-321.5 -188q-167 -314 -405 -474.5t-537 -160.5q-179 0 -285 75t-106 200q0 111 95.5 177.5t256.5 66.5q33 0 65 -3.5t64 -9.5l-2 -14q-10 1 -21.5 1.5t-29.5 0.5q-93 0 -148 -60.5
t-55 -162.5q0 -107 65 -177.5t161 -70.5q94 0 189 61.5t200 190.5q6 8 127 183.5t248 336.5l-17 10q-86 -99 -177.5 -150.5t-182.5 -51.5q-81 0 -129.5 56t-48.5 150q0 93 47 189.5t133 179.5q90 87 194 132.5t211 45.5q67 0 109 -30t70 -97zM219 608q0 51 -21 79t-59 28
q-39 0 -84.5 -29t-93.5 -84q-93 -104 -148 -224.5t-55 -215.5q0 -49 22.5 -80t57.5 -31q48 0 110.5 47.5t121.5 130.5q67 93 108 200t41 179zM37 1212q40 -99 103.5 -144.5t160.5 -45.5q96 0 195.5 47.5t197.5 138.5h21q-101 -158 -208 -235.5t-225 -77.5q-115 0 -176 72
t-88 241z" />
    <glyph glyph-name="Idotaccent" unicode="&#x130;" horiz-adv-x="1479" 
d="M1550 1348q-128 -25 -240.5 -128t-228.5 -302l-87 -154q-262 -463 -451 -606q-115 -87 -267.5 -140t-283.5 -53q-203 0 -323 77t-120 204q0 65 39.5 108t98.5 43q54 0 86 -31.5t32 -84.5q0 -39 -21 -68t-54 -37q-1 -5 -1.5 -11.5t-0.5 -14.5q0 -71 69 -118.5t176 -47.5
q96 0 185.5 41.5t173.5 126.5q110 110 269 399q80 146 126 219q150 236 326.5 368.5t441.5 209.5h-33q-603 0 -954.5 -154t-351.5 -412q0 -83 51.5 -137.5t132.5 -54.5q100 0 176 74.5t76 173.5q0 39 -12.5 75t-36.5 68l10 8q27 -32 41 -70t14 -81q0 -127 -112 -222.5
t-267 -95.5q-125 0 -205.5 71t-80.5 179q0 262 353 420t986 174h143q69 0 95 2t43 6q16 4 48 13q99 26 140 26q28 0 43.5 -9.5t15.5 -25.5q0 -20 -21 -32.5t-56 -12.5q-20 0 -62 4t-121 13zM1165 1761q46 0 80.5 -34t34.5 -78q0 -50 -33 -82.5t-82 -32.5q-47 0 -79 33
t-32 82q0 43 34 77.5t77 34.5z" />
    <glyph glyph-name="Scedilla" unicode="&#x15e;" horiz-adv-x="1442" 
d="M1079 1012q48 34 73.5 83.5t25.5 108.5q0 82 -43.5 136.5t-108.5 54.5q-51 0 -95.5 -36t-74.5 -102q-51 -110 -64 -457q-1 -31 -1 -46q-7 -227 -51 -365t-136 -231q-87 -89 -222.5 -142t-277.5 -53q-208 0 -343.5 101.5t-135.5 257.5q0 98 48.5 159.5t125.5 61.5
q51 0 84 -34t33 -87q0 -56 -27.5 -88.5t-76.5 -34.5q-9 -22 -13 -41t-4 -37q0 -101 81.5 -168t209.5 -67q113 0 206 56t148 157q75 137 97 510q2 40 4 62q11 203 46 303t107 179q74 80 176 121t228 41q138 0 219.5 -58t81.5 -155q0 -84 -66 -141t-164 -57q-25 0 -47 2t-43 6
zM25 -6h22l-76 -117h13h22q68 0 108 -38.5t40 -104.5q0 -116 -121 -193.5t-324 -89.5v17q144 13 223.5 63.5t79.5 126.5q0 41 -28.5 64.5t-77.5 23.5q-8 0 -18 -1.5t-25 -4.5z" />
    <glyph glyph-name="scedilla" unicode="&#x15f;" horiz-adv-x="834" 
d="M41 483q15 24 22 50.5t7 58.5q0 57 -26 92t-67 35q-42 0 -69 -33t-27 -84q0 -66 87 -176l18 -23q43 -54 61.5 -97.5t18.5 -86.5q0 -63 -36 -114.5t-98 -75.5l5 -13q145 38 298 173.5t277 336.5l12 -6q-162 -271 -367.5 -414t-432.5 -143q-143 0 -224.5 58.5t-81.5 160.5
q0 62 46 112t102 50q46 0 76 -28.5t30 -71.5q0 -38 -24 -64t-58 -26q-10 0 -34 10q-3 1 -5 2q-6 -17 -9 -32.5t-3 -29.5q0 -50 38 -84t93 -34q71 0 120.5 50.5t49.5 125.5q0 56 -73 155l-17 23q-44 59 -58 94t-14 72q0 98 95 167.5t229 69.5q113 0 181.5 -43t68.5 -112
q0 -49 -42.5 -85t-103.5 -36q-20 0 -59 14q-5 2 -6 2zM-278 -6h22l-76 -117h13h22q68 0 108 -38.5t40 -104.5q0 -116 -121 -193.5t-324 -89.5v17q144 13 223.5 63.5t79.5 126.5q0 41 -28.5 64.5t-77.5 23.5q-8 0 -18 -1.5t-25 -4.5z" />
    <glyph glyph-name="Cacute" unicode="&#x106;" horiz-adv-x="1479" 
d="M758 1225l10 -8q-37 -37 -55.5 -77t-18.5 -83q0 -66 42.5 -108t109.5 -42q57 0 111.5 31.5t99.5 89.5q39 52 61.5 113.5t22.5 115.5q0 66 -36.5 101t-105.5 35q-106 0 -232.5 -57.5t-246.5 -161.5q-200 -174 -315 -401t-115 -445q0 -152 72 -243t190 -91
q146 0 256.5 131.5t110.5 310.5q0 102 -42 158.5t-118 56.5q-96 0 -165.5 -105t-69.5 -255q0 -13 1 -28t1 -17h-14q-3 20 -4 29.5t-1 15.5q0 180 100.5 304t239.5 124q115 0 186.5 -69t71.5 -179q0 -88 -49.5 -175t-142.5 -161q-106 -85 -231 -131.5t-244 -46.5
q-193 0 -303.5 110t-110.5 302q0 181 109.5 375.5t304.5 355.5q178 147 385 230t393 83q124 0 195 -58.5t71 -160.5q0 -128 -114.5 -227t-264.5 -99q-101 0 -163 52t-62 135q0 49 20.5 93t59.5 77zM1458 1855l-255.5 -199.5l-221.5 -185.5l-19 5l107.5 190t115.5 186z" />
    <glyph glyph-name="cacute" unicode="&#x107;" horiz-adv-x="870" 
d="M111 444q3 43 4.5 72.5t1.5 42.5q0 76 -12.5 107.5t-41.5 31.5q-26 0 -60 -26t-81 -82q-72 -89 -108.5 -179.5t-36.5 -179.5q0 -88 45 -138t125 -50q119 0 269 120.5t331 360.5l10 -10q-192 -268 -381.5 -403.5t-374.5 -135.5q-125 0 -201.5 65.5t-76.5 172.5
q0 113 67.5 218.5t192.5 184.5q85 55 184.5 85t192.5 30q89 0 138.5 -33t49.5 -92q0 -69 -57.5 -116.5t-145.5 -47.5q-10 0 -18 0.5t-16 1.5zM559 1214l-255.5 -199.5l-221.5 -185.5l-19 5l107.5 190t115.5 186z" />
    <glyph glyph-name="Ccaron" unicode="&#x10c;" horiz-adv-x="1479" 
d="M758 1225l10 -8q-37 -37 -55.5 -77t-18.5 -83q0 -66 42.5 -108t109.5 -42q57 0 111.5 31.5t99.5 89.5q39 52 61.5 113.5t22.5 115.5q0 66 -36.5 101t-105.5 35q-106 0 -232.5 -57.5t-246.5 -161.5q-200 -174 -315 -401t-115 -445q0 -152 72 -243t190 -91
q146 0 256.5 131.5t110.5 310.5q0 102 -42 158.5t-118 56.5q-96 0 -165.5 -105t-69.5 -255q0 -13 1 -28t1 -17h-14q-3 20 -4 29.5t-1 15.5q0 180 100.5 304t239.5 124q115 0 186.5 -69t71.5 -179q0 -88 -49.5 -175t-142.5 -161q-106 -85 -231 -131.5t-244 -46.5
q-193 0 -303.5 110t-110.5 302q0 181 109.5 375.5t304.5 355.5q178 147 385 230t393 83q124 0 195 -58.5t71 -160.5q0 -128 -114.5 -227t-264.5 -99q-101 0 -163 52t-62 135q0 49 20.5 93t59.5 77zM1487 1950l12 -15l-397 -430l-134 -2q11 31 16 65t5 79q0 81 -25 153
t-71 121l10 12q81 -37 142.5 -103t96.5 -155l164 125.5z" />
    <glyph glyph-name="ccaron" unicode="&#x10d;" horiz-adv-x="870" 
d="M111 444q3 43 4.5 72.5t1.5 42.5q0 76 -12.5 107.5t-41.5 31.5q-26 0 -60 -26t-81 -82q-72 -89 -108.5 -179.5t-36.5 -179.5q0 -88 45 -138t125 -50q119 0 269 120.5t331 360.5l10 -10q-192 -268 -381.5 -403.5t-374.5 -135.5q-125 0 -201.5 65.5t-76.5 172.5
q0 113 67.5 218.5t192.5 184.5q85 55 184.5 85t192.5 30q89 0 138.5 -33t49.5 -92q0 -69 -57.5 -116.5t-145.5 -47.5q-10 0 -18 0.5t-16 1.5zM588 1309l12 -15l-397 -430l-134 -2q11 31 16 65t5 79q0 81 -25 153t-71 121l10 12q81 -37 142.5 -103t96.5 -155l164 125.5z" />
    <glyph glyph-name="dcroat" unicode="&#x111;" horiz-adv-x="1139" 
d="M840 532q-224 -311 -359 -433t-248 -122q-75 0 -122.5 45t-47.5 115q0 20 7 61q1 7 2 11q-94 -114 -183 -170.5t-174 -56.5q-87 0 -137.5 55t-50.5 151q0 107 51 206.5t148 180.5q83 70 188.5 112t191.5 42q73 0 117.5 -36t55.5 -103l233 420h-387l6 24h393l187 324
l278 22l-201 -346h275l-8 -24h-279l-450 -766q-32 -53 -48 -91.5t-16 -62.5q0 -25 16.5 -44t38.5 -19q70 0 197.5 130t310.5 388zM131 705q-39 0 -87.5 -36t-94.5 -100q-77 -106 -126.5 -224.5t-49.5 -184.5q0 -38 26 -65t62 -27q42 0 96 47t121 143q72 105 107.5 189
t35.5 149q0 52 -23.5 80.5t-66.5 28.5z" />
    <glyph glyph-name="sfthyphen" unicode="&#xad;" horiz-adv-x="967" 
d="M-148 499l156.5 -3.5t126.5 -1.5q43 0 174 2q53 1 82 2l-100 -166q-25 0 -73 1q-160 3 -216 3q-82 0 -139 -0.5t-114 -1.5z" />
    <glyph glyph-name="periodcentered" unicode="&#x2219;" horiz-adv-x="588" 
d="M-102 666q55 0 95 -40t40 -96q0 -54 -40.5 -93.5t-94.5 -39.5t-94 40t-40 93q0 55 39.5 95.5t94.5 40.5z" />
    </font>
</defs>
</svg>
