<?xml version="1.0" encoding="utf-8"?>
<!-- Generator: Adobe Illustrator 19.2.1, SVG Export Plug-In . SVG Version: 6.00 Build 0)  -->
<svg version="1.1" id="Layer_1" xmlns="http://www.w3.org/2000/svg" xmlns:xlink="http://www.w3.org/1999/xlink" x="0px" y="0px"
	 viewBox="0 0 132 132" style="enable-background:new 0 0 132 132;" xml:space="preserve">
<style type="text/css">
	.st0{fill:none;stroke:#FFFFFF;stroke-width:2;stroke-miterlimit:10;}
</style>
<g>
	<path class="st0" d="M84.3,9.8c20.5,0,19.2,17.7,19.2,17.7s0,17,0,22.9s-6.2,12.4-13.2,12.4c-6.9,0-8-2-22.8-2s-11.2,2-25,2
		S28.6,51,28.6,51s0-5.1,0-22.7S49.3,9.8,49.3,9.8s3.9-0.6,10.4,2.6s11.7,0.5,11.7,0.5S77,9.8,84.3,9.8z"/>
	<rect x="45.4" y="68.4" class="st0" width="41.2" height="3.4"/>
	<rect x="45.4" y="76.8" class="st0" width="41.2" height="3.4"/>
	<rect x="46.5" y="85.1" class="st0" width="38.3" height="3.4"/>
	<rect x="47.9" y="93.5" class="st0" width="35.5" height="3.4"/>
	<rect x="47.9" y="101.9" class="st0" width="35.5" height="3.4"/>
	<rect x="47.9" y="110.3" class="st0" width="35.5" height="3.4"/>
	<rect x="49.8" y="118.9" class="st0" width="31.7" height="3.4"/>
</g>
</svg>
