<?xml version="1.0" encoding="utf-8"?>
<!-- Generator: Adobe Illustrator 19.2.1, SVG Export Plug-In . SVG Version: 6.00 Build 0)  -->
<svg version="1.1" id="Layer_1" xmlns="http://www.w3.org/2000/svg" xmlns:xlink="http://www.w3.org/1999/xlink" x="0px" y="0px"
	 viewBox="0 0 269.2 71" style="enable-background:new 0 0 269.2 71;" xml:space="preserve">
<style type="text/css">
	.st0{fill:#FFFFFF;}
	.st1{fill:#FFFFFF;stroke:#FFFFFF;stroke-width:0.5;stroke-miterlimit:10;}
</style>
<g>
	<rect x="187.4" class="st0" width="1.5" height="71"/>
	<path class="st0" d="M64.9,27.3c-1,0.8-1.4,1.9-1.4,3.2c0,1.3,0.5,2.3,1.4,3c0.8,0.6,1.8,0.9,3,0.9c1.1,0,2.1-0.4,3-1.3
		c0.9-0.9,1.3-1.9,1.3-3c0-1.1-0.4-2-1.2-2.8c-0.8-0.8-1.7-1.2-2.8-1.2C66.9,26.1,65.8,26.5,64.9,27.3z"/>
	<path class="st0" d="M172.9,40.7c-1.1,1.4-2.4,2.9-3.8,4.6c-1.5,1.6-3,3.2-4.6,4.7c-2,1.9-4,3.3-6,4.3c-1.9,0.9-3.7,1.4-5.2,1.4
		c-1.5,0-2.6-0.4-3.3-1.3c-0.8-0.9-1.2-2.1-1.2-3.6c0-0.4,0-0.8,0.1-1.3c0.6-0.1,1.3-0.3,2.2-0.5c1.2-0.2,2.4-0.6,3.8-0.9
		c1.4-0.4,2.7-0.8,4.1-1.3c1.4-0.5,2.7-1.1,3.8-1.8c1.2-0.7,2.1-1.5,2.9-2.4c0.8-1,1.3-2.1,1.3-3.4c0-1.6-0.7-2.8-1.9-3.7
		c-1.2-0.8-2.8-1.2-4.7-1.2c-2.1,0-4.3,0.5-6.6,1.5c-2.2,1-4.3,2.3-6.2,3.8c-1.9,1.6-3.5,3.4-4.7,5.4c-0.7,1.2-1.2,2.4-1.6,3.7
		c-1,1-1.8,1.9-2.5,2.6c-1.6,1.6-3.2,2.9-4.6,3.8c-1.6,1-2.5,1.2-2.9,1.2c-0.2,0-0.2,0-0.2,0c0,0-0.1-0.1-0.1-0.6
		c0-0.9,0.4-2.1,1.3-3.6c0.9-1.7,2.2-3.8,3.8-6.3L156,14l-9.5,0.5L129,42.9c-0.8,1.3-1.5,2.5-2.1,3.5c-1.3,1.3-2.4,2.5-3.5,3.5
		c-2,1.9-4,3.3-6,4.3c-1.9,0.9-3.7,1.4-5.2,1.4c-1.5,0-2.6-0.4-3.3-1.3c-0.8-0.9-1.2-2.1-1.2-3.6c0-0.4,0-0.8,0.1-1.3
		c0.6-0.1,1.3-0.3,2.2-0.5c1.2-0.2,2.4-0.6,3.8-0.9c1.4-0.4,2.7-0.8,4.1-1.3c1.4-0.5,2.7-1.1,3.8-1.8c1.2-0.7,2.1-1.5,2.9-2.4
		c0.8-1,1.3-2.1,1.3-3.4c0-1.6-0.7-2.8-1.9-3.7c-1.2-0.8-2.8-1.2-4.7-1.2c-2.1,0-4.3,0.5-6.6,1.5c-2.2,1-4.3,2.3-6.2,3.8
		c-1.9,1.6-3.5,3.4-4.7,5.4c-0.8,1.3-1.4,2.6-1.7,4c-0.9,1-1.7,1.8-2.4,2.5c-1.8,1.8-3.4,3.2-4.8,4c-1.7,0.9-2.6,1.1-3,1.1
		c-0.1,0-0.1,0-0.2,0c0-0.1-0.1-0.2-0.1-0.4c0-0.3,0.1-1.2,1.2-3.3c0.8-1.7,1.9-3.7,3.3-5.9c1.4-2.3,2.9-4.8,4.7-7.5
		c1.7-2.6,3.4-5.2,5.4-8.2c1.8-2.7,3.6-5.5,5.4-8.2c1.7-2.6,3.3-5.1,4.7-7.3l1.1-1.7l-9.5,0.5L91.8,37.1c-1.2-1.9-3.1-2.8-5.6-2.8
		c-2.2,0-4.4,0.5-6.6,1.6c-2.1,1-4.1,2.4-5.9,4c-1.8,1.7-3.2,3.6-4.3,5.7c-0.4,0.7-0.7,1.5-1,2.3c-0.7,0.8-1.5,1.6-2.2,2.3
		c-2.2,2.2-4,3.8-5.5,4.7c-1.7,1-2.5,1.2-2.9,1.2c0-0.1-0.1-0.3-0.1-0.6c0-0.3,0.1-0.9,0.6-1.9c0.4-0.9,1.1-2.1,1.9-3.6
		c0.9-1.5,2-3.3,3.4-5.4c1.5-2.2,3.1-4.8,5-7.7l1.1-1.7l-9,0.4L60.5,36c-1.8,2.8-3.4,5.2-4.6,7.2c-1.2,1.9-2.2,3.6-3,4.9
		c-0.8,1.3-1.3,2.5-1.7,3.4c-0.3,1-0.5,2-0.5,2.9c0,1.5,0.5,2.7,1.4,3.6c0.9,0.9,2.2,1.4,3.8,1.4c1.6,0,3.5-0.5,5.3-1.5
		c1.8-1,3.9-2.7,6.4-5.1c0,0,0,0,0.1-0.1c0,0.7,0.1,1.3,0.3,2c0.2,0.9,0.6,1.7,1.1,2.4c0.5,0.7,1.2,1.3,2,1.7c0.8,0.4,1.8,0.6,3,0.6
		c2.2,0,4.1-0.5,5.8-1.5c0.9-0.6,1.9-1.2,2.7-1.9c0.1,0.6,0.4,1.2,0.8,1.7c0.4,0.6,1.1,1.1,1.8,1.5c0.7,0.4,1.7,0.6,2.8,0.6
		c2.3,0,4.4-0.7,6.4-2c1.7-1.2,3.6-2.7,5.4-4.6c0.3,1.6,1,3.1,2.2,4.2c1.6,1.6,3.7,2.4,6.3,2.4c2.4,0,5-0.5,7.7-1.5
		c2.5-0.9,5.1-2.5,7.8-4.8c-0.1,0.4-0.1,0.8-0.1,1.2c0,1.8,0.7,4.7,5.3,4.7c2.2,0,4.3-0.7,6.3-1.9c1.6-1.1,3.5-2.6,5.6-4.6
		c0.3,1.8,1,3.3,2.2,4.5c1.6,1.6,3.7,2.4,6.3,2.4c2.4,0,5-0.5,7.7-1.5c2.7-1,5.6-2.8,8.5-5.4c2-1.9,3.8-3.7,5.3-5.3
		c1.5-1.7,2.9-3.4,4.2-5.1l0.6-0.7l-1.9-1.9L172.9,40.7z M150.6,44.9c0.8-1.3,1.7-2.6,2.7-3.8c1-1.2,2.1-2.2,3.2-3
		c1-0.7,1.9-1.1,2.7-1.1c0.2,0,0.4,0,0.5,0.1c0,0,0.1,0.1,0.1,0.4c0,0.8-0.3,1.6-0.9,2.5c-0.6,1-1.5,1.9-2.6,2.8
		c-1.1,0.9-2.4,1.7-3.8,2.4c-0.9,0.4-1.7,0.8-2.7,1.1C150,46,150.3,45.5,150.6,44.9z M109.5,44.9c0.8-1.3,1.7-2.6,2.7-3.8
		c1-1.2,2.1-2.2,3.2-3c1-0.7,1.9-1.1,2.7-1.1c0.2,0,0.4,0,0.5,0.1c0,0,0.1,0.1,0.1,0.4c0,0.8-0.3,1.6-0.9,2.5
		c-0.6,1-1.5,1.9-2.6,2.8c-1.1,0.9-2.4,1.7-3.8,2.4c-0.9,0.4-1.7,0.8-2.7,1.1C108.9,46,109.2,45.5,109.5,44.9z M87.5,44.1
		c-0.7,1.8-1.6,3.6-2.8,5.3c-1.1,1.7-2.4,3.1-3.7,4.3c-1.2,1.1-2.4,1.6-3.4,1.6c-0.9,0-1.3-0.4-1.4-0.6c-0.4-0.6-0.5-1.3-0.5-2.1
		c0-1.4,0.3-3,1-4.7c0.7-1.8,1.6-3.6,2.7-5.2c1.1-1.6,2.3-2.9,3.6-4c1.2-1,2.3-1.5,3.3-1.5c0.7,0,1.2,0.2,1.6,0.6
		c0.4,0.3,0.6,0.9,0.6,1.8C88.6,40.7,88.2,42.3,87.5,44.1z"/>
	<path class="st0" d="M55.3,37.5c1.4-1.1,2.8-2.1,4.1-3.1l2.6-1.9h-3.2c-1.1,0-2.2,0-3.4,0.1c-1.2,0-2.3,0.1-3.4,0.2l-0.7,0L51,33.4
		c-0.3,0.7-0.6,1.1-1.1,1.5c-0.6,0.4-1.2,0.7-1.9,0.8c-0.6,0.2-1.2,0.2-1.9,0.3c0.3-0.6,0.7-1.1,0.7-1.2c0.6-1.2,1.3-2.4,2.1-3.6
		c0.8-1.2,1.6-2.4,2.5-3.6c0.9-1.2,1.8-2.2,2.8-3.1c1-0.9,2-1.6,3.1-2.1c1-0.5,2-0.7,3.1-0.7c1.3,0,13.5-0.9,16.6-2
		c3.2-1.2,5.8-3.9,8-6.2l2.2-2.3h-3.9l-0.3,0.2c-2,1.3-3.8,2.4-6.2,3.1c-1.3,0.4-3,0.4-6.2,0.4c-0.8,0-1.8,0-2.9,0l-0.3,0
		c-1.4,0-2.9,0-4.7,0h-0.8c-1,0-2-0.1-3-0.1c-0.6,0-1.3-0.1-2-0.1c-1.8-0.1-3.6-0.1-5.2-0.1c-2.8,0-5.7,0.1-8.7,0.3
		c-3,0.2-6,0.5-9,1.1c-3,0.5-5.9,1.3-8.7,2.4c-2.8,1-5.6,2.4-8.1,4.1c-1.8,1.2-3.2,2.6-4.4,4.1c-1.3,1.7-1.9,3.8-1.9,6.3
		c0,1.5,0.4,2.9,1.1,4.2c0.7,1.2,1.6,2.2,2.7,3c1.1,0.8,2.3,1.4,3.7,1.8c1.3,0.4,2.7,0.6,4.1,0.6c2.2,0,4.3-0.4,6.3-1.2
		c2-0.8,3.7-1.9,5.2-3.3c1.5-1.4,2.7-3,3.6-4.9c0.9-1.9,1.3-4,1.3-6.1c0-0.3,0-0.6,0-0.9c0-0.2,0-0.5,0-0.8V24h-3.1l0.2,1.3
		c0,0.1,0,0.3,0,0.5v1c0,1.7-0.3,3.3-1,4.6c-0.6,1.3-1.5,2.4-2.7,3.3c-1.2,0.9-2.6,1.6-4.2,2.1c-1.7,0.5-3.5,0.7-5.5,0.7
		c-0.9,0-2-0.1-3-0.3c-1-0.2-2-0.6-2.9-1.1c-0.8-0.5-1.5-1.1-2.1-1.8c-0.5-0.6-0.7-1.4-0.7-2.3c0-1.5,0.4-2.7,1.3-3.8
		c0.9-1.1,2.1-2.1,3.7-3c1.6-0.9,3.4-1.6,5.5-2.2c2.1-0.6,4.3-1.1,6.5-1.4c2.3-0.3,4.5-0.6,6.8-0.7c2.2-0.1,4.3-0.2,6.2-0.2
		c2.6,0,5.3,0,7.9,0.1c0.5,0,1,0,1.5,0c-0.4,0.2-0.7,0.3-1.1,0.5c-2.2,1.1-4.2,2.4-6,3.9c-1.8,1.5-3.4,3.3-4.9,5.3
		c-1.6,2.2-7.8,12.8-8.1,13.3c-1.3,2.2-2.7,4.3-4.3,6.1c-1.6,1.8-3.4,3.4-5.3,4.6c-0.2,0.1-0.5,0.3-0.7,0.4
		c-0.6,0.3-1.6,0.6-2.8,0.9c-0.7,0.1-1.5,0.2-2.4,0.2c-1.1,0-2.2-0.1-3.1-0.2c-0.3-0.1-1.3-0.3-1.7-0.4c-0.2-0.1-1.5-0.5-2.1-0.8
		c-2.8-1.3-5.1-3.4-6.4-5.8c-1.4-2.5-1.5-4.7-1.4-6.1l0.1-1l-1-0.2c-0.2,0-0.4-0.1-0.6-0.1l-1.1-0.3l-0.2,1.1
		c-0.4,2.7,0.2,5.5,1.6,8.1c1,1.9,3.5,5.3,8.9,7.5c2.1,0.8,4.5,1.3,6.9,1.3l0.2,0c0.2,0,0.3,0,0.4,0c0.9,0,1.8-0.1,2.8-0.3
		c0.6-0.1,1.2-0.2,1.9-0.4c1.4-0.3,2.5-0.7,3.5-1.1c2.8-1.1,5.3-2.7,7.5-4.6c2.2-1.9,4.2-4.1,6-6.6c0.7-1,3.1-5,4.6-7.4
		c0.1,0,0.1,0,0.2,0l1.8-0.1c0.4,0,0.8-0.1,1.2-0.1c-0.7,1.2-1.3,2.3-1.9,3.5c-0.9,1.9-1.7,3.9-2.4,5.9l-0.5,1.4h2.7l0.3-0.7
		c0.6-1.5,1.4-2.9,2.4-4.2c1-1.3,2.1-2.6,3.2-3.8C52.7,39.7,54,38.5,55.3,37.5z"/>
	<path class="st1" d="M208.2,27.8c-0.3-0.3-0.6-0.5-1-0.7c-0.4-0.2-0.8-0.2-1.3-0.2c-0.4,0-0.9,0.1-1.2,0.2c-0.4,0.2-0.7,0.4-1,0.7
		c-0.3,0.3-0.5,0.7-0.7,1c-0.2,0.4-0.2,0.8-0.2,1.2c0,0.4,0.1,0.8,0.2,1.2c0.2,0.4,0.4,0.7,0.7,1c0.3,0.3,0.7,0.5,1,0.7
		c0.4,0.2,0.8,0.2,1.2,0.2s0.8-0.1,1.2-0.2c0.4-0.2,0.7-0.4,1.1-0.7c0.3-0.3,0.5-0.6,0.7-1c0.2-0.4,0.2-0.8,0.2-1.2
		c0-0.4-0.1-0.8-0.2-1.2C208.7,28.5,208.5,28.1,208.2,27.8z M208.3,31.1c-0.1,0.3-0.3,0.6-0.6,0.9c-0.3,0.3-0.5,0.4-0.9,0.6
		c-0.3,0.1-0.7,0.2-1,0.2c-0.4,0-0.7-0.1-1-0.2c-0.3-0.1-0.6-0.3-0.9-0.6c-0.3-0.3-0.4-0.5-0.6-0.9c-0.1-0.3-0.2-0.7-0.2-1
		c0-0.4,0.1-0.7,0.2-1c0.1-0.3,0.3-0.6,0.6-0.9c0.3-0.3,0.5-0.4,0.9-0.6c0.3-0.1,0.7-0.2,1-0.2c0.4,0,0.7,0.1,1,0.2
		c0.3,0.1,0.6,0.3,0.9,0.6c0.3,0.3,0.4,0.5,0.6,0.9c0.1,0.3,0.2,0.7,0.2,1C208.5,30.4,208.5,30.8,208.3,31.1z"/>
	<path class="st1" d="M214.4,27.6c-0.3-0.2-0.6-0.3-0.9-0.4c-0.4-0.1-0.9-0.1-1.8-0.1h-0.9v6h0.9h0.2c0.7,0,1.3,0,1.6-0.1
		c0.3-0.1,0.6-0.2,0.9-0.4c0.3-0.3,0.6-0.6,0.8-1c0.2-0.4,0.3-0.9,0.3-1.4s-0.1-1-0.3-1.4C215,28.2,214.7,27.9,214.4,27.6z
		 M214.6,31.3c-0.1,0.4-0.3,0.6-0.6,0.9c-0.2,0.2-0.4,0.3-0.7,0.4c-0.3,0.1-0.7,0.1-1.3,0.1h-0.8v-5.1h0.5h0.1c0.7,0,1.2,0,1.5,0.1
		c0.3,0.1,0.5,0.2,0.7,0.4c0.3,0.2,0.4,0.5,0.6,0.9c0.1,0.4,0.2,0.8,0.2,1.2C214.8,30.5,214.8,30.9,214.6,31.3z"/>
	<path class="st1" d="M222.3,27.8c-0.3-0.3-0.6-0.5-1-0.7c-0.4-0.2-0.8-0.2-1.3-0.2c-0.4,0-0.9,0.1-1.2,0.2c-0.4,0.2-0.7,0.4-1,0.7
		c-0.3,0.3-0.5,0.7-0.7,1c-0.2,0.4-0.2,0.8-0.2,1.2c0,0.4,0.1,0.8,0.2,1.2c0.2,0.4,0.4,0.7,0.7,1c0.3,0.3,0.7,0.5,1,0.7
		s0.8,0.2,1.2,0.2c0.4,0,0.8-0.1,1.2-0.2c0.4-0.2,0.7-0.4,1.1-0.7c0.3-0.3,0.5-0.6,0.7-1c0.2-0.4,0.2-0.8,0.2-1.2
		c0-0.4-0.1-0.8-0.2-1.2C222.8,28.5,222.6,28.1,222.3,27.8z M222.5,31.1c-0.1,0.3-0.3,0.6-0.6,0.9c-0.3,0.3-0.5,0.4-0.9,0.6
		c-0.3,0.1-0.7,0.2-1,0.2c-0.4,0-0.7-0.1-1-0.2c-0.3-0.1-0.6-0.3-0.9-0.6c-0.3-0.3-0.4-0.5-0.6-0.9c-0.1-0.3-0.2-0.7-0.2-1
		c0-0.4,0.1-0.7,0.2-1c0.1-0.3,0.3-0.6,0.6-0.9c0.3-0.3,0.5-0.4,0.9-0.6c0.3-0.1,0.7-0.2,1-0.2c0.4,0,0.7,0.1,1,0.2
		c0.3,0.1,0.6,0.3,0.9,0.6c0.3,0.3,0.4,0.5,0.6,0.9c0.1,0.3,0.2,0.7,0.2,1C222.7,30.4,222.6,30.8,222.5,31.1z"/>
	<polygon class="st1" points="225.4,28.2 229.7,33.3 229.7,27 229.2,27 229.2,31.8 224.9,26.8 224.9,33.1 225.4,33.1 	"/>
	<polygon class="st1" points="232.7,33.1 233.2,33.1 233.2,27.6 234.9,27.6 234.9,27 231,27 231,27.6 232.7,27.6 	"/>
	<path class="st1" d="M241,27.8c-0.3-0.3-0.7-0.5-1-0.7c-0.4-0.2-0.8-0.2-1.3-0.2c-0.4,0-0.9,0.1-1.2,0.2c-0.4,0.2-0.7,0.4-1,0.7
		c-0.3,0.3-0.5,0.7-0.7,1c-0.2,0.4-0.2,0.8-0.2,1.2c0,0.4,0.1,0.8,0.2,1.2c0.2,0.4,0.4,0.7,0.7,1c0.3,0.3,0.7,0.5,1,0.7
		c0.4,0.2,0.8,0.2,1.2,0.2c0.4,0,0.8-0.1,1.2-0.2c0.4-0.2,0.7-0.4,1.1-0.7c0.3-0.3,0.5-0.6,0.7-1s0.2-0.8,0.2-1.2
		c0-0.4-0.1-0.8-0.2-1.2C241.5,28.5,241.3,28.1,241,27.8z M241.2,31.1c-0.1,0.3-0.3,0.6-0.6,0.9c-0.3,0.3-0.5,0.4-0.9,0.6
		c-0.3,0.1-0.7,0.2-1,0.2c-0.4,0-0.7-0.1-1-0.2c-0.3-0.1-0.6-0.3-0.9-0.6c-0.3-0.3-0.4-0.5-0.6-0.9c-0.1-0.3-0.2-0.7-0.2-1
		c0-0.4,0.1-0.7,0.2-1c0.1-0.3,0.3-0.6,0.6-0.9c0.3-0.3,0.5-0.4,0.9-0.6c0.3-0.1,0.7-0.2,1-0.2c0.4,0,0.7,0.1,1,0.2
		c0.3,0.1,0.6,0.3,0.9,0.6c0.3,0.3,0.4,0.5,0.6,0.9c0.1,0.3,0.2,0.7,0.2,1C241.4,30.4,241.3,30.8,241.2,31.1z"/>
	<polygon class="st1" points="246.2,32.6 244.1,32.6 244.1,27 243.6,27 243.6,33.1 246.2,33.1 	"/>
	<path class="st1" d="M247.9,32.3c0.3,0.3,0.7,0.5,1,0.7c0.4,0.2,0.8,0.2,1.2,0.2c0.4,0,0.8-0.1,1.2-0.2c0.4-0.2,0.7-0.4,1.1-0.7
		c0.3-0.3,0.5-0.6,0.7-1c0.2-0.4,0.2-0.8,0.2-1.2c0-0.4-0.1-0.8-0.2-1.2c-0.2-0.4-0.4-0.7-0.7-1c-0.3-0.3-0.7-0.5-1-0.7
		c-0.4-0.2-0.8-0.2-1.3-0.2c-0.4,0-0.9,0.1-1.2,0.2c-0.4,0.2-0.7,0.4-1,0.7c-0.3,0.3-0.5,0.7-0.7,1c-0.2,0.4-0.2,0.8-0.2,1.2
		c0,0.4,0.1,0.8,0.2,1.2C247.3,31.7,247.5,32,247.9,32.3z M247.7,29c0.1-0.3,0.3-0.6,0.6-0.9c0.3-0.3,0.5-0.4,0.9-0.6
		c0.3-0.1,0.7-0.2,1-0.2c0.4,0,0.7,0.1,1,0.2c0.3,0.1,0.6,0.3,0.9,0.6c0.3,0.3,0.4,0.5,0.6,0.9c0.1,0.3,0.2,0.7,0.2,1
		c0,0.4-0.1,0.7-0.2,1c-0.1,0.3-0.3,0.6-0.6,0.9c-0.3,0.3-0.5,0.4-0.9,0.6c-0.3,0.1-0.7,0.2-1,0.2c-0.4,0-0.7-0.1-1-0.2
		c-0.3-0.1-0.6-0.3-0.9-0.6c-0.3-0.3-0.4-0.5-0.6-0.9c-0.1-0.3-0.2-0.7-0.2-1C247.5,29.7,247.6,29.4,247.7,29z"/>
	<path class="st1" d="M257.8,33.2c0.9,0,1.6-0.3,2.2-0.8c0.5-0.5,0.8-1.3,0.8-2.3v-0.1h-2.7v0.5h2.1c0,0.6-0.2,1.2-0.7,1.6
		c-0.4,0.4-1,0.6-1.7,0.6c-0.4,0-0.7-0.1-1-0.2c-0.3-0.1-0.6-0.3-0.8-0.6c-0.2-0.2-0.4-0.5-0.5-0.9c-0.1-0.3-0.2-0.7-0.2-1
		c0-0.8,0.2-1.5,0.7-2c0.5-0.5,1.1-0.8,1.8-0.8c0.4,0,0.9,0.1,1.2,0.3c0.4,0.2,0.7,0.5,0.9,0.9l0.4-0.3c-0.2-0.4-0.6-0.8-1-1
		c-0.4-0.2-1-0.3-1.6-0.3c-0.5,0-0.9,0.1-1.2,0.2c-0.4,0.2-0.7,0.4-1,0.7c-0.3,0.3-0.5,0.6-0.6,1c-0.1,0.4-0.2,0.8-0.2,1.2
		c0,0.9,0.3,1.7,0.9,2.3C256.1,33,256.9,33.2,257.8,33.2z"/>
	<rect x="262.3" y="27" class="st1" width="0.5" height="6"/>
	<path class="st1" d="M265.3,31h2.5l0.8,2h0.6l-2.5-6.3l-2.7,6.3h0.6L265.3,31z M266.6,27.9l1,2.6h-2.1L266.6,27.9z"/>
	<path class="st1" d="M206.6,37.9c-0.3-0.2-0.6-0.3-0.9-0.4c-0.4-0.1-0.9-0.1-1.8-0.1h-0.9v6h0.9h0.2c0.7,0,1.3,0,1.6-0.1
		c0.3-0.1,0.6-0.2,0.9-0.4c0.3-0.3,0.6-0.6,0.8-1c0.2-0.4,0.3-0.9,0.3-1.4c0-0.5-0.1-1-0.3-1.4C207.2,38.5,206.9,38.1,206.6,37.9z
		 M206.8,41.5c-0.1,0.4-0.3,0.6-0.6,0.9c-0.2,0.2-0.4,0.3-0.7,0.4c-0.3,0.1-0.7,0.1-1.3,0.1h-0.8v-5.1h0.5h0.1c0.7,0,1.2,0,1.5,0.1
		c0.3,0.1,0.5,0.2,0.7,0.4c0.3,0.2,0.4,0.5,0.6,0.9c0.1,0.4,0.2,0.8,0.2,1.2C207,40.8,207,41.2,206.8,41.5z"/>
	<polygon class="st1" points="209.2,43.4 212.2,43.4 212.2,42.9 209.8,42.9 209.8,40.2 212.2,40.2 212.2,39.7 209.8,39.7 
		209.8,37.8 212.2,37.8 212.2,37.3 209.2,37.3 	"/>
	<path class="st1" d="M220.5,37.2c-0.4,0-0.8,0.1-1.2,0.2c-0.4,0.2-0.7,0.4-1,0.7c-0.3,0.3-0.5,0.6-0.7,1c-0.2,0.4-0.2,0.8-0.2,1.3
		c0,0.5,0.1,0.9,0.2,1.3c0.2,0.4,0.4,0.7,0.7,1c0.3,0.3,0.6,0.5,1,0.7c0.4,0.2,0.8,0.2,1.3,0.2c0.3,0,0.7,0,1-0.1
		c0.3-0.1,0.6-0.2,0.9-0.4v-0.6c-0.3,0.2-0.6,0.4-0.9,0.5c-0.3,0.1-0.7,0.2-1,0.2c-0.4,0-0.7-0.1-1-0.2c-0.3-0.1-0.6-0.3-0.8-0.6
		c-0.2-0.2-0.4-0.5-0.5-0.8c-0.1-0.3-0.2-0.7-0.2-1.1c0-0.8,0.2-1.4,0.7-1.9c0.5-0.5,1.1-0.7,1.9-0.7c0.3,0,0.7,0.1,1,0.2
		c0.3,0.1,0.6,0.3,0.9,0.6l0-0.6c-0.3-0.2-0.6-0.4-0.9-0.5C221.3,37.2,220.9,37.2,220.5,37.2z"/>
	<path class="st1" d="M229.3,38.1c-0.3-0.3-0.6-0.5-1-0.7c-0.4-0.2-0.8-0.2-1.3-0.2c-0.4,0-0.9,0.1-1.2,0.2c-0.4,0.2-0.7,0.4-1,0.7
		c-0.3,0.3-0.5,0.7-0.7,1c-0.2,0.4-0.2,0.8-0.2,1.2c0,0.4,0.1,0.8,0.2,1.2c0.2,0.4,0.4,0.7,0.7,1c0.3,0.3,0.7,0.5,1,0.7
		c0.4,0.2,0.8,0.2,1.2,0.2c0.4,0,0.8-0.1,1.2-0.2c0.4-0.2,0.7-0.4,1.1-0.7c0.3-0.3,0.5-0.6,0.7-1c0.2-0.4,0.2-0.8,0.2-1.2
		c0-0.4-0.1-0.8-0.2-1.2C229.9,38.8,229.6,38.4,229.3,38.1z M229.5,41.4c-0.1,0.3-0.3,0.6-0.6,0.9c-0.3,0.3-0.5,0.4-0.9,0.6
		c-0.3,0.1-0.7,0.2-1,0.2c-0.4,0-0.7-0.1-1-0.2c-0.3-0.1-0.6-0.3-0.9-0.6c-0.3-0.3-0.4-0.5-0.6-0.9c-0.1-0.3-0.2-0.7-0.2-1
		c0-0.4,0.1-0.7,0.2-1c0.1-0.3,0.3-0.6,0.6-0.9c0.3-0.3,0.5-0.4,0.9-0.6c0.3-0.1,0.7-0.2,1-0.2c0.4,0,0.7,0.1,1,0.2
		c0.3,0.1,0.6,0.3,0.9,0.6c0.3,0.3,0.4,0.5,0.6,0.9c0.1,0.3,0.2,0.7,0.2,1C229.7,40.7,229.6,41.1,229.5,41.4z"/>
	<polygon class="st1" points="236.2,42.1 231.9,37.1 231.9,43.4 232.4,43.4 232.4,38.5 236.7,43.5 236.7,37.3 236.2,37.3 	"/>
	<polygon class="st1" points="238.6,43.4 239.2,43.4 239.2,40.2 241.5,40.2 241.5,39.7 239.2,39.7 239.2,37.8 241.6,37.8 
		241.6,37.3 238.6,37.3 	"/>
	<rect x="243.3" y="37.3" class="st1" width="0.5" height="6"/>
	<path class="st1" d="M244.9,43.4h0.6l0.8-2h2.5l0.8,2h0.6l-2.5-6.3L244.9,43.4z M246.5,40.8l1.1-2.6l1,2.6H246.5z"/>
	<polygon class="st1" points="255.5,42.1 251.2,37.1 251.2,43.4 251.8,43.4 251.8,38.5 256,43.5 256,37.3 255.5,37.3 	"/>
	<path class="st1" d="M260.8,37.2c-0.4,0-0.8,0.1-1.2,0.2c-0.4,0.2-0.7,0.4-1,0.7c-0.3,0.3-0.5,0.6-0.7,1c-0.2,0.4-0.2,0.8-0.2,1.3
		c0,0.5,0.1,0.9,0.2,1.3c0.2,0.4,0.4,0.7,0.7,1c0.3,0.3,0.6,0.5,1,0.7c0.3,0.1,0.6,0.2,1,0.2v0.5c0,0,0,0,0.1,0c0,0,0.1,0,0.1,0
		c0.2,0,0.3,0,0.4,0.1c0.1,0.1,0.1,0.2,0.1,0.3c0,0.1,0,0.2-0.1,0.3c-0.1,0.1-0.2,0.1-0.4,0.1c-0.1,0-0.2,0-0.3,0
		c-0.1,0-0.3-0.1-0.6-0.1v0.3c0.2,0.1,0.4,0.1,0.5,0.1c0.2,0,0.3,0,0.5,0c0.3,0,0.5-0.1,0.7-0.2c0.1-0.1,0.2-0.3,0.2-0.5
		c0-0.2-0.1-0.4-0.2-0.5c-0.2-0.1-0.4-0.2-0.7-0.2h-0.1v-0.3c0,0,0,0,0,0c0.3,0,0.7,0,1-0.1c0.3-0.1,0.6-0.2,0.9-0.4v-0.6
		c-0.3,0.2-0.6,0.4-0.9,0.5c-0.3,0.1-0.7,0.2-1,0.2c-0.4,0-0.7-0.1-1-0.2c-0.3-0.1-0.6-0.3-0.8-0.6c-0.2-0.2-0.4-0.5-0.5-0.8
		c-0.1-0.3-0.2-0.7-0.2-1.1c0-0.8,0.2-1.4,0.7-1.9c0.5-0.5,1.1-0.7,1.9-0.7c0.3,0,0.7,0.1,1,0.2c0.3,0.1,0.6,0.3,0.9,0.6l0-0.6
		c-0.3-0.2-0.6-0.4-0.9-0.5C261.6,37.2,261.2,37.2,260.8,37.2z"/>
	<path class="st1" d="M263.6,43.4h0.6l0.8-2h2.5l0.8,2h0.6l-2.5-6.3L263.6,43.4z M265.1,40.8l1.1-2.6l1,2.6H265.1z"/>
</g>
</svg>
