<?xml version="1.0" encoding="utf-8"?>
<!-- Generator: Adobe Illustrator 19.2.1, SVG Export Plug-In . SVG Version: 6.00 Build 0)  -->
<svg version="1.1" id="Layer_1" xmlns="http://www.w3.org/2000/svg" xmlns:xlink="http://www.w3.org/1999/xlink" x="0px" y="0px"
	 viewBox="0 0 132 132" style="enable-background:new 0 0 132 132;" xml:space="preserve">
<style type="text/css">
	.st0{fill:none;stroke:#FFFFFF;stroke-width:2;stroke-linecap:round;stroke-miterlimit:10;}
	.st1{fill:none;stroke:#FFFFFF;stroke-width:2;stroke-miterlimit:10;}
</style>
<g>
	<path class="st0" d="M3.2,59.5c0,0,17.2,4.4,62.4,4.4s63.1-5.3,63.1-5.3"/>
	<path class="st1" d="M27.7,87.4c0,0-10.8,2.3-17.7-24.8C5.1,43.5,27.7,44.5,27.7,44.5s17.7-0.9,18.6,12
		C47.2,69.5,37.7,87.4,27.7,87.4z"/>
	<path class="st1" d="M64.8,87.4c0,0-10.8,2.3-17.7-24.8c-4.9-19.1,17.7-18.1,17.7-18.1s17.7-0.9,18.6,12S74.8,87.4,64.8,87.4z"/>
	<path class="st1" d="M101.9,87.4c0,0-10.8,2.3-17.7-24.8c-4.9-19.1,17.7-18.1,17.7-18.1s17.7-0.9,18.6,12
		C121.3,69.5,111.8,87.4,101.9,87.4z"/>
	<path class="st1" d="M67.4,68.8h-4.1c-1.4,0-2.5-1.1-2.5-2.5V62c0-1.4,1.1-2.5,2.5-2.5h4.1c1.4,0,2.5,1.1,2.5,2.5v4.3
		C69.9,67.6,68.8,68.8,67.4,68.8z"/>
	<path class="st1" d="M28.9,66.9h-4.6c-1.3,0-2.3-1-2.3-2.3v-4.7c0-1.3,1-2.3,2.3-2.3h4.6c1.3,0,2.3,1,2.3,2.3v4.7
		C31.2,65.9,30.2,66.9,28.9,66.9z"/>
	<path class="st1" d="M105.9,66.9h-4.7c-1.2,0-2.2-1-2.2-2.2v-4.9c0-1.2,1-2.2,2.2-2.2h4.7c1.2,0,2.2,1,2.2,2.2v4.9
		C108.1,65.9,107.1,66.9,105.9,66.9z"/>
</g>
</svg>
